<?xml version="1.0" encoding="UTF-8" standalone="no"?>
<!DOCTYPE svg PUBLIC "-//W3C//DTD SVG 1.1//EN"
 "http://www.w3.org/Graphics/SVG/1.1/DTD/svg11.dtd">
<!-- Generated by graphviz version 9.0.0 (20231125.0833)
 -->
<!-- Title: snakemake_dag Pages: 1 -->
<svg width="1540pt" height="764pt"
 viewBox="0.00 0.00 1540.40 764.00" xmlns="http://www.w3.org/2000/svg" xmlns:xlink="http://www.w3.org/1999/xlink">
<g id="graph0" class="graph" transform="scale(1 1) rotate(0) translate(4 760)">
<title>snakemake_dag</title>
<polygon fill="white" stroke="none" points="-4,4 -4,-760 1536.4,-760 1536.4,4 -4,4"/>
<!-- 0 -->
<g id="node1" class="node">
<title>0</title>
<path fill="none" stroke="#68d856" stroke-width="2" d="M85,-108C85,-108 12,-108 12,-108 6,-108 0,-102 0,-96 0,-96 0,-84 0,-84 0,-78 6,-72 12,-72 12,-72 85,-72 85,-72 91,-72 97,-78 97,-84 97,-84 97,-96 97,-96 97,-102 91,-108 85,-108"/>
<text text-anchor="middle" x="48.5" y="-86.88" font-family="sans" font-size="10.00">wrplot_overview</text>
</g>
<!-- 38 -->
<g id="node39" class="node">
<title>38</title>
<path fill="none" stroke="#56d87b" stroke-width="2" d="M923.5,-36C923.5,-36 893.5,-36 893.5,-36 887.5,-36 881.5,-30 881.5,-24 881.5,-24 881.5,-12 881.5,-12 881.5,-6 887.5,0 893.5,0 893.5,0 923.5,0 923.5,0 929.5,0 935.5,-6 935.5,-12 935.5,-12 935.5,-24 935.5,-24 935.5,-30 929.5,-36 923.5,-36"/>
<text text-anchor="middle" x="908.5" y="-14.88" font-family="sans" font-size="10.00">all</text>
</g>
<!-- 0&#45;&gt;38 -->
<g id="edge75" class="edge">
<title>0&#45;&gt;38</title>
<path fill="none" stroke="grey" stroke-width="2" d="M97.82,-74.7C102.42,-73.67 107.03,-72.74 111.5,-72 398.35,-24.24 750.03,-19.16 867.86,-18.89"/>
<polygon fill="grey" stroke="grey" stroke-width="2" points="867.72,-22.39 877.72,-18.88 867.71,-15.39 867.72,-22.39"/>
</g>
<!-- 1 -->
<g id="node2" class="node">
<title>1</title>
<path fill="none" stroke="#d85e56" stroke-width="2" d="M1215.75,-468C1215.75,-468 1153.25,-468 1153.25,-468 1147.25,-468 1141.25,-462 1141.25,-456 1141.25,-456 1141.25,-444 1141.25,-444 1141.25,-438 1147.25,-432 1153.25,-432 1153.25,-432 1215.75,-432 1215.75,-432 1221.75,-432 1227.75,-438 1227.75,-444 1227.75,-444 1227.75,-456 1227.75,-456 1227.75,-462 1221.75,-468 1215.75,-468"/>
<text text-anchor="middle" x="1184.5" y="-446.88" font-family="sans" font-size="10.00">plot_PhenoCor</text>
</g>
<!-- 1&#45;&gt;38 -->
<g id="edge74" class="edge">
<title>1&#45;&gt;38</title>
<path fill="none" stroke="grey" stroke-width="2" d="M1200.32,-431.4C1252.14,-371.67 1407.54,-174.79 1301.5,-72 1252.01,-24.03 1039.53,-18.67 949.29,-18.62"/>
<polygon fill="grey" stroke="grey" stroke-width="2" points="949.42,-15.12 939.43,-18.64 949.44,-22.12 949.42,-15.12"/>
</g>
<!-- 2 -->
<g id="node3" class="node">
<title>2</title>
<path fill="none" stroke="#d88d56" stroke-width="2" d="M1505.38,-612C1505.38,-612 1395.62,-612 1395.62,-612 1389.62,-612 1383.62,-606 1383.62,-600 1383.62,-600 1383.62,-588 1383.62,-588 1383.62,-582 1389.62,-576 1395.62,-576 1395.62,-576 1505.38,-576 1505.38,-576 1511.38,-576 1517.38,-582 1517.38,-588 1517.38,-588 1517.38,-600 1517.38,-600 1517.38,-606 1511.38,-612 1505.38,-612"/>
<text text-anchor="middle" x="1450.5" y="-590.88" font-family="sans" font-size="10.00">gcta_grmbin_IMAGE_QC</text>
</g>
<!-- 12 -->
<g id="node13" class="node">
<title>12</title>
<path fill="none" stroke="#56d892" stroke-width="2" d="M1331.25,-540C1331.25,-540 1259.75,-540 1259.75,-540 1253.75,-540 1247.75,-534 1247.75,-528 1247.75,-528 1247.75,-516 1247.75,-516 1247.75,-510 1253.75,-504 1259.75,-504 1259.75,-504 1331.25,-504 1331.25,-504 1337.25,-504 1343.25,-510 1343.25,-516 1343.25,-516 1343.25,-528 1343.25,-528 1343.25,-534 1337.25,-540 1331.25,-540"/>
<text text-anchor="middle" x="1295.5" y="-518.88" font-family="sans" font-size="10.00">gcta_mlma_Gen</text>
</g>
<!-- 2&#45;&gt;12 -->
<g id="edge14" class="edge">
<title>2&#45;&gt;12</title>
<path fill="none" stroke="grey" stroke-width="2" d="M1410.99,-575.15C1391.48,-566.34 1367.7,-555.61 1346.8,-546.17"/>
<polygon fill="grey" stroke="grey" stroke-width="2" points="1348.52,-543.11 1337.97,-542.18 1345.64,-549.49 1348.52,-543.11"/>
</g>
<!-- 20 -->
<g id="node21" class="node">
<title>20</title>
<path fill="none" stroke="#d8d356" stroke-width="2" d="M1478.5,-540C1478.5,-540 1384.5,-540 1384.5,-540 1378.5,-540 1372.5,-534 1372.5,-528 1372.5,-528 1372.5,-516 1372.5,-516 1372.5,-510 1378.5,-504 1384.5,-504 1384.5,-504 1478.5,-504 1478.5,-504 1484.5,-504 1490.5,-510 1490.5,-516 1490.5,-516 1490.5,-528 1490.5,-528 1490.5,-534 1484.5,-540 1478.5,-540"/>
<text text-anchor="middle" x="1431.5" y="-518.88" font-family="sans" font-size="10.00">gcta_mlma_Gen_cov</text>
</g>
<!-- 2&#45;&gt;20 -->
<g id="edge34" class="edge">
<title>2&#45;&gt;20</title>
<path fill="none" stroke="grey" stroke-width="2" d="M1445.71,-575.34C1443.9,-568.67 1441.78,-560.89 1439.75,-553.39"/>
<polygon fill="grey" stroke="grey" stroke-width="2" points="1443.15,-552.56 1437.15,-543.82 1436.39,-554.39 1443.15,-552.56"/>
</g>
<!-- 3 -->
<g id="node4" class="node">
<title>3</title>
<path fill="none" stroke="#97d856" stroke-width="2" d="M1475.75,-684C1475.75,-684 1425.25,-684 1425.25,-684 1419.25,-684 1413.25,-678 1413.25,-672 1413.25,-672 1413.25,-660 1413.25,-660 1413.25,-654 1419.25,-648 1425.25,-648 1425.25,-648 1475.75,-648 1475.75,-648 1481.75,-648 1487.75,-654 1487.75,-660 1487.75,-660 1487.75,-672 1487.75,-672 1487.75,-678 1481.75,-684 1475.75,-684"/>
<text text-anchor="middle" x="1450.5" y="-662.88" font-family="sans" font-size="10.00">bfile_ori_QC</text>
</g>
<!-- 3&#45;&gt;2 -->
<g id="edge3" class="edge">
<title>3&#45;&gt;2</title>
<path fill="none" stroke="grey" stroke-width="2" d="M1450.5,-647.34C1450.5,-640.75 1450.5,-633.08 1450.5,-625.67"/>
<polygon fill="grey" stroke="grey" stroke-width="2" points="1454,-625.93 1450.5,-615.93 1447,-625.93 1454,-625.93"/>
</g>
<!-- 3&#45;&gt;12 -->
<g id="edge16" class="edge">
<title>3&#45;&gt;12</title>
<path fill="none" stroke="grey" stroke-width="2" d="M1421.52,-647.12C1406.82,-637.48 1389.04,-624.94 1374.5,-612 1353.46,-593.29 1332.44,-569.29 1317.38,-550.92"/>
<polygon fill="grey" stroke="grey" stroke-width="2" points="1320.15,-548.78 1311.14,-543.2 1314.7,-553.18 1320.15,-548.78"/>
</g>
<!-- 3&#45;&gt;20 -->
<g id="edge36" class="edge">
<title>3&#45;&gt;20</title>
<path fill="none" stroke="grey" stroke-width="2" d="M1488.48,-648.25C1503.13,-639.68 1518.31,-627.69 1526.5,-612 1533.9,-597.81 1534.6,-589.8 1526.5,-576 1519.47,-564.03 1508.65,-554.56 1496.79,-547.15"/>
<polygon fill="grey" stroke="grey" stroke-width="2" points="1498.75,-544.24 1488.32,-542.39 1495.32,-550.34 1498.75,-544.24"/>
</g>
<!-- 4 -->
<g id="node5" class="node">
<title>4</title>
<path fill="none" stroke="#afd856" stroke-width="2" d="M1472,-756C1472,-756 1429,-756 1429,-756 1423,-756 1417,-750 1417,-744 1417,-744 1417,-732 1417,-732 1417,-726 1423,-720 1429,-720 1429,-720 1472,-720 1472,-720 1478,-720 1484,-726 1484,-732 1484,-732 1484,-744 1484,-744 1484,-750 1478,-756 1472,-756"/>
<text text-anchor="middle" x="1450.5" y="-734.88" font-family="sans" font-size="10.00">prep_geno</text>
</g>
<!-- 4&#45;&gt;3 -->
<g id="edge4" class="edge">
<title>4&#45;&gt;3</title>
<path fill="none" stroke="grey" stroke-width="2" d="M1450.5,-719.34C1450.5,-712.75 1450.5,-705.08 1450.5,-697.67"/>
<polygon fill="grey" stroke="grey" stroke-width="2" points="1454,-697.93 1450.5,-687.93 1447,-697.93 1454,-697.93"/>
</g>
<!-- 5 -->
<g id="node6" class="node">
<title>5</title>
<path fill="none" stroke="#56d8a2" stroke-width="2" d="M1233.75,-612C1233.75,-612 1135.25,-612 1135.25,-612 1129.25,-612 1123.25,-606 1123.25,-600 1123.25,-600 1123.25,-588 1123.25,-588 1123.25,-582 1129.25,-576 1135.25,-576 1135.25,-576 1233.75,-576 1233.75,-576 1239.75,-576 1245.75,-582 1245.75,-588 1245.75,-588 1245.75,-600 1245.75,-600 1245.75,-606 1239.75,-612 1233.75,-612"/>
<text text-anchor="middle" x="1184.5" y="-590.88" font-family="sans" font-size="10.00">gcta_grmbin_imputed</text>
</g>
<!-- 9 -->
<g id="node10" class="node">
<title>9</title>
<path fill="none" stroke="#56d8c1" stroke-width="2" d="M1099.88,-540C1099.88,-540 1059.12,-540 1059.12,-540 1053.12,-540 1047.12,-534 1047.12,-528 1047.12,-528 1047.12,-516 1047.12,-516 1047.12,-510 1053.12,-504 1059.12,-504 1059.12,-504 1099.88,-504 1099.88,-504 1105.88,-504 1111.88,-510 1111.88,-516 1111.88,-516 1111.88,-528 1111.88,-528 1111.88,-534 1105.88,-540 1099.88,-540"/>
<text text-anchor="middle" x="1079.5" y="-518.88" font-family="sans" font-size="10.00">gcta_reml</text>
</g>
<!-- 5&#45;&gt;9 -->
<g id="edge9" class="edge">
<title>5&#45;&gt;9</title>
<path fill="none" stroke="grey" stroke-width="2" d="M1157.73,-575.15C1145.27,-566.84 1130.23,-556.82 1116.68,-547.79"/>
<polygon fill="grey" stroke="grey" stroke-width="2" points="1119,-545.13 1108.74,-542.49 1115.12,-550.95 1119,-545.13"/>
</g>
<!-- 6 -->
<g id="node7" class="node">
<title>6</title>
<path fill="none" stroke="#ced856" stroke-width="2" d="M883,-684C883,-684 792,-684 792,-684 786,-684 780,-678 780,-672 780,-672 780,-660 780,-660 780,-654 786,-648 792,-648 792,-648 883,-648 883,-648 889,-648 895,-654 895,-660 895,-660 895,-672 895,-672 895,-678 889,-684 883,-684"/>
<text text-anchor="middle" x="837.5" y="-662.88" font-family="sans" font-size="10.00">bfile_beagle_impute</text>
</g>
<!-- 6&#45;&gt;5 -->
<g id="edge5" class="edge">
<title>6&#45;&gt;5</title>
<path fill="none" stroke="grey" stroke-width="2" d="M895.81,-654.6C949.04,-644.92 1030.21,-629.72 1110.27,-612.64"/>
<polygon fill="grey" stroke="grey" stroke-width="2" points="1110.58,-616.16 1119.62,-610.64 1109.11,-609.31 1110.58,-616.16"/>
</g>
<!-- 6&#45;&gt;9 -->
<g id="edge10" class="edge">
<title>6&#45;&gt;9</title>
<path fill="none" stroke="grey" stroke-width="2" d="M895.95,-650.44C924.54,-641.81 958.69,-629.15 986.5,-612 990.33,-609.64 1026.22,-574.96 1052.26,-549.6"/>
<polygon fill="grey" stroke="grey" stroke-width="2" points="1054.45,-552.36 1059.17,-542.87 1049.57,-547.34 1054.45,-552.36"/>
</g>
<!-- 13 -->
<g id="node14" class="node">
<title>13</title>
<path fill="none" stroke="#88d856" stroke-width="2" d="M1001.5,-540C1001.5,-540 901.5,-540 901.5,-540 895.5,-540 889.5,-534 889.5,-528 889.5,-528 889.5,-516 889.5,-516 889.5,-510 895.5,-504 901.5,-504 901.5,-504 1001.5,-504 1001.5,-504 1007.5,-504 1013.5,-510 1013.5,-516 1013.5,-516 1013.5,-528 1013.5,-528 1013.5,-534 1007.5,-540 1001.5,-540"/>
<text text-anchor="middle" x="951.5" y="-518.88" font-family="sans" font-size="10.00">gcta_fastGWA_impute</text>
</g>
<!-- 6&#45;&gt;13 -->
<g id="edge20" class="edge">
<title>6&#45;&gt;13</title>
<path fill="none" stroke="grey" stroke-width="2" d="M847.48,-647.09C858.22,-628.49 876.36,-598.94 895.5,-576 903.16,-566.81 912.3,-557.58 920.95,-549.46"/>
<polygon fill="grey" stroke="grey" stroke-width="2" points="923.15,-552.19 928.17,-542.86 918.42,-547.02 923.15,-552.19"/>
</g>
<!-- 14 -->
<g id="node15" class="node">
<title>14</title>
<path fill="none" stroke="#d87d56" stroke-width="2" d="M836.12,-612C836.12,-612 760.88,-612 760.88,-612 754.88,-612 748.88,-606 748.88,-600 748.88,-600 748.88,-588 748.88,-588 748.88,-582 754.88,-576 760.88,-576 760.88,-576 836.12,-576 836.12,-576 842.12,-576 848.12,-582 848.12,-588 848.12,-588 848.12,-600 848.12,-600 848.12,-606 842.12,-612 836.12,-612"/>
<text text-anchor="middle" x="798.5" y="-590.88" font-family="sans" font-size="10.00">gcta_sparse_grm</text>
</g>
<!-- 6&#45;&gt;14 -->
<g id="edge22" class="edge">
<title>6&#45;&gt;14</title>
<path fill="none" stroke="grey" stroke-width="2" d="M827.66,-647.34C823.76,-640.34 819.18,-632.12 814.81,-624.28"/>
<polygon fill="grey" stroke="grey" stroke-width="2" points="817.87,-622.58 809.95,-615.55 811.76,-625.99 817.87,-622.58"/>
</g>
<!-- 16 -->
<g id="node17" class="node">
<title>16</title>
<path fill="none" stroke="#566bd8" stroke-width="2" d="M859.75,-540C859.75,-540 737.25,-540 737.25,-540 731.25,-540 725.25,-534 725.25,-528 725.25,-528 725.25,-516 725.25,-516 725.25,-510 731.25,-504 737.25,-504 737.25,-504 859.75,-504 859.75,-504 865.75,-504 871.75,-510 871.75,-516 871.75,-516 871.75,-528 871.75,-528 871.75,-534 865.75,-540 859.75,-540"/>
<text text-anchor="middle" x="798.5" y="-518.88" font-family="sans" font-size="10.00">gcta_fastGWA_impute_cov</text>
</g>
<!-- 6&#45;&gt;16 -->
<g id="edge27" class="edge">
<title>6&#45;&gt;16</title>
<path fill="none" stroke="grey" stroke-width="2" d="M780.88,-647.08C764.66,-639.03 748.86,-627.7 739.5,-612 731.31,-598.26 732.98,-590.61 739.5,-576 744.05,-565.79 751.66,-556.72 759.92,-549.1"/>
<polygon fill="grey" stroke="grey" stroke-width="2" points="762.04,-551.89 767.45,-542.78 757.54,-546.52 762.04,-551.89"/>
</g>
<!-- 7 -->
<g id="node8" class="node">
<title>7</title>
<path fill="none" stroke="#56d8a9" stroke-width="2" d="M755.5,-756C755.5,-756 709.5,-756 709.5,-756 703.5,-756 697.5,-750 697.5,-744 697.5,-744 697.5,-732 697.5,-732 697.5,-726 703.5,-720 709.5,-720 709.5,-720 755.5,-720 755.5,-720 761.5,-720 767.5,-726 767.5,-732 767.5,-732 767.5,-744 767.5,-744 767.5,-750 761.5,-756 755.5,-756"/>
<text text-anchor="middle" x="732.5" y="-734.88" font-family="sans" font-size="10.00">QC_impute</text>
</g>
<!-- 7&#45;&gt;6 -->
<g id="edge6" class="edge">
<title>7&#45;&gt;6</title>
<path fill="none" stroke="grey" stroke-width="2" d="M759.27,-719.15C771.73,-710.84 786.77,-700.82 800.32,-691.79"/>
<polygon fill="grey" stroke="grey" stroke-width="2" points="801.88,-694.95 808.26,-686.49 798,-689.13 801.88,-694.95"/>
</g>
<!-- 25 -->
<g id="node26" class="node">
<title>25</title>
<path fill="none" stroke="#d85656" stroke-width="2" d="M385.75,-252C385.75,-252 335.25,-252 335.25,-252 329.25,-252 323.25,-246 323.25,-240 323.25,-240 323.25,-228 323.25,-228 323.25,-222 329.25,-216 335.25,-216 335.25,-216 385.75,-216 385.75,-216 391.75,-216 397.75,-222 397.75,-228 397.75,-228 397.75,-240 397.75,-240 397.75,-246 391.75,-252 385.75,-252"/>
<text text-anchor="middle" x="360.5" y="-230.88" font-family="sans" font-size="10.00">VEP_BFMAP</text>
</g>
<!-- 7&#45;&gt;25 -->
<g id="edge40" class="edge">
<title>7&#45;&gt;25</title>
<path fill="none" stroke="grey" stroke-width="2" d="M696.77,-735.62C619.45,-730.53 443.5,-706.67 443.5,-595 443.5,-595 443.5,-595 443.5,-377 443.5,-332.18 412.3,-288.95 388.16,-262.2"/>
<polygon fill="grey" stroke="grey" stroke-width="2" points="390.8,-259.89 381.4,-254.99 385.69,-264.68 390.8,-259.89"/>
</g>
<!-- 8 -->
<g id="node9" class="node">
<title>8</title>
<path fill="none" stroke="#d8bc56" stroke-width="2" d="M1315.5,-612C1315.5,-612 1275.5,-612 1275.5,-612 1269.5,-612 1263.5,-606 1263.5,-600 1263.5,-600 1263.5,-588 1263.5,-588 1263.5,-582 1269.5,-576 1275.5,-576 1275.5,-576 1315.5,-576 1315.5,-576 1321.5,-576 1327.5,-582 1327.5,-588 1327.5,-588 1327.5,-600 1327.5,-600 1327.5,-606 1321.5,-612 1315.5,-612"/>
<text text-anchor="middle" x="1295.5" y="-590.88" font-family="sans" font-size="10.00">get_covar</text>
</g>
<!-- 8&#45;&gt;9 -->
<g id="edge7" class="edge">
<title>8&#45;&gt;9</title>
<path fill="none" stroke="grey" stroke-width="2" d="M1262.94,-579.16C1260.1,-578.05 1257.26,-576.99 1254.5,-576 1230.63,-567.46 1168.42,-548.94 1125,-536.22"/>
<polygon fill="grey" stroke="grey" stroke-width="2" points="1126.24,-532.94 1115.65,-533.49 1124.27,-539.66 1126.24,-532.94"/>
</g>
<!-- 8&#45;&gt;12 -->
<g id="edge12" class="edge">
<title>8&#45;&gt;12</title>
<path fill="none" stroke="grey" stroke-width="2" d="M1295.5,-575.34C1295.5,-568.75 1295.5,-561.08 1295.5,-553.67"/>
<polygon fill="grey" stroke="grey" stroke-width="2" points="1299,-553.93 1295.5,-543.93 1292,-553.93 1299,-553.93"/>
</g>
<!-- 8&#45;&gt;13 -->
<g id="edge17" class="edge">
<title>8&#45;&gt;13</title>
<path fill="none" stroke="grey" stroke-width="2" d="M1262.61,-578.61C1259.89,-577.65 1257.17,-576.76 1254.5,-576 1160.94,-549.19 1134.27,-557.33 1038.5,-540 1034.69,-539.31 1030.78,-538.59 1026.84,-537.86"/>
<polygon fill="grey" stroke="grey" stroke-width="2" points="1027.64,-534.44 1017.16,-536.03 1026.34,-541.32 1027.64,-534.44"/>
</g>
<!-- 8&#45;&gt;16 -->
<g id="edge24" class="edge">
<title>8&#45;&gt;16</title>
<path fill="none" stroke="grey" stroke-width="2" d="M1262.67,-578.4C1259.94,-577.49 1257.19,-576.67 1254.5,-576 1096.43,-536.56 1047.97,-563.59 885.08,-540.57"/>
<polygon fill="grey" stroke="grey" stroke-width="2" points="886.03,-537.17 875.63,-539.18 885.01,-544.1 886.03,-537.17"/>
</g>
<!-- 8&#45;&gt;20 -->
<g id="edge32" class="edge">
<title>8&#45;&gt;20</title>
<path fill="none" stroke="grey" stroke-width="2" d="M1328.42,-576.05C1345.53,-567.25 1366.71,-556.35 1385.42,-546.72"/>
<polygon fill="grey" stroke="grey" stroke-width="2" points="1387,-549.84 1394.29,-542.15 1383.8,-543.62 1387,-549.84"/>
</g>
<!-- 9&#45;&gt;1 -->
<g id="edge1" class="edge">
<title>9&#45;&gt;1</title>
<path fill="none" stroke="grey" stroke-width="2" d="M1106.27,-503.15C1118.73,-494.84 1133.77,-484.82 1147.32,-475.79"/>
<polygon fill="grey" stroke="grey" stroke-width="2" points="1148.88,-478.95 1155.26,-470.49 1145,-473.13 1148.88,-478.95"/>
</g>
<!-- 10 -->
<g id="node11" class="node">
<title>10</title>
<path fill="none" stroke="#56d863" stroke-width="2" d="M966,-612C966,-612 917,-612 917,-612 911,-612 905,-606 905,-600 905,-600 905,-588 905,-588 905,-582 911,-576 917,-576 917,-576 966,-576 966,-576 972,-576 978,-582 978,-588 978,-588 978,-600 978,-600 978,-606 972,-612 966,-612"/>
<text text-anchor="middle" x="941.5" y="-590.88" font-family="sans" font-size="10.00">prep_pheno</text>
</g>
<!-- 10&#45;&gt;9 -->
<g id="edge8" class="edge">
<title>10&#45;&gt;9</title>
<path fill="none" stroke="grey" stroke-width="2" d="M976.68,-575.15C994.32,-566.21 1015.88,-555.27 1034.69,-545.73"/>
<polygon fill="grey" stroke="grey" stroke-width="2" points="1036.25,-548.86 1043.58,-541.22 1033.08,-542.62 1036.25,-548.86"/>
</g>
<!-- 10&#45;&gt;12 -->
<g id="edge13" class="edge">
<title>10&#45;&gt;12</title>
<path fill="none" stroke="grey" stroke-width="2" d="M978.68,-585.27C993.26,-582.3 1010.15,-578.91 1025.5,-576 1115.52,-558.91 1138.92,-559.28 1228.5,-540 1230.46,-539.58 1232.46,-539.14 1234.47,-538.68"/>
<polygon fill="grey" stroke="grey" stroke-width="2" points="1235.04,-542.14 1243.98,-536.46 1233.45,-535.33 1235.04,-542.14"/>
</g>
<!-- 10&#45;&gt;13 -->
<g id="edge18" class="edge">
<title>10&#45;&gt;13</title>
<path fill="none" stroke="grey" stroke-width="2" d="M944.02,-575.34C944.96,-568.75 946.06,-561.08 947.12,-553.67"/>
<polygon fill="grey" stroke="grey" stroke-width="2" points="950.57,-554.29 948.51,-543.9 943.64,-553.3 950.57,-554.29"/>
</g>
<!-- 10&#45;&gt;16 -->
<g id="edge25" class="edge">
<title>10&#45;&gt;16</title>
<path fill="none" stroke="grey" stroke-width="2" d="M905.05,-575.15C887.23,-566.43 865.55,-555.82 846.42,-546.46"/>
<polygon fill="grey" stroke="grey" stroke-width="2" points="848.13,-543.4 837.61,-542.14 845.05,-549.68 848.13,-543.4"/>
</g>
<!-- 10&#45;&gt;20 -->
<g id="edge33" class="edge">
<title>10&#45;&gt;20</title>
<path fill="none" stroke="grey" stroke-width="2" d="M978.59,-584.75C993.16,-581.7 1010.06,-578.41 1025.5,-576 1169.97,-553.48 1208.17,-563.41 1352.5,-540 1354.64,-539.65 1356.81,-539.28 1359,-538.9"/>
<polygon fill="grey" stroke="grey" stroke-width="2" points="1359.5,-542.37 1368.69,-537.1 1358.22,-535.49 1359.5,-542.37"/>
</g>
<!-- 11 -->
<g id="node12" class="node">
<title>11</title>
<path fill="none" stroke="#b6d856" stroke-width="2" d="M1092.88,-612C1092.88,-612 1046.12,-612 1046.12,-612 1040.12,-612 1034.12,-606 1034.12,-600 1034.12,-600 1034.12,-588 1034.12,-588 1034.12,-582 1040.12,-576 1046.12,-576 1046.12,-576 1092.88,-576 1092.88,-576 1098.88,-576 1104.88,-582 1104.88,-588 1104.88,-588 1104.88,-600 1104.88,-600 1104.88,-606 1098.88,-612 1092.88,-612"/>
<text text-anchor="middle" x="1069.5" y="-590.88" font-family="sans" font-size="10.00">get_ID_gen</text>
</g>
<!-- 11&#45;&gt;9 -->
<g id="edge11" class="edge">
<title>11&#45;&gt;9</title>
<path fill="none" stroke="grey" stroke-width="2" d="M1072.02,-575.34C1072.96,-568.75 1074.06,-561.08 1075.12,-553.67"/>
<polygon fill="grey" stroke="grey" stroke-width="2" points="1078.57,-554.29 1076.51,-543.9 1071.64,-553.3 1078.57,-554.29"/>
</g>
<!-- 11&#45;&gt;12 -->
<g id="edge15" class="edge">
<title>11&#45;&gt;12</title>
<path fill="none" stroke="grey" stroke-width="2" d="M1105.76,-579.03C1108.71,-577.98 1111.65,-576.95 1114.5,-576 1154.04,-562.76 1199.04,-549.58 1234.28,-539.67"/>
<polygon fill="grey" stroke="grey" stroke-width="2" points="1235.18,-543.05 1243.87,-536.99 1233.3,-536.31 1235.18,-543.05"/>
</g>
<!-- 11&#45;&gt;13 -->
<g id="edge21" class="edge">
<title>11&#45;&gt;13</title>
<path fill="none" stroke="grey" stroke-width="2" d="M1039.42,-575.15C1025.13,-566.68 1007.84,-556.42 992.39,-547.25"/>
<polygon fill="grey" stroke="grey" stroke-width="2" points="994.52,-544.45 984.13,-542.36 990.95,-550.47 994.52,-544.45"/>
</g>
<!-- 11&#45;&gt;16 -->
<g id="edge28" class="edge">
<title>11&#45;&gt;16</title>
<path fill="none" stroke="grey" stroke-width="2" d="M1033.23,-583.63C994.33,-573.58 931.26,-557.29 880.29,-544.13"/>
<polygon fill="grey" stroke="grey" stroke-width="2" points="881.43,-540.81 870.88,-541.7 879.68,-547.58 881.43,-540.81"/>
</g>
<!-- 11&#45;&gt;20 -->
<g id="edge35" class="edge">
<title>11&#45;&gt;20</title>
<path fill="none" stroke="grey" stroke-width="2" d="M1105.64,-578.6C1108.61,-577.64 1111.59,-576.76 1114.5,-576 1218,-548.95 1247.27,-559.26 1352.5,-540 1354.63,-539.61 1356.8,-539.2 1358.98,-538.79"/>
<polygon fill="grey" stroke="grey" stroke-width="2" points="1359.52,-542.25 1368.65,-536.88 1358.16,-535.38 1359.52,-542.25"/>
</g>
<!-- 23 -->
<g id="node24" class="node">
<title>23</title>
<path fill="none" stroke="#9fd856" stroke-width="2" d="M1435.25,-324C1435.25,-324 1357.75,-324 1357.75,-324 1351.75,-324 1345.75,-318 1345.75,-312 1345.75,-312 1345.75,-300 1345.75,-300 1345.75,-294 1351.75,-288 1357.75,-288 1357.75,-288 1435.25,-288 1435.25,-288 1441.25,-288 1447.25,-294 1447.25,-300 1447.25,-300 1447.25,-312 1447.25,-312 1447.25,-318 1441.25,-324 1435.25,-324"/>
<text text-anchor="middle" x="1396.5" y="-302.88" font-family="sans" font-size="10.00">get_sigSNP_array</text>
</g>
<!-- 12&#45;&gt;23 -->
<g id="edge37" class="edge">
<title>12&#45;&gt;23</title>
<path fill="none" stroke="grey" stroke-width="2" d="M1303.94,-503.12C1321.32,-466.3 1361.25,-381.69 1382.54,-336.58"/>
<polygon fill="grey" stroke="grey" stroke-width="2" points="1385.62,-338.25 1386.72,-327.71 1379.29,-335.26 1385.62,-338.25"/>
</g>
<!-- 32 -->
<g id="node33" class="node">
<title>32</title>
<path fill="none" stroke="#59d856" stroke-width="2" d="M1268.5,-180C1268.5,-180 1192.5,-180 1192.5,-180 1186.5,-180 1180.5,-174 1180.5,-168 1180.5,-168 1180.5,-156 1180.5,-156 1180.5,-150 1186.5,-144 1192.5,-144 1192.5,-144 1268.5,-144 1268.5,-144 1274.5,-144 1280.5,-150 1280.5,-156 1280.5,-156 1280.5,-168 1280.5,-168 1280.5,-174 1274.5,-180 1268.5,-180"/>
<text text-anchor="middle" x="1230.5" y="-158.88" font-family="sans" font-size="10.00">plot_GWAS_array</text>
</g>
<!-- 12&#45;&gt;32 -->
<g id="edge46" class="edge">
<title>12&#45;&gt;32</title>
<path fill="none" stroke="grey" stroke-width="2" d="M1292.28,-503.25C1281.88,-445.99 1249.15,-265.72 1236.03,-193.43"/>
<polygon fill="grey" stroke="grey" stroke-width="2" points="1239.51,-193.05 1234.28,-183.84 1232.63,-194.3 1239.51,-193.05"/>
</g>
<!-- 24 -->
<g id="node25" class="node">
<title>24</title>
<path fill="none" stroke="#bed856" stroke-width="2" d="M1180.88,-396C1180.88,-396 1110.12,-396 1110.12,-396 1104.12,-396 1098.12,-390 1098.12,-384 1098.12,-384 1098.12,-372 1098.12,-372 1098.12,-366 1104.12,-360 1110.12,-360 1110.12,-360 1180.88,-360 1180.88,-360 1186.88,-360 1192.88,-366 1192.88,-372 1192.88,-372 1192.88,-384 1192.88,-384 1192.88,-390 1186.88,-396 1180.88,-396"/>
<text text-anchor="middle" x="1145.5" y="-374.88" font-family="sans" font-size="10.00">get_sigSNP_imp</text>
</g>
<!-- 13&#45;&gt;24 -->
<g id="edge38" class="edge">
<title>13&#45;&gt;24</title>
<path fill="none" stroke="grey" stroke-width="2" d="M994.66,-503.01C1014.36,-493.86 1037.48,-481.77 1056.5,-468 1081.26,-450.08 1105.53,-425.18 1122.46,-406.27"/>
<polygon fill="grey" stroke="grey" stroke-width="2" points="1124.87,-408.83 1128.83,-399 1119.61,-404.21 1124.87,-408.83"/>
</g>
<!-- 33 -->
<g id="node34" class="node">
<title>33</title>
<path fill="none" stroke="#56d89a" stroke-width="2" d="M1148,-180C1148,-180 1063,-180 1063,-180 1057,-180 1051,-174 1051,-168 1051,-168 1051,-156 1051,-156 1051,-150 1057,-144 1063,-144 1063,-144 1148,-144 1148,-144 1154,-144 1160,-150 1160,-156 1160,-156 1160,-168 1160,-168 1160,-174 1154,-180 1148,-180"/>
<text text-anchor="middle" x="1105.5" y="-158.88" font-family="sans" font-size="10.00">plot_GWAS_impute</text>
</g>
<!-- 13&#45;&gt;33 -->
<g id="edge47" class="edge">
<title>13&#45;&gt;33</title>
<path fill="none" stroke="grey" stroke-width="2" d="M972.61,-503.16C999.49,-478.33 1042.5,-430.53 1042.5,-379 1042.5,-379 1042.5,-379 1042.5,-305 1042.5,-262.57 1066.29,-218.66 1084.64,-191.12"/>
<polygon fill="grey" stroke="grey" stroke-width="2" points="1087.3,-193.42 1090.11,-183.2 1081.54,-189.43 1087.3,-193.42"/>
</g>
<!-- 34 -->
<g id="node35" class="node">
<title>34</title>
<path fill="none" stroke="#56b1d8" stroke-width="2" d="M803,-396C803,-396 766,-396 766,-396 760,-396 754,-390 754,-384 754,-384 754,-372 754,-372 754,-366 760,-360 766,-360 766,-360 803,-360 803,-360 809,-360 815,-366 815,-372 815,-372 815,-384 815,-384 815,-390 809,-396 803,-396"/>
<text text-anchor="middle" x="784.5" y="-374.88" font-family="sans" font-size="10.00">get_QTLs</text>
</g>
<!-- 13&#45;&gt;34 -->
<g id="edge48" class="edge">
<title>13&#45;&gt;34</title>
<path fill="none" stroke="grey" stroke-width="2" d="M930.35,-503.02C901.24,-478.26 848.63,-433.53 815.19,-405.1"/>
<polygon fill="grey" stroke="grey" stroke-width="2" points="817.67,-402.61 807.79,-398.8 813.14,-407.94 817.67,-402.61"/>
</g>
<!-- 37 -->
<g id="node38" class="node">
<title>37</title>
<path fill="none" stroke="#56a9d8" stroke-width="2" d="M974.88,-468C974.88,-468 928.12,-468 928.12,-468 922.12,-468 916.12,-462 916.12,-456 916.12,-456 916.12,-444 916.12,-444 916.12,-438 922.12,-432 928.12,-432 928.12,-432 974.88,-432 974.88,-432 980.88,-432 986.88,-438 986.88,-444 986.88,-444 986.88,-456 986.88,-456 986.88,-462 980.88,-468 974.88,-468"/>
<text text-anchor="middle" x="951.5" y="-446.88" font-family="sans" font-size="10.00">metaGWAS</text>
</g>
<!-- 13&#45;&gt;37 -->
<g id="edge55" class="edge">
<title>13&#45;&gt;37</title>
<path fill="none" stroke="grey" stroke-width="2" d="M951.5,-503.34C951.5,-496.75 951.5,-489.08 951.5,-481.67"/>
<polygon fill="grey" stroke="grey" stroke-width="2" points="955,-481.93 951.5,-471.93 948,-481.93 955,-481.93"/>
</g>
<!-- 40 -->
<g id="node41" class="node">
<title>40</title>
<path fill="none" stroke="#d89556" stroke-width="2" d="M711,-324C711,-324 602,-324 602,-324 596,-324 590,-318 590,-312 590,-312 590,-300 590,-300 590,-294 596,-288 602,-288 602,-288 711,-288 711,-288 717,-288 723,-294 723,-300 723,-300 723,-312 723,-312 723,-318 717,-324 711,-324"/>
<text text-anchor="middle" x="656.5" y="-302.88" font-family="sans" font-size="10.00">plot_BFMAP_pheno_gen</text>
</g>
<!-- 13&#45;&gt;40 -->
<g id="edge80" class="edge">
<title>13&#45;&gt;40</title>
<path fill="none" stroke="grey" stroke-width="2" d="M911.29,-503C890.86,-493.38 865.9,-480.89 844.5,-468 797.58,-439.75 786.12,-431.6 744.5,-396 721.93,-376.7 698.37,-352.63 681.32,-334.4"/>
<polygon fill="grey" stroke="grey" stroke-width="2" points="683.98,-332.12 674.62,-327.15 678.84,-336.87 683.98,-332.12"/>
</g>
<!-- 14&#45;&gt;13 -->
<g id="edge19" class="edge">
<title>14&#45;&gt;13</title>
<path fill="none" stroke="grey" stroke-width="2" d="M837.5,-575.15C856.67,-566.38 880.01,-555.71 900.57,-546.3"/>
<polygon fill="grey" stroke="grey" stroke-width="2" points="901.91,-549.54 909.55,-542.19 899,-543.17 901.91,-549.54"/>
</g>
<!-- 14&#45;&gt;16 -->
<g id="edge26" class="edge">
<title>14&#45;&gt;16</title>
<path fill="none" stroke="grey" stroke-width="2" d="M798.5,-575.34C798.5,-568.75 798.5,-561.08 798.5,-553.67"/>
<polygon fill="grey" stroke="grey" stroke-width="2" points="802,-553.93 798.5,-543.93 795,-553.93 802,-553.93"/>
</g>
<!-- 15 -->
<g id="node16" class="node">
<title>15</title>
<path fill="none" stroke="#d8c356" stroke-width="2" d="M150.62,-180C150.62,-180 48.38,-180 48.38,-180 42.38,-180 36.38,-174 36.38,-168 36.38,-168 36.38,-156 36.38,-156 36.38,-150 42.38,-144 48.38,-144 48.38,-144 150.62,-144 150.62,-144 156.62,-144 162.62,-150 162.62,-156 162.62,-156 162.62,-168 162.62,-168 162.62,-174 156.62,-180 150.62,-180"/>
<text text-anchor="middle" x="99.5" y="-158.88" font-family="sans" font-size="10.00">plot_GWAScov_impute</text>
</g>
<!-- 36 -->
<g id="node37" class="node">
<title>36</title>
<path fill="none" stroke="#569ad8" stroke-width="2" d="M1163.5,-108C1163.5,-108 1129.5,-108 1129.5,-108 1123.5,-108 1117.5,-102 1117.5,-96 1117.5,-96 1117.5,-84 1117.5,-84 1117.5,-78 1123.5,-72 1129.5,-72 1129.5,-72 1163.5,-72 1163.5,-72 1169.5,-72 1175.5,-78 1175.5,-84 1175.5,-84 1175.5,-96 1175.5,-96 1175.5,-102 1169.5,-108 1163.5,-108"/>
<text text-anchor="middle" x="1146.5" y="-86.88" font-family="sans" font-size="10.00">plot_fig4</text>
</g>
<!-- 15&#45;&gt;36 -->
<g id="edge52" class="edge">
<title>15&#45;&gt;36</title>
<path fill="none" stroke="grey" stroke-width="2" d="M163.6,-158.89C350.77,-152.5 894.38,-132.33 1070.5,-108 1081.57,-106.47 1093.41,-104.16 1104.38,-101.72"/>
<polygon fill="grey" stroke="grey" stroke-width="2" points="1104.85,-105.21 1113.8,-99.54 1103.27,-98.39 1104.85,-105.21"/>
</g>
<!-- 15&#45;&gt;38 -->
<g id="edge60" class="edge">
<title>15&#45;&gt;38</title>
<path fill="none" stroke="grey" stroke-width="2" d="M104.02,-143.07C110.35,-122.07 124.04,-88.11 149.5,-72 210.38,-33.46 718.83,-22.12 867.7,-19.61"/>
<polygon fill="grey" stroke="grey" stroke-width="2" points="867.6,-23.11 877.54,-19.44 867.49,-16.11 867.6,-23.11"/>
</g>
<!-- 16&#45;&gt;15 -->
<g id="edge23" class="edge">
<title>16&#45;&gt;15</title>
<path fill="none" stroke="grey" stroke-width="2" d="M724.32,-521.04C547.82,-519.13 117.5,-501.89 117.5,-379 117.5,-379 117.5,-379 117.5,-305 117.5,-266.35 110.85,-222.24 105.64,-193.58"/>
<polygon fill="grey" stroke="grey" stroke-width="2" points="109.09,-192.99 103.79,-183.82 102.21,-194.29 109.09,-192.99"/>
</g>
<!-- 17 -->
<g id="node18" class="node">
<title>17</title>
<path fill="none" stroke="#56d0d8" stroke-width="2" d="M1049.5,-108C1049.5,-108 1015.5,-108 1015.5,-108 1009.5,-108 1003.5,-102 1003.5,-96 1003.5,-96 1003.5,-84 1003.5,-84 1003.5,-78 1009.5,-72 1015.5,-72 1015.5,-72 1049.5,-72 1049.5,-72 1055.5,-72 1061.5,-78 1061.5,-84 1061.5,-84 1061.5,-96 1061.5,-96 1061.5,-102 1055.5,-108 1049.5,-108"/>
<text text-anchor="middle" x="1032.5" y="-86.88" font-family="sans" font-size="10.00">plot_fig5</text>
</g>
<!-- 17&#45;&gt;38 -->
<g id="edge70" class="edge">
<title>17&#45;&gt;38</title>
<path fill="none" stroke="grey" stroke-width="2" d="M1002.8,-72.23C986.22,-62.88 965.38,-51.11 947.5,-41.02"/>
<polygon fill="grey" stroke="grey" stroke-width="2" points="949.32,-38.03 938.9,-36.16 945.88,-44.12 949.32,-38.03"/>
</g>
<!-- 18 -->
<g id="node19" class="node">
<title>18</title>
<path fill="none" stroke="#d6d856" stroke-width="2" d="M1010.88,-180C1010.88,-180 940.12,-180 940.12,-180 934.12,-180 928.12,-174 928.12,-168 928.12,-168 928.12,-156 928.12,-156 928.12,-150 934.12,-144 940.12,-144 940.12,-144 1010.88,-144 1010.88,-144 1016.88,-144 1022.88,-150 1022.88,-156 1022.88,-156 1022.88,-168 1022.88,-168 1022.88,-174 1016.88,-180 1010.88,-180"/>
<text text-anchor="middle" x="975.5" y="-158.88" font-family="sans" font-size="10.00">plot_metaGWAS</text>
</g>
<!-- 18&#45;&gt;17 -->
<g id="edge29" class="edge">
<title>18&#45;&gt;17</title>
<path fill="none" stroke="grey" stroke-width="2" d="M989.88,-143.34C995.91,-135.93 1003.07,-127.14 1009.78,-118.9"/>
<polygon fill="grey" stroke="grey" stroke-width="2" points="1012.41,-121.21 1016.01,-111.25 1006.98,-116.79 1012.41,-121.21"/>
</g>
<!-- 18&#45;&gt;38 -->
<g id="edge61" class="edge">
<title>18&#45;&gt;38</title>
<path fill="none" stroke="grey" stroke-width="2" d="M974.41,-143.03C972.67,-124.37 968.16,-94.78 956.5,-72 951.73,-62.68 944.89,-53.74 937.86,-45.95"/>
<polygon fill="grey" stroke="grey" stroke-width="2" points="940.56,-43.71 931.1,-38.93 935.52,-48.56 940.56,-43.71"/>
</g>
<!-- 19 -->
<g id="node20" class="node">
<title>19</title>
<path fill="none" stroke="#d87556" stroke-width="2" d="M1513.12,-396C1513.12,-396 1419.88,-396 1419.88,-396 1413.88,-396 1407.88,-390 1407.88,-384 1407.88,-384 1407.88,-372 1407.88,-372 1407.88,-366 1413.88,-360 1419.88,-360 1419.88,-360 1513.12,-360 1513.12,-360 1519.12,-360 1525.12,-366 1525.12,-372 1525.12,-372 1525.12,-384 1525.12,-384 1525.12,-390 1519.12,-396 1513.12,-396"/>
<text text-anchor="middle" x="1466.5" y="-374.88" font-family="sans" font-size="10.00">plot_GWAScov_array</text>
</g>
<!-- 19&#45;&gt;38 -->
<g id="edge57" class="edge">
<title>19&#45;&gt;38</title>
<path fill="none" stroke="grey" stroke-width="2" d="M1468.36,-359.09C1471,-332.18 1475.5,-279.71 1475.5,-235 1475.5,-235 1475.5,-235 1475.5,-161 1475.5,-107.52 1442.17,-96.25 1394.5,-72 1316.85,-32.51 1051.22,-22.27 949.02,-19.77"/>
<polygon fill="grey" stroke="grey" stroke-width="2" points="949.38,-16.27 939.3,-19.54 949.22,-23.27 949.38,-16.27"/>
</g>
<!-- 20&#45;&gt;19 -->
<g id="edge31" class="edge">
<title>20&#45;&gt;19</title>
<path fill="none" stroke="grey" stroke-width="2" d="M1435.93,-503.02C1441.74,-479.44 1452.02,-437.73 1459.04,-409.25"/>
<polygon fill="grey" stroke="grey" stroke-width="2" points="1462.38,-410.32 1461.38,-399.78 1455.59,-408.65 1462.38,-410.32"/>
</g>
<!-- 21 -->
<g id="node22" class="node">
<title>21</title>
<path fill="none" stroke="#d86e56" stroke-width="2" d="M537.38,-108C537.38,-108 433.62,-108 433.62,-108 427.62,-108 421.62,-102 421.62,-96 421.62,-96 421.62,-84 421.62,-84 421.62,-78 427.62,-72 433.62,-72 433.62,-72 537.38,-72 537.38,-72 543.38,-72 549.38,-78 549.38,-84 549.38,-84 549.38,-96 549.38,-96 549.38,-102 543.38,-108 537.38,-108"/>
<text text-anchor="middle" x="485.5" y="-86.88" font-family="sans" font-size="10.00">plot_manplot_combine</text>
</g>
<!-- 21&#45;&gt;38 -->
<g id="edge56" class="edge">
<title>21&#45;&gt;38</title>
<path fill="none" stroke="grey" stroke-width="2" d="M550.32,-73.63C553.08,-73.06 555.82,-72.51 558.5,-72 669.79,-50.65 802.33,-32.56 867.78,-24.11"/>
<polygon fill="grey" stroke="grey" stroke-width="2" points="868.22,-27.58 877.69,-22.84 867.33,-20.64 868.22,-27.58"/>
</g>
<!-- 22 -->
<g id="node23" class="node">
<title>22</title>
<path fill="none" stroke="#56d85b" stroke-width="2" d="M705.62,-108C705.62,-108 579.38,-108 579.38,-108 573.38,-108 567.38,-102 567.38,-96 567.38,-96 567.38,-84 567.38,-84 567.38,-78 573.38,-72 579.38,-72 579.38,-72 705.62,-72 705.62,-72 711.62,-72 717.62,-78 717.62,-84 717.62,-84 717.62,-96 717.62,-96 717.62,-102 711.62,-108 705.62,-108"/>
<text text-anchor="middle" x="642.5" y="-86.88" font-family="sans" font-size="10.00">plot_manplot_combine_cov</text>
</g>
<!-- 22&#45;&gt;38 -->
<g id="edge65" class="edge">
<title>22&#45;&gt;38</title>
<path fill="none" stroke="grey" stroke-width="2" d="M710.66,-71.06C760.49,-57.95 826.4,-40.6 868.14,-29.62"/>
<polygon fill="grey" stroke="grey" stroke-width="2" points="868.82,-33.06 877.6,-27.13 867.04,-26.29 868.82,-33.06"/>
</g>
<!-- 23&#45;&gt;38 -->
<g id="edge63" class="edge">
<title>23&#45;&gt;38</title>
<path fill="none" stroke="grey" stroke-width="2" d="M1400.96,-287.01C1410.61,-243.26 1428.12,-130.57 1369.5,-72 1339.99,-42.51 1056.41,-26.04 949.24,-20.83"/>
<polygon fill="grey" stroke="grey" stroke-width="2" points="949.67,-17.35 939.52,-20.37 949.34,-24.34 949.67,-17.35"/>
</g>
<!-- 24&#45;&gt;38 -->
<g id="edge62" class="edge">
<title>24&#45;&gt;38</title>
<path fill="none" stroke="grey" stroke-width="2" d="M1165.15,-359.2C1219.81,-307.68 1364.13,-156.71 1277.5,-72 1231.6,-27.12 1035.24,-19.97 949.18,-19.03"/>
<polygon fill="grey" stroke="grey" stroke-width="2" points="949.41,-15.53 939.38,-18.95 949.35,-22.53 949.41,-15.53"/>
</g>
<!-- 39 -->
<g id="node40" class="node">
<title>39</title>
<path fill="none" stroke="#5663d8" stroke-width="2" d="M758.25,-180C758.25,-180 662.75,-180 662.75,-180 656.75,-180 650.75,-174 650.75,-168 650.75,-168 650.75,-156 650.75,-156 650.75,-150 656.75,-144 662.75,-144 662.75,-144 758.25,-144 758.25,-144 764.25,-144 770.25,-150 770.25,-156 770.25,-156 770.25,-168 770.25,-168 770.25,-174 764.25,-180 758.25,-180"/>
<text text-anchor="middle" x="710.5" y="-158.88" font-family="sans" font-size="10.00">plot_BFMAP_gemrich</text>
</g>
<!-- 25&#45;&gt;39 -->
<g id="edge78" class="edge">
<title>25&#45;&gt;39</title>
<path fill="none" stroke="grey" stroke-width="2" d="M398.62,-225.38C455.7,-213.96 564.42,-192.22 637.21,-177.66"/>
<polygon fill="grey" stroke="grey" stroke-width="2" points="637.82,-181.11 646.94,-175.71 636.45,-174.24 637.82,-181.11"/>
</g>
<!-- 26 -->
<g id="node27" class="node">
<title>26</title>
<path fill="none" stroke="#56d8c9" stroke-width="2" d="M608.62,-252C608.62,-252 554.38,-252 554.38,-252 548.38,-252 542.38,-246 542.38,-240 542.38,-240 542.38,-228 542.38,-228 542.38,-222 548.38,-216 554.38,-216 554.38,-216 608.62,-216 608.62,-216 614.62,-216 620.62,-222 620.62,-228 620.62,-228 620.62,-240 620.62,-240 620.62,-246 614.62,-252 608.62,-252"/>
<text text-anchor="middle" x="581.5" y="-230.88" font-family="sans" font-size="10.00">wr_supdata2</text>
</g>
<!-- 26&#45;&gt;38 -->
<g id="edge68" class="edge">
<title>26&#45;&gt;38</title>
<path fill="none" stroke="grey" stroke-width="2" d="M541.47,-225.16C455.68,-207.47 258.78,-161.76 220.5,-108 211.22,-94.97 209.63,-83.74 220.5,-72 264.56,-24.41 726.33,-19.41 867.64,-19"/>
<polygon fill="grey" stroke="grey" stroke-width="2" points="867.64,-22.5 877.64,-18.98 867.63,-15.5 867.64,-22.5"/>
</g>
<!-- 27 -->
<g id="node28" class="node">
<title>27</title>
<path fill="none" stroke="#568ad8" stroke-width="2" d="M839.62,-108C839.62,-108 785.38,-108 785.38,-108 779.38,-108 773.38,-102 773.38,-96 773.38,-96 773.38,-84 773.38,-84 773.38,-78 779.38,-72 785.38,-72 785.38,-72 839.62,-72 839.62,-72 845.62,-72 851.62,-78 851.62,-84 851.62,-84 851.62,-96 851.62,-96 851.62,-102 845.62,-108 839.62,-108"/>
<text text-anchor="middle" x="812.5" y="-86.88" font-family="sans" font-size="10.00">wr_supdata3</text>
</g>
<!-- 27&#45;&gt;38 -->
<g id="edge73" class="edge">
<title>27&#45;&gt;38</title>
<path fill="none" stroke="grey" stroke-width="2" d="M836.97,-71.15C848.14,-63.01 861.57,-53.22 873.77,-44.33"/>
<polygon fill="grey" stroke="grey" stroke-width="2" points="875.61,-47.32 881.63,-38.6 871.48,-41.66 875.61,-47.32"/>
</g>
<!-- 28 -->
<g id="node29" class="node">
<title>28</title>
<path fill="none" stroke="#56d8d8" stroke-width="2" d="M935.62,-108C935.62,-108 881.38,-108 881.38,-108 875.38,-108 869.38,-102 869.38,-96 869.38,-96 869.38,-84 869.38,-84 869.38,-78 875.38,-72 881.38,-72 881.38,-72 935.62,-72 935.62,-72 941.62,-72 947.62,-78 947.62,-84 947.62,-84 947.62,-96 947.62,-96 947.62,-102 941.62,-108 935.62,-108"/>
<text text-anchor="middle" x="908.5" y="-86.88" font-family="sans" font-size="10.00">wr_supdata4</text>
</g>
<!-- 28&#45;&gt;38 -->
<g id="edge69" class="edge">
<title>28&#45;&gt;38</title>
<path fill="none" stroke="grey" stroke-width="2" d="M908.5,-71.34C908.5,-64.75 908.5,-57.08 908.5,-49.67"/>
<polygon fill="grey" stroke="grey" stroke-width="2" points="912,-49.93 908.5,-39.93 905,-49.93 912,-49.93"/>
</g>
<!-- 29 -->
<g id="node30" class="node">
<title>29</title>
<path fill="none" stroke="#56d873" stroke-width="2" d="M295.62,-108C295.62,-108 241.38,-108 241.38,-108 235.38,-108 229.38,-102 229.38,-96 229.38,-96 229.38,-84 229.38,-84 229.38,-78 235.38,-72 241.38,-72 241.38,-72 295.62,-72 295.62,-72 301.62,-72 307.62,-78 307.62,-84 307.62,-84 307.62,-96 307.62,-96 307.62,-102 301.62,-108 295.62,-108"/>
<text text-anchor="middle" x="268.5" y="-86.88" font-family="sans" font-size="10.00">wr_supdata5</text>
</g>
<!-- 29&#45;&gt;38 -->
<g id="edge66" class="edge">
<title>29&#45;&gt;38</title>
<path fill="none" stroke="grey" stroke-width="2" d="M308.62,-73.97C311.27,-73.23 313.91,-72.57 316.5,-72 520.18,-27.56 771.08,-20.25 867.82,-19.15"/>
<polygon fill="grey" stroke="grey" stroke-width="2" points="867.69,-22.65 877.66,-19.06 867.63,-15.65 867.69,-22.65"/>
</g>
<!-- 30 -->
<g id="node31" class="node">
<title>30</title>
<path fill="none" stroke="#56b9d8" stroke-width="2" d="M391.62,-108C391.62,-108 337.38,-108 337.38,-108 331.38,-108 325.38,-102 325.38,-96 325.38,-96 325.38,-84 325.38,-84 325.38,-78 331.38,-72 337.38,-72 337.38,-72 391.62,-72 391.62,-72 397.62,-72 403.62,-78 403.62,-84 403.62,-84 403.62,-96 403.62,-96 403.62,-102 397.62,-108 391.62,-108"/>
<text text-anchor="middle" x="364.5" y="-86.88" font-family="sans" font-size="10.00">wr_supdata6</text>
</g>
<!-- 30&#45;&gt;38 -->
<g id="edge71" class="edge">
<title>30&#45;&gt;38</title>
<path fill="none" stroke="grey" stroke-width="2" d="M404.37,-74.09C407.1,-73.32 409.83,-72.61 412.5,-72 578.66,-34.25 782.41,-23.22 867.81,-20.14"/>
<polygon fill="grey" stroke="grey" stroke-width="2" points="867.8,-23.64 877.68,-19.8 867.57,-16.64 867.8,-23.64"/>
</g>
<!-- 31 -->
<g id="node32" class="node">
<title>31</title>
<path fill="none" stroke="#5692d8" stroke-width="2" d="M1207.88,-540C1207.88,-540 1161.12,-540 1161.12,-540 1155.12,-540 1149.12,-534 1149.12,-528 1149.12,-528 1149.12,-516 1149.12,-516 1149.12,-510 1155.12,-504 1161.12,-504 1161.12,-504 1207.88,-504 1207.88,-504 1213.88,-504 1219.88,-510 1219.88,-516 1219.88,-516 1219.88,-528 1219.88,-528 1219.88,-534 1213.88,-540 1207.88,-540"/>
<text text-anchor="middle" x="1184.5" y="-518.88" font-family="sans" font-size="10.00">mark_done</text>
</g>
<!-- 31&#45;&gt;1 -->
<g id="edge2" class="edge">
<title>31&#45;&gt;1</title>
<path fill="none" stroke="grey" stroke-width="2" d="M1184.5,-503.34C1184.5,-496.75 1184.5,-489.08 1184.5,-481.67"/>
<polygon fill="grey" stroke="grey" stroke-width="2" points="1188,-481.93 1184.5,-471.93 1181,-481.93 1188,-481.93"/>
</g>
<!-- 35 -->
<g id="node36" class="node">
<title>35</title>
<path fill="none" stroke="#d8a456" stroke-width="2" d="M1239.5,-108C1239.5,-108 1205.5,-108 1205.5,-108 1199.5,-108 1193.5,-102 1193.5,-96 1193.5,-96 1193.5,-84 1193.5,-84 1193.5,-78 1199.5,-72 1205.5,-72 1205.5,-72 1239.5,-72 1239.5,-72 1245.5,-72 1251.5,-78 1251.5,-84 1251.5,-84 1251.5,-96 1251.5,-96 1251.5,-102 1245.5,-108 1239.5,-108"/>
<text text-anchor="middle" x="1222.5" y="-86.88" font-family="sans" font-size="10.00">plot_fig3</text>
</g>
<!-- 32&#45;&gt;35 -->
<g id="edge50" class="edge">
<title>32&#45;&gt;35</title>
<path fill="none" stroke="grey" stroke-width="2" d="M1228.48,-143.34C1227.73,-136.75 1226.85,-129.08 1226,-121.67"/>
<polygon fill="grey" stroke="grey" stroke-width="2" points="1229.5,-121.45 1224.89,-111.91 1222.55,-122.24 1229.5,-121.45"/>
</g>
<!-- 32&#45;&gt;36 -->
<g id="edge53" class="edge">
<title>32&#45;&gt;36</title>
<path fill="none" stroke="grey" stroke-width="2" d="M1209.3,-143.34C1199.73,-135.36 1188.22,-125.77 1177.69,-116.99"/>
<polygon fill="grey" stroke="grey" stroke-width="2" points="1180.23,-114.55 1170.31,-110.84 1175.75,-119.93 1180.23,-114.55"/>
</g>
<!-- 32&#45;&gt;38 -->
<g id="edge64" class="edge">
<title>32&#45;&gt;38</title>
<path fill="none" stroke="grey" stroke-width="2" d="M1245.56,-143.34C1260.3,-123.85 1278.16,-92.51 1260.5,-72 1220.74,-25.8 1033.24,-19.33 949.3,-18.79"/>
<polygon fill="grey" stroke="grey" stroke-width="2" points="949.33,-15.29 939.32,-18.76 949.31,-22.29 949.33,-15.29"/>
</g>
<!-- 33&#45;&gt;35 -->
<g id="edge51" class="edge">
<title>33&#45;&gt;35</title>
<path fill="none" stroke="grey" stroke-width="2" d="M1135.33,-143.15C1149.49,-134.68 1166.64,-124.42 1181.96,-115.25"/>
<polygon fill="grey" stroke="grey" stroke-width="2" points="1183.35,-118.5 1190.13,-110.37 1179.75,-112.5 1183.35,-118.5"/>
</g>
<!-- 33&#45;&gt;36 -->
<g id="edge54" class="edge">
<title>33&#45;&gt;36</title>
<path fill="none" stroke="grey" stroke-width="2" d="M1115.85,-143.34C1119.99,-136.26 1124.87,-127.92 1129.51,-120"/>
<polygon fill="grey" stroke="grey" stroke-width="2" points="1132.45,-121.91 1134.48,-111.51 1126.41,-118.37 1132.45,-121.91"/>
</g>
<!-- 33&#45;&gt;38 -->
<g id="edge67" class="edge">
<title>33&#45;&gt;38</title>
<path fill="none" stroke="grey" stroke-width="2" d="M1103.06,-143.11C1099.42,-123.1 1090.67,-91.02 1070.5,-72 1037.23,-40.63 985.1,-27.82 949,-22.59"/>
<polygon fill="grey" stroke="grey" stroke-width="2" points="949.86,-19.17 939.5,-21.37 948.97,-26.12 949.86,-19.17"/>
</g>
<!-- 34&#45;&gt;39 -->
<g id="edge79" class="edge">
<title>34&#45;&gt;39</title>
<path fill="none" stroke="grey" stroke-width="2" d="M778.32,-359.12C765.64,-322.46 736.58,-238.41 720.93,-193.16"/>
<polygon fill="grey" stroke="grey" stroke-width="2" points="724.28,-192.14 717.71,-183.84 717.67,-194.43 724.28,-192.14"/>
</g>
<!-- 34&#45;&gt;40 -->
<g id="edge81" class="edge">
<title>34&#45;&gt;40</title>
<path fill="none" stroke="grey" stroke-width="2" d="M753.19,-359.88C737.28,-351.18 717.69,-340.46 700.31,-330.96"/>
<polygon fill="grey" stroke="grey" stroke-width="2" points="702.38,-328.1 691.93,-326.38 699.03,-334.25 702.38,-328.1"/>
</g>
<!-- 35&#45;&gt;38 -->
<g id="edge59" class="edge">
<title>35&#45;&gt;38</title>
<path fill="none" stroke="grey" stroke-width="2" d="M1192.88,-74.97C1190.08,-73.88 1187.26,-72.87 1184.5,-72 1102.99,-46.32 1003.81,-30.97 949.3,-23.84"/>
<polygon fill="grey" stroke="grey" stroke-width="2" points="949.81,-20.37 939.45,-22.58 948.92,-27.32 949.81,-20.37"/>
</g>
<!-- 36&#45;&gt;38 -->
<g id="edge72" class="edge">
<title>36&#45;&gt;38</title>
<path fill="none" stroke="grey" stroke-width="2" d="M1116.58,-76.68C1112.22,-75.03 1107.77,-73.42 1103.5,-72 1050.71,-54.45 988.5,-38.31 948.79,-28.56"/>
<polygon fill="grey" stroke="grey" stroke-width="2" points="949.72,-25.18 939.18,-26.22 948.07,-31.99 949.72,-25.18"/>
</g>
<!-- 37&#45;&gt;18 -->
<g id="edge30" class="edge">
<title>37&#45;&gt;18</title>
<path fill="none" stroke="grey" stroke-width="2" d="M953,-431.11C956.99,-383.56 967.9,-253.6 972.91,-193.83"/>
<polygon fill="grey" stroke="grey" stroke-width="2" points="976.4,-194.16 973.75,-183.9 969.42,-193.57 976.4,-194.16"/>
</g>
<!-- 37&#45;&gt;34 -->
<g id="edge49" class="edge">
<title>37&#45;&gt;34</title>
<path fill="none" stroke="grey" stroke-width="2" d="M915.26,-433.81C889.56,-423.04 854.94,-408.53 827.78,-397.14"/>
<polygon fill="grey" stroke="grey" stroke-width="2" points="829.26,-393.96 818.68,-393.33 826.55,-400.42 829.26,-393.96"/>
</g>
<!-- 39&#45;&gt;27 -->
<g id="edge42" class="edge">
<title>39&#45;&gt;27</title>
<path fill="none" stroke="grey" stroke-width="2" d="M736.5,-143.15C748.49,-134.93 762.93,-125.02 775.99,-116.06"/>
<polygon fill="grey" stroke="grey" stroke-width="2" points="777.78,-119.07 784.05,-110.53 773.82,-113.3 777.78,-119.07"/>
</g>
<!-- 39&#45;&gt;28 -->
<g id="edge43" class="edge">
<title>39&#45;&gt;28</title>
<path fill="none" stroke="grey" stroke-width="2" d="M761.19,-143.1C787.42,-133.84 820.25,-122.24 856.53,-109.4"/>
<polygon fill="grey" stroke="grey" stroke-width="2" points="857.31,-112.84 865.57,-106.2 854.98,-106.24 857.31,-112.84"/>
</g>
<!-- 39&#45;&gt;29 -->
<g id="edge44" class="edge">
<title>39&#45;&gt;29</title>
<path fill="none" stroke="grey" stroke-width="2" d="M650.05,-156.77C574.68,-150.64 441.92,-137.02 320.82,-108.78"/>
<polygon fill="grey" stroke="grey" stroke-width="2" points="321.87,-105.44 311.33,-106.52 320.25,-112.24 321.87,-105.44"/>
</g>
<!-- 39&#45;&gt;30 -->
<g id="edge45" class="edge">
<title>39&#45;&gt;30</title>
<path fill="none" stroke="grey" stroke-width="2" d="M649.94,-153.21C592.12,-145.11 502.43,-130.82 416.99,-108.97"/>
<polygon fill="grey" stroke="grey" stroke-width="2" points="417.91,-105.59 407.35,-106.45 416.14,-112.37 417.91,-105.59"/>
</g>
<!-- 39&#45;&gt;38 -->
<g id="edge76" class="edge">
<title>39&#45;&gt;38</title>
<path fill="none" stroke="grey" stroke-width="2" d="M717.1,-143.17C725.32,-123.22 741.2,-91.19 764.5,-72 794.46,-47.32 836.95,-33.57 868.02,-26.3"/>
<polygon fill="grey" stroke="grey" stroke-width="2" points="868.57,-29.76 877.6,-24.21 867.08,-22.92 868.57,-29.76"/>
</g>
<!-- 40&#45;&gt;25 -->
<g id="edge39" class="edge">
<title>40&#45;&gt;25</title>
<path fill="none" stroke="grey" stroke-width="2" d="M589.21,-292.49C539.72,-282.8 471,-268.3 411.5,-252 411.24,-251.93 410.97,-251.85 410.7,-251.78"/>
<polygon fill="grey" stroke="grey" stroke-width="2" points="412,-248.51 401.42,-249.03 410.01,-255.23 412,-248.51"/>
</g>
<!-- 40&#45;&gt;26 -->
<g id="edge41" class="edge">
<title>40&#45;&gt;26</title>
<path fill="none" stroke="grey" stroke-width="2" d="M637.57,-287.34C629.2,-279.52 619.17,-270.16 609.93,-261.53"/>
<polygon fill="grey" stroke="grey" stroke-width="2" points="612.59,-259.23 602.89,-254.97 607.82,-264.35 612.59,-259.23"/>
</g>
<!-- 40&#45;&gt;38 -->
<g id="edge58" class="edge">
<title>40&#45;&gt;38</title>
<path fill="none" stroke="grey" stroke-width="2" d="M609.92,-287.02C560.01,-268.09 478.29,-238.03 406.5,-216 345.49,-197.28 321.12,-214.6 267.5,-180 221.72,-150.46 172.46,-111.96 209.5,-72 254.39,-23.58 725.42,-19.17 867.9,-18.94"/>
<polygon fill="grey" stroke="grey" stroke-width="2" points="867.61,-22.44 877.61,-18.94 867.61,-15.44 867.61,-22.44"/>
</g>
<!-- 40&#45;&gt;39 -->
<g id="edge77" class="edge">
<title>40&#45;&gt;39</title>
<path fill="none" stroke="grey" stroke-width="2" d="M663.34,-287.02C672.35,-263.33 688.31,-221.35 699.14,-192.86"/>
<polygon fill="grey" stroke="grey" stroke-width="2" points="702.36,-194.26 702.64,-183.67 695.81,-191.77 702.36,-194.26"/>
</g>
</g>
</svg>
