<?xml version="1.0" encoding="UTF-8" standalone="no"?>
<!DOCTYPE svg PUBLIC "-//W3C//DTD SVG 1.1//EN"
 "http://www.w3.org/Graphics/SVG/1.1/DTD/svg11.dtd">
<!-- Generated by graphviz version 9.0.0 (20231125.0833)
 -->
<!-- Title: snakemake_dag Pages: 1 -->
<svg width="1724pt" height="836pt"
 viewBox="0.00 0.00 1723.62 836.00" xmlns="http://www.w3.org/2000/svg" xmlns:xlink="http://www.w3.org/1999/xlink">
<g id="graph0" class="graph" transform="scale(1 1) rotate(0) translate(4 832)">
<title>snakemake_dag</title>
<polygon fill="white" stroke="none" points="-4,4 -4,-832 1719.62,-832 1719.62,4 -4,4"/>
<!-- 0 -->
<g id="node1" class="node">
<title>0</title>
<path fill="none" stroke="#d85656" stroke-width="2" d="M85,-108C85,-108 12,-108 12,-108 6,-108 0,-102 0,-96 0,-96 0,-84 0,-84 0,-78 6,-72 12,-72 12,-72 85,-72 85,-72 91,-72 97,-78 97,-84 97,-84 97,-96 97,-96 97,-102 91,-108 85,-108"/>
<text text-anchor="middle" x="48.5" y="-86.88" font-family="sans" font-size="10.00">wrplot_overview</text>
</g>
<!-- 48 -->
<g id="node49" class="node">
<title>48</title>
<path fill="none" stroke="#68d856" stroke-width="2" d="M774.5,-36C774.5,-36 744.5,-36 744.5,-36 738.5,-36 732.5,-30 732.5,-24 732.5,-24 732.5,-12 732.5,-12 732.5,-6 738.5,0 744.5,0 744.5,0 774.5,0 774.5,0 780.5,0 786.5,-6 786.5,-12 786.5,-12 786.5,-24 786.5,-24 786.5,-30 780.5,-36 774.5,-36"/>
<text text-anchor="middle" x="759.5" y="-14.88" font-family="sans" font-size="10.00">all</text>
</g>
<!-- 0&#45;&gt;48 -->
<g id="edge92" class="edge">
<title>0&#45;&gt;48</title>
<path fill="none" stroke="grey" stroke-width="2" d="M97.7,-73.84C100.66,-73.16 103.61,-72.53 106.5,-72 335.29,-29.65 615.4,-21.14 718.72,-19.43"/>
<polygon fill="grey" stroke="grey" stroke-width="2" points="718.57,-22.93 728.52,-19.28 718.47,-15.93 718.57,-22.93"/>
</g>
<!-- 1 -->
<g id="node2" class="node">
<title>1</title>
<path fill="none" stroke="#56d873" stroke-width="2" d="M189.75,-108C189.75,-108 127.25,-108 127.25,-108 121.25,-108 115.25,-102 115.25,-96 115.25,-96 115.25,-84 115.25,-84 115.25,-78 121.25,-72 127.25,-72 127.25,-72 189.75,-72 189.75,-72 195.75,-72 201.75,-78 201.75,-84 201.75,-84 201.75,-96 201.75,-96 201.75,-102 195.75,-108 189.75,-108"/>
<text text-anchor="middle" x="158.5" y="-86.88" font-family="sans" font-size="10.00">plot_PhenoCor</text>
</g>
<!-- 1&#45;&gt;48 -->
<g id="edge112" class="edge">
<title>1&#45;&gt;48</title>
<path fill="none" stroke="grey" stroke-width="2" d="M202.48,-74.97C206.85,-73.85 211.24,-72.83 215.5,-72 401.28,-35.6 627.89,-23.74 718.86,-20.29"/>
<polygon fill="grey" stroke="grey" stroke-width="2" points="718.88,-23.79 728.75,-19.93 718.63,-16.79 718.88,-23.79"/>
</g>
<!-- 2 -->
<g id="node3" class="node">
<title>2</title>
<path fill="none" stroke="#56d0d8" stroke-width="2" d="M476.25,-612C476.25,-612 398.75,-612 398.75,-612 392.75,-612 386.75,-606 386.75,-600 386.75,-600 386.75,-588 386.75,-588 386.75,-582 392.75,-576 398.75,-576 398.75,-576 476.25,-576 476.25,-576 482.25,-576 488.25,-582 488.25,-588 488.25,-588 488.25,-600 488.25,-600 488.25,-606 482.25,-612 476.25,-612"/>
<text text-anchor="middle" x="437.5" y="-590.88" font-family="sans" font-size="10.00">gcta_mlma_array</text>
</g>
<!-- 21 -->
<g id="node22" class="node">
<title>21</title>
<path fill="none" stroke="#bed856" stroke-width="2" d="M349.25,-252C349.25,-252 271.75,-252 271.75,-252 265.75,-252 259.75,-246 259.75,-240 259.75,-240 259.75,-228 259.75,-228 259.75,-222 265.75,-216 271.75,-216 271.75,-216 349.25,-216 349.25,-216 355.25,-216 361.25,-222 361.25,-228 361.25,-228 361.25,-240 361.25,-240 361.25,-246 355.25,-252 349.25,-252"/>
<text text-anchor="middle" x="310.5" y="-230.88" font-family="sans" font-size="10.00">get_sigSNP_array</text>
</g>
<!-- 2&#45;&gt;21 -->
<g id="edge29" class="edge">
<title>2&#45;&gt;21</title>
<path fill="none" stroke="grey" stroke-width="2" d="M412.57,-575.08C400.95,-565.7 387.7,-553.39 378.5,-540 354.52,-505.1 344.5,-493.34 344.5,-451 344.5,-451 344.5,-451 344.5,-377 344.5,-337.39 331.83,-293.23 321.96,-264.83"/>
<polygon fill="grey" stroke="grey" stroke-width="2" points="325.26,-263.67 318.57,-255.45 318.68,-266.05 325.26,-263.67"/>
</g>
<!-- 37 -->
<g id="node38" class="node">
<title>37</title>
<path fill="none" stroke="#78d856" stroke-width="2" d="M383.5,-180C383.5,-180 307.5,-180 307.5,-180 301.5,-180 295.5,-174 295.5,-168 295.5,-168 295.5,-156 295.5,-156 295.5,-150 301.5,-144 307.5,-144 307.5,-144 383.5,-144 383.5,-144 389.5,-144 395.5,-150 395.5,-156 395.5,-156 395.5,-168 395.5,-168 395.5,-174 389.5,-180 383.5,-180"/>
<text text-anchor="middle" x="345.5" y="-158.88" font-family="sans" font-size="10.00">plot_GWAS_array</text>
</g>
<!-- 2&#45;&gt;37 -->
<g id="edge63" class="edge">
<title>2&#45;&gt;37</title>
<path fill="none" stroke="grey" stroke-width="2" d="M427.96,-575.19C414.75,-548.84 392.5,-497.55 392.5,-451 392.5,-451 392.5,-451 392.5,-305 392.5,-264.28 374.87,-220.17 361.2,-192.1"/>
<polygon fill="grey" stroke="grey" stroke-width="2" points="364.47,-190.8 356.83,-183.46 358.22,-193.96 364.47,-190.8"/>
</g>
<!-- 3 -->
<g id="node4" class="node">
<title>3</title>
<path fill="none" stroke="#56c9d8" stroke-width="2" d="M415.75,-756C415.75,-756 365.25,-756 365.25,-756 359.25,-756 353.25,-750 353.25,-744 353.25,-744 353.25,-732 353.25,-732 353.25,-726 359.25,-720 365.25,-720 365.25,-720 415.75,-720 415.75,-720 421.75,-720 427.75,-726 427.75,-732 427.75,-732 427.75,-744 427.75,-744 427.75,-750 421.75,-756 415.75,-756"/>
<text text-anchor="middle" x="390.5" y="-734.88" font-family="sans" font-size="10.00">bfile_ori_QC</text>
</g>
<!-- 3&#45;&gt;2 -->
<g id="edge2" class="edge">
<title>3&#45;&gt;2</title>
<path fill="none" stroke="grey" stroke-width="2" d="M401.37,-719.41C407.17,-709.36 414.03,-696.33 418.5,-684 425.35,-665.13 430.08,-643.07 433.11,-625.64"/>
<polygon fill="grey" stroke="grey" stroke-width="2" points="436.56,-626.21 434.7,-615.78 429.65,-625.1 436.56,-626.21"/>
</g>
<!-- 8 -->
<g id="node9" class="node">
<title>8</title>
<path fill="none" stroke="#566bd8" stroke-width="2" d="M397.38,-684C397.38,-684 287.62,-684 287.62,-684 281.62,-684 275.62,-678 275.62,-672 275.62,-672 275.62,-660 275.62,-660 275.62,-654 281.62,-648 287.62,-648 287.62,-648 397.38,-648 397.38,-648 403.38,-648 409.38,-654 409.38,-660 409.38,-660 409.38,-672 409.38,-672 409.38,-678 403.38,-684 397.38,-684"/>
<text text-anchor="middle" x="342.5" y="-662.88" font-family="sans" font-size="10.00">gcta_grmbin_IMAGE_QC</text>
</g>
<!-- 3&#45;&gt;8 -->
<g id="edge7" class="edge">
<title>3&#45;&gt;8</title>
<path fill="none" stroke="grey" stroke-width="2" d="M378.39,-719.34C373.42,-712.1 367.55,-703.53 362.01,-695.45"/>
<polygon fill="grey" stroke="grey" stroke-width="2" points="365.03,-693.67 356.49,-687.4 359.26,-697.62 365.03,-693.67"/>
</g>
<!-- 18 -->
<g id="node19" class="node">
<title>18</title>
<path fill="none" stroke="#565bd8" stroke-width="2" d="M356.5,-612C356.5,-612 256.5,-612 256.5,-612 250.5,-612 244.5,-606 244.5,-600 244.5,-600 244.5,-588 244.5,-588 244.5,-582 250.5,-576 256.5,-576 256.5,-576 356.5,-576 356.5,-576 362.5,-576 368.5,-582 368.5,-588 368.5,-588 368.5,-600 368.5,-600 368.5,-606 362.5,-612 356.5,-612"/>
<text text-anchor="middle" x="306.5" y="-590.88" font-family="sans" font-size="10.00">gcta_mlma_array_cov</text>
</g>
<!-- 3&#45;&gt;18 -->
<g id="edge25" class="edge">
<title>3&#45;&gt;18</title>
<path fill="none" stroke="grey" stroke-width="2" d="M352.51,-731.98C323.53,-725.93 285.46,-712.72 266.5,-684 253.86,-664.85 265.79,-641.06 279.83,-622.89"/>
<polygon fill="grey" stroke="grey" stroke-width="2" points="282.49,-625.16 286.22,-615.24 277.12,-620.67 282.49,-625.16"/>
</g>
<!-- 31 -->
<g id="node32" class="node">
<title>31</title>
<path fill="none" stroke="#56d863" stroke-width="2" d="M1245.62,-684C1245.62,-684 1203.38,-684 1203.38,-684 1197.38,-684 1191.38,-678 1191.38,-672 1191.38,-672 1191.38,-660 1191.38,-660 1191.38,-654 1197.38,-648 1203.38,-648 1203.38,-648 1245.62,-648 1245.62,-648 1251.62,-648 1257.62,-654 1257.62,-660 1257.62,-660 1257.62,-672 1257.62,-672 1257.62,-678 1251.62,-684 1245.62,-684"/>
<text text-anchor="middle" x="1224.5" y="-662.88" font-family="sans" font-size="10.00">PCA_array</text>
</g>
<!-- 3&#45;&gt;31 -->
<g id="edge51" class="edge">
<title>3&#45;&gt;31</title>
<path fill="none" stroke="grey" stroke-width="2" d="M428.5,-733.81C564.76,-722.37 1028.61,-683.44 1177.84,-670.92"/>
<polygon fill="grey" stroke="grey" stroke-width="2" points="1177.79,-674.43 1187.46,-670.11 1177.2,-667.46 1177.79,-674.43"/>
</g>
<!-- 4 -->
<g id="node5" class="node">
<title>4</title>
<path fill="none" stroke="#56a9d8" stroke-width="2" d="M412,-828C412,-828 369,-828 369,-828 363,-828 357,-822 357,-816 357,-816 357,-804 357,-804 357,-798 363,-792 369,-792 369,-792 412,-792 412,-792 418,-792 424,-798 424,-804 424,-804 424,-816 424,-816 424,-822 418,-828 412,-828"/>
<text text-anchor="middle" x="390.5" y="-806.88" font-family="sans" font-size="10.00">prep_geno</text>
</g>
<!-- 4&#45;&gt;3 -->
<g id="edge6" class="edge">
<title>4&#45;&gt;3</title>
<path fill="none" stroke="grey" stroke-width="2" d="M390.5,-791.34C390.5,-784.75 390.5,-777.08 390.5,-769.67"/>
<polygon fill="grey" stroke="grey" stroke-width="2" points="394,-769.93 390.5,-759.93 387,-769.93 394,-769.93"/>
</g>
<!-- 5 -->
<g id="node6" class="node">
<title>5</title>
<path fill="none" stroke="#d8b456" stroke-width="2" d="M527,-684C527,-684 478,-684 478,-684 472,-684 466,-678 466,-672 466,-672 466,-660 466,-660 466,-654 472,-648 478,-648 478,-648 527,-648 527,-648 533,-648 539,-654 539,-660 539,-660 539,-672 539,-672 539,-678 533,-684 527,-684"/>
<text text-anchor="middle" x="502.5" y="-662.88" font-family="sans" font-size="10.00">prep_pheno</text>
</g>
<!-- 5&#45;&gt;2 -->
<g id="edge1" class="edge">
<title>5&#45;&gt;2</title>
<path fill="none" stroke="grey" stroke-width="2" d="M486.1,-647.34C479.07,-639.77 470.7,-630.75 462.9,-622.35"/>
<polygon fill="grey" stroke="grey" stroke-width="2" points="465.55,-620.07 456.18,-615.12 460.42,-624.83 465.55,-620.07"/>
</g>
<!-- 9 -->
<g id="node10" class="node">
<title>9</title>
<path fill="none" stroke="#d8ac56" stroke-width="2" d="M832.75,-612C832.75,-612 746.25,-612 746.25,-612 740.25,-612 734.25,-606 734.25,-600 734.25,-600 734.25,-588 734.25,-588 734.25,-582 740.25,-576 746.25,-576 746.25,-576 832.75,-576 832.75,-576 838.75,-576 844.75,-582 844.75,-588 844.75,-588 844.75,-600 844.75,-600 844.75,-606 838.75,-612 832.75,-612"/>
<text text-anchor="middle" x="789.5" y="-590.88" font-family="sans" font-size="10.00">gcta_mlma_impute</text>
</g>
<!-- 5&#45;&gt;9 -->
<g id="edge9" class="edge">
<title>5&#45;&gt;9</title>
<path fill="none" stroke="grey" stroke-width="2" d="M539.76,-650.74C542.7,-649.77 545.64,-648.84 548.5,-648 605.86,-631.18 672.29,-616.95 720.86,-607.48"/>
<polygon fill="grey" stroke="grey" stroke-width="2" points="721.3,-610.96 730.46,-605.63 719.98,-604.09 721.3,-610.96"/>
</g>
<!-- 14 -->
<g id="node15" class="node">
<title>14</title>
<path fill="none" stroke="#d8d356" stroke-width="2" d="M666,-612C666,-612 557,-612 557,-612 551,-612 545,-606 545,-600 545,-600 545,-588 545,-588 545,-582 551,-576 557,-576 557,-576 666,-576 666,-576 672,-576 678,-582 678,-588 678,-588 678,-600 678,-600 678,-606 672,-612 666,-612"/>
<text text-anchor="middle" x="611.5" y="-590.88" font-family="sans" font-size="10.00">gcta_mlma_impute_cov</text>
</g>
<!-- 5&#45;&gt;14 -->
<g id="edge17" class="edge">
<title>5&#45;&gt;14</title>
<path fill="none" stroke="grey" stroke-width="2" d="M530.29,-647.15C543.23,-638.84 558.84,-628.82 572.9,-619.79"/>
<polygon fill="grey" stroke="grey" stroke-width="2" points="574.69,-622.8 581.22,-614.45 570.91,-616.91 574.69,-622.8"/>
</g>
<!-- 5&#45;&gt;18 -->
<g id="edge24" class="edge">
<title>5&#45;&gt;18</title>
<path fill="none" stroke="grey" stroke-width="2" d="M465.17,-651.67C437.89,-641.93 400.27,-628.49 368.5,-617.14"/>
<polygon fill="grey" stroke="grey" stroke-width="2" points="370.1,-614 359.5,-613.93 367.74,-620.59 370.1,-614"/>
</g>
<!-- 43 -->
<g id="node44" class="node">
<title>43</title>
<path fill="none" stroke="#80d856" stroke-width="2" d="M875.12,-396C875.12,-396 811.88,-396 811.88,-396 805.88,-396 799.88,-390 799.88,-384 799.88,-384 799.88,-372 799.88,-372 799.88,-366 805.88,-360 811.88,-360 811.88,-360 875.12,-360 875.12,-360 881.12,-360 887.12,-366 887.12,-372 887.12,-372 887.12,-384 887.12,-384 887.12,-390 881.12,-396 875.12,-396"/>
<text text-anchor="middle" x="843.5" y="-374.88" font-family="sans" font-size="10.00">prep_FINEMAP</text>
</g>
<!-- 5&#45;&gt;43 -->
<g id="edge78" class="edge">
<title>5&#45;&gt;43</title>
<path fill="none" stroke="grey" stroke-width="2" d="M505.58,-647.28C509.66,-628.02 518.44,-597.17 535.5,-576 603.8,-491.27 718.77,-431.67 787.26,-401.54"/>
<polygon fill="grey" stroke="grey" stroke-width="2" points="788.5,-404.82 796.29,-397.64 785.72,-398.39 788.5,-404.82"/>
</g>
<!-- 6 -->
<g id="node7" class="node">
<title>6</title>
<path fill="none" stroke="#567bd8" stroke-width="2" d="M735.88,-684C735.88,-684 689.12,-684 689.12,-684 683.12,-684 677.12,-678 677.12,-672 677.12,-672 677.12,-660 677.12,-660 677.12,-654 683.12,-648 689.12,-648 689.12,-648 735.88,-648 735.88,-648 741.88,-648 747.88,-654 747.88,-660 747.88,-660 747.88,-672 747.88,-672 747.88,-678 741.88,-684 735.88,-684"/>
<text text-anchor="middle" x="712.5" y="-662.88" font-family="sans" font-size="10.00">get_ID_gen</text>
</g>
<!-- 6&#45;&gt;2 -->
<g id="edge4" class="edge">
<title>6&#45;&gt;2</title>
<path fill="none" stroke="grey" stroke-width="2" d="M676.27,-655.78C631.84,-644.47 555.78,-625.11 501.44,-611.27"/>
<polygon fill="grey" stroke="grey" stroke-width="2" points="502.3,-607.88 491.75,-608.81 500.57,-614.67 502.3,-607.88"/>
</g>
<!-- 6&#45;&gt;9 -->
<g id="edge12" class="edge">
<title>6&#45;&gt;9</title>
<path fill="none" stroke="grey" stroke-width="2" d="M731.93,-647.34C740.53,-639.52 750.82,-630.16 760.31,-621.53"/>
<polygon fill="grey" stroke="grey" stroke-width="2" points="762.52,-624.25 767.57,-614.94 757.81,-619.07 762.52,-624.25"/>
</g>
<!-- 6&#45;&gt;14 -->
<g id="edge20" class="edge">
<title>6&#45;&gt;14</title>
<path fill="none" stroke="grey" stroke-width="2" d="M686.75,-647.15C674.88,-638.93 660.58,-629.02 647.66,-620.06"/>
<polygon fill="grey" stroke="grey" stroke-width="2" points="649.9,-617.36 639.69,-614.54 645.91,-623.11 649.9,-617.36"/>
</g>
<!-- 6&#45;&gt;18 -->
<g id="edge27" class="edge">
<title>6&#45;&gt;18</title>
<path fill="none" stroke="grey" stroke-width="2" d="M676.26,-656.97C662.04,-653.96 645.54,-650.63 630.5,-648 522.66,-629.17 491.31,-632.93 381.8,-612.71"/>
<polygon fill="grey" stroke="grey" stroke-width="2" points="382.6,-609.3 372.13,-610.9 381.31,-616.18 382.6,-609.3"/>
</g>
<!-- 41 -->
<g id="node42" class="node">
<title>41</title>
<path fill="none" stroke="#97d856" stroke-width="2" d="M1179.38,-396C1179.38,-396 1129.62,-396 1129.62,-396 1123.62,-396 1117.62,-390 1117.62,-384 1117.62,-384 1117.62,-372 1117.62,-372 1117.62,-366 1123.62,-360 1129.62,-360 1129.62,-360 1179.38,-360 1179.38,-360 1185.38,-360 1191.38,-366 1191.38,-372 1191.38,-372 1191.38,-384 1191.38,-384 1191.38,-390 1185.38,-396 1179.38,-396"/>
<text text-anchor="middle" x="1154.5" y="-374.88" font-family="sans" font-size="10.00">BFMAP_gen</text>
</g>
<!-- 6&#45;&gt;41 -->
<g id="edge73" class="edge">
<title>6&#45;&gt;41</title>
<path fill="none" stroke="grey" stroke-width="2" d="M748.78,-650.22C751.37,-649.4 753.96,-648.65 756.5,-648 873.35,-618.06 925.89,-680.02 1025.5,-612 1026.69,-611.19 1104.15,-470.54 1138.45,-408.18"/>
<polygon fill="grey" stroke="grey" stroke-width="2" points="1141.49,-409.92 1143.24,-399.47 1135.36,-406.55 1141.49,-409.92"/>
</g>
<!-- 6&#45;&gt;43 -->
<g id="edge81" class="edge">
<title>6&#45;&gt;43</title>
<path fill="none" stroke="grey" stroke-width="2" d="M713.4,-647.23C714.72,-628.99 717.9,-599.96 725.5,-576 747.19,-507.6 758.78,-491.76 798.5,-432 804.26,-423.33 811.25,-414.49 817.98,-406.58"/>
<polygon fill="grey" stroke="grey" stroke-width="2" points="820.59,-408.9 824.56,-399.07 815.33,-404.28 820.59,-408.9"/>
</g>
<!-- 7 -->
<g id="node8" class="node">
<title>7</title>
<path fill="none" stroke="#569ad8" stroke-width="2" d="M609.5,-684C609.5,-684 569.5,-684 569.5,-684 563.5,-684 557.5,-678 557.5,-672 557.5,-672 557.5,-660 557.5,-660 557.5,-654 563.5,-648 569.5,-648 569.5,-648 609.5,-648 609.5,-648 615.5,-648 621.5,-654 621.5,-660 621.5,-660 621.5,-672 621.5,-672 621.5,-678 615.5,-684 609.5,-684"/>
<text text-anchor="middle" x="589.5" y="-662.88" font-family="sans" font-size="10.00">get_covar</text>
</g>
<!-- 7&#45;&gt;2 -->
<g id="edge3" class="edge">
<title>7&#45;&gt;2</title>
<path fill="none" stroke="grey" stroke-width="2" d="M556.52,-649.81C536.54,-640.61 510.64,-628.68 488.1,-618.3"/>
<polygon fill="grey" stroke="grey" stroke-width="2" points="489.63,-615.15 479.08,-614.15 486.7,-621.51 489.63,-615.15"/>
</g>
<!-- 7&#45;&gt;9 -->
<g id="edge11" class="edge">
<title>7&#45;&gt;9</title>
<path fill="none" stroke="grey" stroke-width="2" d="M622.08,-653.6C650.2,-643.76 691.63,-629.25 726.24,-617.14"/>
<polygon fill="grey" stroke="grey" stroke-width="2" points="727.03,-620.57 735.31,-613.97 724.72,-613.97 727.03,-620.57"/>
</g>
<!-- 7&#45;&gt;14 -->
<g id="edge19" class="edge">
<title>7&#45;&gt;14</title>
<path fill="none" stroke="grey" stroke-width="2" d="M595.05,-647.34C597.17,-640.59 599.65,-632.69 602.04,-625.11"/>
<polygon fill="grey" stroke="grey" stroke-width="2" points="605.31,-626.38 604.97,-615.79 598.63,-624.28 605.31,-626.38"/>
</g>
<!-- 7&#45;&gt;18 -->
<g id="edge26" class="edge">
<title>7&#45;&gt;18</title>
<path fill="none" stroke="grey" stroke-width="2" d="M556.68,-651.08C553.6,-649.97 550.51,-648.92 547.5,-648 477.39,-626.57 455.09,-628.7 381.47,-612.82"/>
<polygon fill="grey" stroke="grey" stroke-width="2" points="382.67,-609.5 372.15,-610.76 381.16,-616.33 382.67,-609.5"/>
</g>
<!-- 7&#45;&gt;41 -->
<g id="edge74" class="edge">
<title>7&#45;&gt;41</title>
<path fill="none" stroke="grey" stroke-width="2" d="M622.14,-657.82C636.37,-654.74 653.24,-651.13 668.5,-648 750.56,-631.19 777.2,-646.57 853.5,-612 968.9,-559.71 1080.27,-455.06 1128.92,-405.8"/>
<polygon fill="grey" stroke="grey" stroke-width="2" points="1131.2,-408.48 1135.69,-398.89 1126.19,-403.59 1131.2,-408.48"/>
</g>
<!-- 8&#45;&gt;2 -->
<g id="edge5" class="edge">
<title>8&#45;&gt;2</title>
<path fill="none" stroke="grey" stroke-width="2" d="M366.47,-647.34C377.53,-639.19 390.85,-629.37 402.96,-620.45"/>
<polygon fill="grey" stroke="grey" stroke-width="2" points="404.79,-623.45 410.77,-614.7 400.64,-617.81 404.79,-623.45"/>
</g>
<!-- 8&#45;&gt;18 -->
<g id="edge28" class="edge">
<title>8&#45;&gt;18</title>
<path fill="none" stroke="grey" stroke-width="2" d="M333.42,-647.34C329.82,-640.34 325.59,-632.12 321.56,-624.28"/>
<polygon fill="grey" stroke="grey" stroke-width="2" points="324.78,-622.89 317.09,-615.59 318.55,-626.09 324.78,-622.89"/>
</g>
<!-- 22 -->
<g id="node23" class="node">
<title>22</title>
<path fill="none" stroke="#d87d56" stroke-width="2" d="M579.88,-468C579.88,-468 509.12,-468 509.12,-468 503.12,-468 497.12,-462 497.12,-456 497.12,-456 497.12,-444 497.12,-444 497.12,-438 503.12,-432 509.12,-432 509.12,-432 579.88,-432 579.88,-432 585.88,-432 591.88,-438 591.88,-444 591.88,-444 591.88,-456 591.88,-456 591.88,-462 585.88,-468 579.88,-468"/>
<text text-anchor="middle" x="544.5" y="-446.88" font-family="sans" font-size="10.00">get_sigSNP_imp</text>
</g>
<!-- 9&#45;&gt;22 -->
<g id="edge30" class="edge">
<title>9&#45;&gt;22</title>
<path fill="none" stroke="grey" stroke-width="2" d="M758.47,-575.02C714.84,-549.73 635.25,-503.6 586.4,-475.28"/>
<polygon fill="grey" stroke="grey" stroke-width="2" points="588.3,-472.34 577.9,-470.36 584.79,-478.4 588.3,-472.34"/>
</g>
<!-- 38 -->
<g id="node39" class="node">
<title>38</title>
<path fill="none" stroke="#56d86b" stroke-width="2" d="M511,-180C511,-180 426,-180 426,-180 420,-180 414,-174 414,-168 414,-168 414,-156 414,-156 414,-150 420,-144 426,-144 426,-144 511,-144 511,-144 517,-144 523,-150 523,-156 523,-156 523,-168 523,-168 523,-174 517,-180 511,-180"/>
<text text-anchor="middle" x="468.5" y="-158.88" font-family="sans" font-size="10.00">plot_GWAS_impute</text>
</g>
<!-- 9&#45;&gt;38 -->
<g id="edge64" class="edge">
<title>9&#45;&gt;38</title>
<path fill="none" stroke="grey" stroke-width="2" d="M733.39,-580.27C641.62,-557.8 469.5,-508.06 469.5,-451 469.5,-451 469.5,-451 469.5,-377 469.5,-311.72 469.03,-235.23 468.73,-193.68"/>
<polygon fill="grey" stroke="grey" stroke-width="2" points="472.23,-193.76 468.66,-183.78 465.23,-193.81 472.23,-193.76"/>
</g>
<!-- 39 -->
<g id="node40" class="node">
<title>39</title>
<path fill="none" stroke="#d8cb56" stroke-width="2" d="M895,-468C895,-468 858,-468 858,-468 852,-468 846,-462 846,-456 846,-456 846,-444 846,-444 846,-438 852,-432 858,-432 858,-432 895,-432 895,-432 901,-432 907,-438 907,-444 907,-444 907,-456 907,-456 907,-462 901,-468 895,-468"/>
<text text-anchor="middle" x="876.5" y="-446.88" font-family="sans" font-size="10.00">get_QTLs</text>
</g>
<!-- 9&#45;&gt;39 -->
<g id="edge65" class="edge">
<title>9&#45;&gt;39</title>
<path fill="none" stroke="grey" stroke-width="2" d="M838.94,-575.11C854.4,-566.91 869.7,-555.48 878.5,-540 888.53,-522.35 887.74,-499.39 884.6,-481.21"/>
<polygon fill="grey" stroke="grey" stroke-width="2" points="888.07,-480.7 882.57,-471.64 881.22,-482.15 888.07,-480.7"/>
</g>
<!-- 40 -->
<g id="node41" class="node">
<title>40</title>
<path fill="none" stroke="#d88556" stroke-width="2" d="M1209,-324C1209,-324 1100,-324 1100,-324 1094,-324 1088,-318 1088,-312 1088,-312 1088,-300 1088,-300 1088,-294 1094,-288 1100,-288 1100,-288 1209,-288 1209,-288 1215,-288 1221,-294 1221,-300 1221,-300 1221,-312 1221,-312 1221,-318 1215,-324 1209,-324"/>
<text text-anchor="middle" x="1154.5" y="-302.88" font-family="sans" font-size="10.00">plot_BFMAP_pheno_gen</text>
</g>
<!-- 9&#45;&gt;40 -->
<g id="edge69" class="edge">
<title>9&#45;&gt;40</title>
<path fill="none" stroke="grey" stroke-width="2" d="M835.23,-575.06C855.31,-566.07 878.57,-554.1 897.5,-540 949.97,-500.93 945.29,-471.41 997.5,-432 1025.74,-410.69 1040.04,-417.01 1068.5,-396 1081.68,-386.27 1109.65,-356.57 1130.13,-334.13"/>
<polygon fill="grey" stroke="grey" stroke-width="2" points="1132.5,-336.74 1136.63,-326.98 1127.32,-332.03 1132.5,-336.74"/>
</g>
<!-- 9&#45;&gt;43 -->
<g id="edge79" class="edge">
<title>9&#45;&gt;43</title>
<path fill="none" stroke="grey" stroke-width="2" d="M787.68,-575.05C786.31,-556.92 785.44,-528.2 790.5,-504 797.68,-469.66 814.43,-432.99 827.19,-408.31"/>
<polygon fill="grey" stroke="grey" stroke-width="2" points="830.23,-410.05 831.83,-399.58 824.05,-406.76 830.23,-410.05"/>
</g>
<!-- 44 -->
<g id="node45" class="node">
<title>44</title>
<path fill="none" stroke="#56d8b1" stroke-width="2" d="M908.62,-180C908.62,-180 848.38,-180 848.38,-180 842.38,-180 836.38,-174 836.38,-168 836.38,-168 836.38,-156 836.38,-156 836.38,-150 842.38,-144 848.38,-144 848.38,-144 908.62,-144 908.62,-144 914.62,-144 920.62,-150 920.62,-156 920.62,-156 920.62,-168 920.62,-168 920.62,-174 914.62,-180 908.62,-180"/>
<text text-anchor="middle" x="878.5" y="-158.88" font-family="sans" font-size="10.00">plot_FINEMAP</text>
</g>
<!-- 9&#45;&gt;44 -->
<g id="edge85" class="edge">
<title>9&#45;&gt;44</title>
<path fill="none" stroke="grey" stroke-width="2" d="M777.35,-575.06C760.88,-548.96 733.5,-498.44 733.5,-451 733.5,-451 733.5,-451 733.5,-305 733.5,-250.89 785.67,-210.6 827.43,-187.02"/>
<polygon fill="grey" stroke="grey" stroke-width="2" points="829.09,-190.1 836.22,-182.26 825.76,-183.95 829.09,-190.1"/>
</g>
<!-- 47 -->
<g id="node48" class="node">
<title>47</title>
<path fill="none" stroke="#568ad8" stroke-width="2" d="M857.88,-540C857.88,-540 811.12,-540 811.12,-540 805.12,-540 799.12,-534 799.12,-528 799.12,-528 799.12,-516 799.12,-516 799.12,-510 805.12,-504 811.12,-504 811.12,-504 857.88,-504 857.88,-504 863.88,-504 869.88,-510 869.88,-516 869.88,-516 869.88,-528 869.88,-528 869.88,-534 863.88,-540 857.88,-540"/>
<text text-anchor="middle" x="834.5" y="-518.88" font-family="sans" font-size="10.00">metaGWAS</text>
</g>
<!-- 9&#45;&gt;47 -->
<g id="edge91" class="edge">
<title>9&#45;&gt;47</title>
<path fill="none" stroke="grey" stroke-width="2" d="M800.86,-575.34C805.46,-568.18 810.89,-559.73 816.03,-551.73"/>
<polygon fill="grey" stroke="grey" stroke-width="2" points="818.89,-553.75 821.35,-543.45 813,-549.97 818.89,-553.75"/>
</g>
<!-- 10 -->
<g id="node11" class="node">
<title>10</title>
<path fill="none" stroke="#d86e56" stroke-width="2" d="M1152,-756C1152,-756 1061,-756 1061,-756 1055,-756 1049,-750 1049,-744 1049,-744 1049,-732 1049,-732 1049,-726 1055,-720 1061,-720 1061,-720 1152,-720 1152,-720 1158,-720 1164,-726 1164,-732 1164,-732 1164,-744 1164,-744 1164,-750 1158,-756 1152,-756"/>
<text text-anchor="middle" x="1106.5" y="-734.88" font-family="sans" font-size="10.00">bfile_beagle_impute</text>
</g>
<!-- 10&#45;&gt;9 -->
<g id="edge8" class="edge">
<title>10&#45;&gt;9</title>
<path fill="none" stroke="grey" stroke-width="2" d="M1048.25,-721.19C1020.37,-712.35 987.14,-699.88 959.5,-684 937.89,-671.58 937.8,-660.95 916.5,-648 897.13,-636.23 874.67,-625.9 854.08,-617.56"/>
<polygon fill="grey" stroke="grey" stroke-width="2" points="855.61,-614.4 845.02,-614 853.04,-620.92 855.61,-614.4"/>
</g>
<!-- 12 -->
<g id="node13" class="node">
<title>12</title>
<path fill="none" stroke="#56b9d8" stroke-width="2" d="M895.5,-684C895.5,-684 777.5,-684 777.5,-684 771.5,-684 765.5,-678 765.5,-672 765.5,-672 765.5,-660 765.5,-660 765.5,-654 771.5,-648 777.5,-648 777.5,-648 895.5,-648 895.5,-648 901.5,-648 907.5,-654 907.5,-660 907.5,-660 907.5,-672 907.5,-672 907.5,-678 901.5,-684 895.5,-684"/>
<text text-anchor="middle" x="836.5" y="-662.88" font-family="sans" font-size="10.00">gcta_grmbin_imputed_QC</text>
</g>
<!-- 10&#45;&gt;12 -->
<g id="edge14" class="edge">
<title>10&#45;&gt;12</title>
<path fill="none" stroke="grey" stroke-width="2" d="M1048.25,-721.9C1010.23,-712.04 960.06,-699.03 918.1,-688.15"/>
<polygon fill="grey" stroke="grey" stroke-width="2" points="919.13,-684.81 908.57,-685.69 917.38,-691.58 919.13,-684.81"/>
</g>
<!-- 10&#45;&gt;14 -->
<g id="edge16" class="edge">
<title>10&#45;&gt;14</title>
<path fill="none" stroke="grey" stroke-width="2" d="M1048.11,-736.01C943.77,-733.26 730.45,-722.91 668.5,-684 646.63,-670.26 631.57,-644.72 622.45,-624.51"/>
<polygon fill="grey" stroke="grey" stroke-width="2" points="625.8,-623.43 618.7,-615.56 619.34,-626.13 625.8,-623.43"/>
</g>
<!-- 27 -->
<g id="node28" class="node">
<title>27</title>
<path fill="none" stroke="#d88d56" stroke-width="2" d="M1011.5,-396C1011.5,-396 917.5,-396 917.5,-396 911.5,-396 905.5,-390 905.5,-384 905.5,-384 905.5,-372 905.5,-372 905.5,-366 911.5,-360 917.5,-360 917.5,-360 1011.5,-360 1011.5,-360 1017.5,-360 1023.5,-366 1023.5,-372 1023.5,-372 1023.5,-384 1023.5,-384 1023.5,-390 1017.5,-396 1011.5,-396"/>
<text text-anchor="middle" x="964.5" y="-374.88" font-family="sans" font-size="10.00">bgen_beagle_impute</text>
</g>
<!-- 10&#45;&gt;27 -->
<g id="edge39" class="edge">
<title>10&#45;&gt;27</title>
<path fill="none" stroke="grey" stroke-width="2" d="M1102.56,-719.17C1097,-692.36 1087.5,-640.02 1087.5,-595 1087.5,-595 1087.5,-595 1087.5,-521 1087.5,-470.31 1042.16,-428.83 1006.54,-404.06"/>
<polygon fill="grey" stroke="grey" stroke-width="2" points="1008.63,-401.25 998.37,-398.6 1004.74,-407.07 1008.63,-401.25"/>
</g>
<!-- 32 -->
<g id="node33" class="node">
<title>32</title>
<path fill="none" stroke="#d86656" stroke-width="2" d="M1381.12,-684C1381.12,-684 1329.88,-684 1329.88,-684 1323.88,-684 1317.88,-678 1317.88,-672 1317.88,-672 1317.88,-660 1317.88,-660 1317.88,-654 1323.88,-648 1329.88,-648 1329.88,-648 1381.12,-648 1381.12,-648 1387.12,-648 1393.12,-654 1393.12,-660 1393.12,-660 1393.12,-672 1393.12,-672 1393.12,-678 1387.12,-684 1381.12,-684"/>
<text text-anchor="middle" x="1355.5" y="-662.88" font-family="sans" font-size="10.00">PCA_impute</text>
</g>
<!-- 10&#45;&gt;32 -->
<g id="edge52" class="edge">
<title>10&#45;&gt;32</title>
<path fill="none" stroke="grey" stroke-width="2" d="M1164.89,-721.4C1203.23,-711.05 1254.44,-697.03 1299.5,-684 1301.18,-683.51 1302.89,-683.02 1304.61,-682.51"/>
<polygon fill="grey" stroke="grey" stroke-width="2" points="1305.49,-685.9 1314.08,-679.7 1303.5,-679.19 1305.49,-685.9"/>
</g>
<!-- 10&#45;&gt;40 -->
<g id="edge70" class="edge">
<title>10&#45;&gt;40</title>
<path fill="none" stroke="grey" stroke-width="2" d="M1111.92,-719.16C1117.74,-700.87 1127.77,-671.8 1139.5,-648 1181.25,-563.27 1226.37,-558.77 1252.5,-468 1267.58,-415.63 1221.55,-363.25 1187.55,-333.05"/>
<polygon fill="grey" stroke="grey" stroke-width="2" points="1190.07,-330.6 1180.2,-326.74 1185.51,-335.91 1190.07,-330.6"/>
</g>
<!-- 10&#45;&gt;41 -->
<g id="edge71" class="edge">
<title>10&#45;&gt;41</title>
<path fill="none" stroke="grey" stroke-width="2" d="M1120.92,-719.01C1127.87,-709.25 1135.55,-696.62 1139.5,-684 1155.27,-633.57 1155.57,-476.77 1154.94,-409.82"/>
<polygon fill="grey" stroke="grey" stroke-width="2" points="1158.44,-409.95 1154.83,-399.99 1151.44,-410.03 1158.44,-409.95"/>
</g>
<!-- 42 -->
<g id="node43" class="node">
<title>42</title>
<path fill="none" stroke="#d8a456" stroke-width="2" d="M1231.12,-468C1231.12,-468 1179.88,-468 1179.88,-468 1173.88,-468 1167.88,-462 1167.88,-456 1167.88,-456 1167.88,-444 1167.88,-444 1167.88,-438 1173.88,-432 1179.88,-432 1179.88,-432 1231.12,-432 1231.12,-432 1237.12,-432 1243.12,-438 1243.12,-444 1243.12,-444 1243.12,-456 1243.12,-456 1243.12,-462 1237.12,-468 1231.12,-468"/>
<text text-anchor="middle" x="1205.5" y="-446.88" font-family="sans" font-size="10.00">BFMAP_grm</text>
</g>
<!-- 10&#45;&gt;42 -->
<g id="edge76" class="edge">
<title>10&#45;&gt;42</title>
<path fill="none" stroke="grey" stroke-width="2" d="M1164.84,-734.08C1200.46,-728.92 1243.46,-715.91 1266.5,-684 1312.07,-620.9 1259.11,-526.37 1226.82,-479.48"/>
<polygon fill="grey" stroke="grey" stroke-width="2" points="1229.71,-477.5 1221.07,-471.37 1224,-481.55 1229.71,-477.5"/>
</g>
<!-- 10&#45;&gt;43 -->
<g id="edge77" class="edge">
<title>10&#45;&gt;43</title>
<path fill="none" stroke="grey" stroke-width="2" d="M1071.56,-719.13C1032.15,-696.2 973.5,-652.42 973.5,-595 973.5,-595 973.5,-595 973.5,-521 973.5,-469.13 925.73,-427.97 888.11,-403.59"/>
<polygon fill="grey" stroke="grey" stroke-width="2" points="890.22,-400.79 879.89,-398.47 886.52,-406.73 890.22,-400.79"/>
</g>
<!-- 11 -->
<g id="node12" class="node">
<title>11</title>
<path fill="none" stroke="#56d89a" stroke-width="2" d="M1291.5,-828C1291.5,-828 1245.5,-828 1245.5,-828 1239.5,-828 1233.5,-822 1233.5,-816 1233.5,-816 1233.5,-804 1233.5,-804 1233.5,-798 1239.5,-792 1245.5,-792 1245.5,-792 1291.5,-792 1291.5,-792 1297.5,-792 1303.5,-798 1303.5,-804 1303.5,-804 1303.5,-816 1303.5,-816 1303.5,-822 1297.5,-828 1291.5,-828"/>
<text text-anchor="middle" x="1268.5" y="-806.88" font-family="sans" font-size="10.00">QC_impute</text>
</g>
<!-- 11&#45;&gt;10 -->
<g id="edge13" class="edge">
<title>11&#45;&gt;10</title>
<path fill="none" stroke="grey" stroke-width="2" d="M1232.55,-793.46C1211.18,-784.23 1183.67,-772.35 1159.81,-762.03"/>
<polygon fill="grey" stroke="grey" stroke-width="2" points="1161.42,-758.92 1150.85,-758.16 1158.64,-765.34 1161.42,-758.92"/>
</g>
<!-- 24 -->
<g id="node25" class="node">
<title>24</title>
<path fill="none" stroke="#8fd856" stroke-width="2" d="M1182.75,-252C1182.75,-252 1132.25,-252 1132.25,-252 1126.25,-252 1120.25,-246 1120.25,-240 1120.25,-240 1120.25,-228 1120.25,-228 1120.25,-222 1126.25,-216 1132.25,-216 1132.25,-216 1182.75,-216 1182.75,-216 1188.75,-216 1194.75,-222 1194.75,-228 1194.75,-228 1194.75,-240 1194.75,-240 1194.75,-246 1188.75,-252 1182.75,-252"/>
<text text-anchor="middle" x="1157.5" y="-230.88" font-family="sans" font-size="10.00">VEP_BFMAP</text>
</g>
<!-- 11&#45;&gt;24 -->
<g id="edge33" class="edge">
<title>11&#45;&gt;24</title>
<path fill="none" stroke="grey" stroke-width="2" d="M1304.27,-796.26C1352.25,-776.6 1431.5,-733.99 1431.5,-667 1431.5,-667 1431.5,-667 1431.5,-449 1431.5,-365.46 1400.51,-339.2 1334.5,-288 1298,-259.68 1246.55,-246.45 1208.52,-240.3"/>
<polygon fill="grey" stroke="grey" stroke-width="2" points="1209.07,-236.84 1198.67,-238.84 1208.05,-243.77 1209.07,-236.84"/>
</g>
<!-- 12&#45;&gt;9 -->
<g id="edge10" class="edge">
<title>12&#45;&gt;9</title>
<path fill="none" stroke="grey" stroke-width="2" d="M824.64,-647.34C819.78,-640.1 814.03,-631.53 808.6,-623.45"/>
<polygon fill="grey" stroke="grey" stroke-width="2" points="811.69,-621.77 803.21,-615.41 805.88,-625.67 811.69,-621.77"/>
</g>
<!-- 12&#45;&gt;14 -->
<g id="edge18" class="edge">
<title>12&#45;&gt;14</title>
<path fill="none" stroke="grey" stroke-width="2" d="M778.85,-647.06C749.08,-637.8 712.52,-626.43 681.18,-616.68"/>
<polygon fill="grey" stroke="grey" stroke-width="2" points="682.48,-613.42 671.89,-613.79 680.4,-620.1 682.48,-613.42"/>
</g>
<!-- 13 -->
<g id="node14" class="node">
<title>13</title>
<path fill="none" stroke="#5673d8" stroke-width="2" d="M655.62,-180C655.62,-180 553.38,-180 553.38,-180 547.38,-180 541.38,-174 541.38,-168 541.38,-168 541.38,-156 541.38,-156 541.38,-150 547.38,-144 553.38,-144 553.38,-144 655.62,-144 655.62,-144 661.62,-144 667.62,-150 667.62,-156 667.62,-156 667.62,-168 667.62,-168 667.62,-174 661.62,-180 655.62,-180"/>
<text text-anchor="middle" x="604.5" y="-158.88" font-family="sans" font-size="10.00">plot_GWAScov_impute</text>
</g>
<!-- 46 -->
<g id="node47" class="node">
<title>46</title>
<path fill="none" stroke="#9fd856" stroke-width="2" d="M529.5,-108C529.5,-108 495.5,-108 495.5,-108 489.5,-108 483.5,-102 483.5,-96 483.5,-96 483.5,-84 483.5,-84 483.5,-78 489.5,-72 495.5,-72 495.5,-72 529.5,-72 529.5,-72 535.5,-72 541.5,-78 541.5,-84 541.5,-84 541.5,-96 541.5,-96 541.5,-102 535.5,-108 529.5,-108"/>
<text text-anchor="middle" x="512.5" y="-86.88" font-family="sans" font-size="10.00">plot_fig4</text>
</g>
<!-- 13&#45;&gt;46 -->
<g id="edge89" class="edge">
<title>13&#45;&gt;46</title>
<path fill="none" stroke="grey" stroke-width="2" d="M581.28,-143.34C570.69,-135.27 557.93,-125.57 546.3,-116.72"/>
<polygon fill="grey" stroke="grey" stroke-width="2" points="548.51,-114 538.44,-110.73 544.28,-119.58 548.51,-114"/>
</g>
<!-- 13&#45;&gt;48 -->
<g id="edge113" class="edge">
<title>13&#45;&gt;48</title>
<path fill="none" stroke="grey" stroke-width="2" d="M605.49,-143.1C607.49,-123.39 613.5,-91.86 631.5,-72 654.23,-46.92 690.65,-33.4 718.83,-26.31"/>
<polygon fill="grey" stroke="grey" stroke-width="2" points="719.6,-29.72 728.57,-24.08 718.04,-22.9 719.6,-29.72"/>
</g>
<!-- 14&#45;&gt;13 -->
<g id="edge15" class="edge">
<title>14&#45;&gt;13</title>
<path fill="none" stroke="grey" stroke-width="2" d="M544.11,-584.77C513.24,-577.69 478.49,-564.51 455.5,-540 427.47,-510.12 431.5,-491.97 431.5,-451 431.5,-451 431.5,-451 431.5,-377 431.5,-292.88 513.34,-223.24 564.45,-187.95"/>
<polygon fill="grey" stroke="grey" stroke-width="2" points="566.3,-190.92 572.64,-182.44 562.39,-185.12 566.3,-190.92"/>
</g>
<!-- 15 -->
<g id="node16" class="node">
<title>15</title>
<path fill="none" stroke="#d85e56" stroke-width="2" d="M719.5,-108C719.5,-108 685.5,-108 685.5,-108 679.5,-108 673.5,-102 673.5,-96 673.5,-96 673.5,-84 673.5,-84 673.5,-78 679.5,-72 685.5,-72 685.5,-72 719.5,-72 719.5,-72 725.5,-72 731.5,-78 731.5,-84 731.5,-84 731.5,-96 731.5,-96 731.5,-102 725.5,-108 719.5,-108"/>
<text text-anchor="middle" x="702.5" y="-86.88" font-family="sans" font-size="10.00">plot_fig5</text>
</g>
<!-- 15&#45;&gt;48 -->
<g id="edge114" class="edge">
<title>15&#45;&gt;48</title>
<path fill="none" stroke="grey" stroke-width="2" d="M716.88,-71.34C722.91,-63.93 730.07,-55.14 736.78,-46.9"/>
<polygon fill="grey" stroke="grey" stroke-width="2" points="739.41,-49.21 743.01,-39.25 733.98,-44.79 739.41,-49.21"/>
</g>
<!-- 16 -->
<g id="node17" class="node">
<title>16</title>
<path fill="none" stroke="#59d856" stroke-width="2" d="M805.88,-180C805.88,-180 735.12,-180 735.12,-180 729.12,-180 723.12,-174 723.12,-168 723.12,-168 723.12,-156 723.12,-156 723.12,-150 729.12,-144 735.12,-144 735.12,-144 805.88,-144 805.88,-144 811.88,-144 817.88,-150 817.88,-156 817.88,-156 817.88,-168 817.88,-168 817.88,-174 811.88,-180 805.88,-180"/>
<text text-anchor="middle" x="770.5" y="-158.88" font-family="sans" font-size="10.00">plot_metaGWAS</text>
</g>
<!-- 16&#45;&gt;15 -->
<g id="edge21" class="edge">
<title>16&#45;&gt;15</title>
<path fill="none" stroke="grey" stroke-width="2" d="M753.34,-143.34C745.91,-135.69 737.04,-126.56 728.81,-118.08"/>
<polygon fill="grey" stroke="grey" stroke-width="2" points="731.48,-115.81 722,-111.07 726.46,-120.68 731.48,-115.81"/>
</g>
<!-- 16&#45;&gt;48 -->
<g id="edge103" class="edge">
<title>16&#45;&gt;48</title>
<path fill="none" stroke="grey" stroke-width="2" d="M769.11,-143.02C767.29,-119.54 764.08,-78.11 761.87,-49.64"/>
<polygon fill="grey" stroke="grey" stroke-width="2" points="765.38,-49.56 761.12,-39.86 758.4,-50.1 765.38,-49.56"/>
</g>
<!-- 17 -->
<g id="node18" class="node">
<title>17</title>
<path fill="none" stroke="#61d856" stroke-width="2" d="M285.12,-540C285.12,-540 191.88,-540 191.88,-540 185.88,-540 179.88,-534 179.88,-528 179.88,-528 179.88,-516 179.88,-516 179.88,-510 185.88,-504 191.88,-504 191.88,-504 285.12,-504 285.12,-504 291.12,-504 297.12,-510 297.12,-516 297.12,-516 297.12,-528 297.12,-528 297.12,-534 291.12,-540 285.12,-540"/>
<text text-anchor="middle" x="238.5" y="-518.88" font-family="sans" font-size="10.00">plot_GWAScov_array</text>
</g>
<!-- 17&#45;&gt;48 -->
<g id="edge104" class="edge">
<title>17&#45;&gt;48</title>
<path fill="none" stroke="grey" stroke-width="2" d="M236.64,-503.09C234,-476.18 229.5,-423.71 229.5,-379 229.5,-379 229.5,-379 229.5,-161 229.5,-109.27 258.94,-96.49 304.5,-72 375.75,-33.7 621.08,-22.8 718.83,-19.94"/>
<polygon fill="grey" stroke="grey" stroke-width="2" points="718.69,-23.45 728.59,-19.67 718.5,-16.45 718.69,-23.45"/>
</g>
<!-- 18&#45;&gt;17 -->
<g id="edge23" class="edge">
<title>18&#45;&gt;17</title>
<path fill="none" stroke="grey" stroke-width="2" d="M289.34,-575.34C281.91,-567.69 273.04,-558.56 264.81,-550.08"/>
<polygon fill="grey" stroke="grey" stroke-width="2" points="267.48,-547.81 258,-543.07 262.46,-552.68 267.48,-547.81"/>
</g>
<!-- 19 -->
<g id="node20" class="node">
<title>19</title>
<path fill="none" stroke="#b6d856" stroke-width="2" d="M1535.38,-108C1535.38,-108 1431.62,-108 1431.62,-108 1425.62,-108 1419.62,-102 1419.62,-96 1419.62,-96 1419.62,-84 1419.62,-84 1419.62,-78 1425.62,-72 1431.62,-72 1431.62,-72 1535.38,-72 1535.38,-72 1541.38,-72 1547.38,-78 1547.38,-84 1547.38,-84 1547.38,-96 1547.38,-96 1547.38,-102 1541.38,-108 1535.38,-108"/>
<text text-anchor="middle" x="1483.5" y="-86.88" font-family="sans" font-size="10.00">plot_manplot_combine</text>
</g>
<!-- 19&#45;&gt;48 -->
<g id="edge100" class="edge">
<title>19&#45;&gt;48</title>
<path fill="none" stroke="grey" stroke-width="2" d="M1418.72,-73.39C1415.95,-72.89 1413.2,-72.42 1410.5,-72 1181.32,-36.19 902.72,-23.77 800.02,-20.22"/>
<polygon fill="grey" stroke="grey" stroke-width="2" points="800.41,-16.73 790.3,-19.9 800.18,-23.73 800.41,-16.73"/>
</g>
<!-- 20 -->
<g id="node21" class="node">
<title>20</title>
<path fill="none" stroke="#56d8d0" stroke-width="2" d="M1703.62,-108C1703.62,-108 1577.38,-108 1577.38,-108 1571.38,-108 1565.38,-102 1565.38,-96 1565.38,-96 1565.38,-84 1565.38,-84 1565.38,-78 1571.38,-72 1577.38,-72 1577.38,-72 1703.62,-72 1703.62,-72 1709.62,-72 1715.62,-78 1715.62,-84 1715.62,-84 1715.62,-96 1715.62,-96 1715.62,-102 1709.62,-108 1703.62,-108"/>
<text text-anchor="middle" x="1640.5" y="-86.88" font-family="sans" font-size="10.00">plot_manplot_combine_cov</text>
</g>
<!-- 20&#45;&gt;48 -->
<g id="edge110" class="edge">
<title>20&#45;&gt;48</title>
<path fill="none" stroke="grey" stroke-width="2" d="M1564.57,-73.16C1561.85,-72.74 1559.15,-72.36 1556.5,-72 1268.27,-33.43 917.47,-22.48 800,-19.79"/>
<polygon fill="grey" stroke="grey" stroke-width="2" points="800.26,-16.29 790.19,-19.57 800.11,-23.29 800.26,-16.29"/>
</g>
<!-- 21&#45;&gt;48 -->
<g id="edge99" class="edge">
<title>21&#45;&gt;48</title>
<path fill="none" stroke="grey" stroke-width="2" d="M298.8,-215.09C288.38,-196.74 276.24,-167.64 286.5,-144 305.15,-101.02 321.16,-92.06 363.5,-72 425.89,-42.44 630.7,-26.8 718.71,-21.31"/>
<polygon fill="grey" stroke="grey" stroke-width="2" points="718.76,-24.82 728.53,-20.72 718.33,-17.83 718.76,-24.82"/>
</g>
<!-- 22&#45;&gt;48 -->
<g id="edge93" class="edge">
<title>22&#45;&gt;48</title>
<path fill="none" stroke="grey" stroke-width="2" d="M586.96,-431.04C631.63,-408.96 695.5,-366.92 695.5,-307 695.5,-307 695.5,-307 695.5,-233 695.5,-192.55 687.13,-183.02 676.5,-144 672.07,-127.73 667.2,-124.65 664.5,-108 661.94,-92.21 656.4,-85.8 664.5,-72 676.38,-51.77 699.1,-38.69 719.34,-30.59"/>
<polygon fill="grey" stroke="grey" stroke-width="2" points="720.46,-33.91 728.66,-27.2 718.06,-27.33 720.46,-33.91"/>
</g>
<!-- 23 -->
<g id="node24" class="node">
<title>23</title>
<path fill="none" stroke="#56d8a2" stroke-width="2" d="M1288.25,-180C1288.25,-180 1168.75,-180 1168.75,-180 1162.75,-180 1156.75,-174 1156.75,-168 1156.75,-168 1156.75,-156 1156.75,-156 1156.75,-150 1162.75,-144 1168.75,-144 1168.75,-144 1288.25,-144 1288.25,-144 1294.25,-144 1300.25,-150 1300.25,-156 1300.25,-156 1300.25,-168 1300.25,-168 1300.25,-174 1294.25,-180 1288.25,-180"/>
<text text-anchor="middle" x="1228.5" y="-158.88" font-family="sans" font-size="10.00">plot_BFMAP_gemrich_ENs</text>
</g>
<!-- 29 -->
<g id="node30" class="node">
<title>29</title>
<path fill="none" stroke="#ced856" stroke-width="2" d="M1389.62,-108C1389.62,-108 1335.38,-108 1335.38,-108 1329.38,-108 1323.38,-102 1323.38,-96 1323.38,-96 1323.38,-84 1323.38,-84 1323.38,-78 1329.38,-72 1335.38,-72 1335.38,-72 1389.62,-72 1389.62,-72 1395.62,-72 1401.62,-78 1401.62,-84 1401.62,-84 1401.62,-96 1401.62,-96 1401.62,-102 1395.62,-108 1389.62,-108"/>
<text text-anchor="middle" x="1362.5" y="-86.88" font-family="sans" font-size="10.00">wr_supdata2</text>
</g>
<!-- 23&#45;&gt;29 -->
<g id="edge46" class="edge">
<title>23&#45;&gt;29</title>
<path fill="none" stroke="grey" stroke-width="2" d="M1262.66,-143.15C1279.2,-134.52 1299.28,-124.02 1317.09,-114.72"/>
<polygon fill="grey" stroke="grey" stroke-width="2" points="1318.48,-117.95 1325.72,-110.21 1315.23,-111.74 1318.48,-117.95"/>
</g>
<!-- 33 -->
<g id="node34" class="node">
<title>33</title>
<path fill="none" stroke="#d89556" stroke-width="2" d="M929.62,-108C929.62,-108 875.38,-108 875.38,-108 869.38,-108 863.38,-102 863.38,-96 863.38,-96 863.38,-84 863.38,-84 863.38,-78 869.38,-72 875.38,-72 875.38,-72 929.62,-72 929.62,-72 935.62,-72 941.62,-78 941.62,-84 941.62,-84 941.62,-96 941.62,-96 941.62,-102 935.62,-108 929.62,-108"/>
<text text-anchor="middle" x="902.5" y="-86.88" font-family="sans" font-size="10.00">wr_supdata3</text>
</g>
<!-- 23&#45;&gt;33 -->
<g id="edge53" class="edge">
<title>23&#45;&gt;33</title>
<path fill="none" stroke="grey" stroke-width="2" d="M1156.1,-145.71C1153.19,-145.12 1150.32,-144.55 1147.5,-144 1064.17,-127.64 1038.81,-130.6 954.94,-108.97"/>
<polygon fill="grey" stroke="grey" stroke-width="2" points="955.91,-105.61 945.35,-106.45 954.13,-112.38 955.91,-105.61"/>
</g>
<!-- 34 -->
<g id="node35" class="node">
<title>34</title>
<path fill="none" stroke="#d89c56" stroke-width="2" d="M1159.62,-108C1159.62,-108 1105.38,-108 1105.38,-108 1099.38,-108 1093.38,-102 1093.38,-96 1093.38,-96 1093.38,-84 1093.38,-84 1093.38,-78 1099.38,-72 1105.38,-72 1105.38,-72 1159.62,-72 1159.62,-72 1165.62,-72 1171.62,-78 1171.62,-84 1171.62,-84 1171.62,-96 1171.62,-96 1171.62,-102 1165.62,-108 1159.62,-108"/>
<text text-anchor="middle" x="1132.5" y="-86.88" font-family="sans" font-size="10.00">wr_supdata4</text>
</g>
<!-- 23&#45;&gt;34 -->
<g id="edge56" class="edge">
<title>23&#45;&gt;34</title>
<path fill="none" stroke="grey" stroke-width="2" d="M1204.03,-143.15C1192.86,-135.01 1179.43,-125.22 1167.23,-116.33"/>
<polygon fill="grey" stroke="grey" stroke-width="2" points="1169.52,-113.66 1159.37,-110.6 1165.39,-119.32 1169.52,-113.66"/>
</g>
<!-- 35 -->
<g id="node36" class="node">
<title>35</title>
<path fill="none" stroke="#5692d8" stroke-width="2" d="M1025.62,-108C1025.62,-108 971.38,-108 971.38,-108 965.38,-108 959.38,-102 959.38,-96 959.38,-96 959.38,-84 959.38,-84 959.38,-78 965.38,-72 971.38,-72 971.38,-72 1025.62,-72 1025.62,-72 1031.62,-72 1037.62,-78 1037.62,-84 1037.62,-84 1037.62,-96 1037.62,-96 1037.62,-102 1031.62,-108 1025.62,-108"/>
<text text-anchor="middle" x="998.5" y="-86.88" font-family="sans" font-size="10.00">wr_supdata5</text>
</g>
<!-- 23&#45;&gt;35 -->
<g id="edge58" class="edge">
<title>23&#45;&gt;35</title>
<path fill="none" stroke="grey" stroke-width="2" d="M1169.57,-143.06C1132.78,-131.87 1085.85,-117.59 1050.46,-106.81"/>
<polygon fill="grey" stroke="grey" stroke-width="2" points="1051.94,-103.61 1041.35,-104.04 1049.9,-110.3 1051.94,-103.61"/>
</g>
<!-- 36 -->
<g id="node37" class="node">
<title>36</title>
<path fill="none" stroke="#d6d856" stroke-width="2" d="M1255.62,-108C1255.62,-108 1201.38,-108 1201.38,-108 1195.38,-108 1189.38,-102 1189.38,-96 1189.38,-96 1189.38,-84 1189.38,-84 1189.38,-78 1195.38,-72 1201.38,-72 1201.38,-72 1255.62,-72 1255.62,-72 1261.62,-72 1267.62,-78 1267.62,-84 1267.62,-84 1267.62,-96 1267.62,-96 1267.62,-102 1261.62,-108 1255.62,-108"/>
<text text-anchor="middle" x="1228.5" y="-86.88" font-family="sans" font-size="10.00">wr_supdata6</text>
</g>
<!-- 23&#45;&gt;36 -->
<g id="edge61" class="edge">
<title>23&#45;&gt;36</title>
<path fill="none" stroke="grey" stroke-width="2" d="M1228.5,-143.34C1228.5,-136.75 1228.5,-129.08 1228.5,-121.67"/>
<polygon fill="grey" stroke="grey" stroke-width="2" points="1232,-121.93 1228.5,-111.93 1225,-121.93 1232,-121.93"/>
</g>
<!-- 23&#45;&gt;48 -->
<g id="edge107" class="edge">
<title>23&#45;&gt;48</title>
<path fill="none" stroke="grey" stroke-width="2" d="M1250.12,-143.06C1270.67,-123.89 1295.79,-93.37 1276.5,-72 1244.73,-36.81 916.64,-23.68 800.21,-20.1"/>
<polygon fill="grey" stroke="grey" stroke-width="2" points="800.53,-16.61 790.43,-19.81 800.32,-23.61 800.53,-16.61"/>
</g>
<!-- 24&#45;&gt;23 -->
<g id="edge32" class="edge">
<title>24&#45;&gt;23</title>
<path fill="none" stroke="grey" stroke-width="2" d="M1175.42,-215.34C1183.26,-207.6 1192.64,-198.36 1201.31,-189.81"/>
<polygon fill="grey" stroke="grey" stroke-width="2" points="1203.52,-192.54 1208.19,-183.03 1198.61,-187.56 1203.52,-192.54"/>
</g>
<!-- 25 -->
<g id="node26" class="node">
<title>25</title>
<path fill="none" stroke="#56d8b9" stroke-width="2" d="M1126.62,-180C1126.62,-180 988.38,-180 988.38,-180 982.38,-180 976.38,-174 976.38,-168 976.38,-168 976.38,-156 976.38,-156 976.38,-150 982.38,-144 988.38,-144 988.38,-144 1126.62,-144 1126.62,-144 1132.62,-144 1138.62,-150 1138.62,-156 1138.62,-156 1138.62,-168 1138.62,-168 1138.62,-174 1132.62,-180 1126.62,-180"/>
<text text-anchor="middle" x="1057.5" y="-158.88" font-family="sans" font-size="10.00">plot_BFMAP_gemrich_BWEWs</text>
</g>
<!-- 24&#45;&gt;25 -->
<g id="edge36" class="edge">
<title>24&#45;&gt;25</title>
<path fill="none" stroke="grey" stroke-width="2" d="M1132.01,-215.15C1120.25,-206.93 1106.1,-197.02 1093.3,-188.06"/>
<polygon fill="grey" stroke="grey" stroke-width="2" points="1095.63,-185.42 1085.43,-182.55 1091.61,-191.15 1095.63,-185.42"/>
</g>
<!-- 25&#45;&gt;29 -->
<g id="edge48" class="edge">
<title>25&#45;&gt;29</title>
<path fill="none" stroke="grey" stroke-width="2" d="M1135.65,-143.06C1190.3,-130.52 1261.81,-114.11 1309.8,-103.09"/>
<polygon fill="grey" stroke="grey" stroke-width="2" points="1310.46,-106.53 1319.43,-100.89 1308.9,-99.71 1310.46,-106.53"/>
</g>
<!-- 25&#45;&gt;33 -->
<g id="edge55" class="edge">
<title>25&#45;&gt;33</title>
<path fill="none" stroke="grey" stroke-width="2" d="M1017.99,-143.15C998.48,-134.34 974.7,-123.61 953.8,-114.17"/>
<polygon fill="grey" stroke="grey" stroke-width="2" points="955.52,-111.11 944.97,-110.18 952.64,-117.49 955.52,-111.11"/>
</g>
<!-- 25&#45;&gt;34 -->
<g id="edge57" class="edge">
<title>25&#45;&gt;34</title>
<path fill="none" stroke="grey" stroke-width="2" d="M1076.43,-143.34C1084.8,-135.52 1094.83,-126.16 1104.07,-117.53"/>
<polygon fill="grey" stroke="grey" stroke-width="2" points="1106.18,-120.35 1111.11,-110.97 1101.41,-115.23 1106.18,-120.35"/>
</g>
<!-- 25&#45;&gt;35 -->
<g id="edge60" class="edge">
<title>25&#45;&gt;35</title>
<path fill="none" stroke="grey" stroke-width="2" d="M1042.61,-143.34C1036.3,-135.85 1028.8,-126.95 1021.79,-118.63"/>
<polygon fill="grey" stroke="grey" stroke-width="2" points="1024.66,-116.61 1015.54,-111.22 1019.31,-121.12 1024.66,-116.61"/>
</g>
<!-- 25&#45;&gt;36 -->
<g id="edge62" class="edge">
<title>25&#45;&gt;36</title>
<path fill="none" stroke="grey" stroke-width="2" d="M1101.09,-143.15C1124.12,-133.73 1152.53,-122.1 1176.68,-112.21"/>
<polygon fill="grey" stroke="grey" stroke-width="2" points="1177.77,-115.55 1185.7,-108.52 1175.12,-109.07 1177.77,-115.55"/>
</g>
<!-- 25&#45;&gt;48 -->
<g id="edge109" class="edge">
<title>25&#45;&gt;48</title>
<path fill="none" stroke="grey" stroke-width="2" d="M1060.9,-143.07C1063.58,-123.03 1064.33,-90.92 1046.5,-72 1013.45,-36.92 871.03,-24.71 800.04,-20.75"/>
<polygon fill="grey" stroke="grey" stroke-width="2" points="800.45,-17.27 790.28,-20.24 800.08,-24.26 800.45,-17.27"/>
</g>
<!-- 26 -->
<g id="node27" class="node">
<title>26</title>
<path fill="none" stroke="#88d856" stroke-width="2" d="M959.5,-324C959.5,-324 929.5,-324 929.5,-324 923.5,-324 917.5,-318 917.5,-312 917.5,-312 917.5,-300 917.5,-300 917.5,-294 923.5,-288 929.5,-288 929.5,-288 959.5,-288 959.5,-288 965.5,-288 971.5,-294 971.5,-300 971.5,-300 971.5,-312 971.5,-312 971.5,-318 965.5,-324 959.5,-324"/>
<text text-anchor="middle" x="944.5" y="-302.88" font-family="sans" font-size="10.00">LDstore</text>
</g>
<!-- 28 -->
<g id="node29" class="node">
<title>28</title>
<path fill="none" stroke="#56b1d8" stroke-width="2" d="M907.12,-252C907.12,-252 849.88,-252 849.88,-252 843.88,-252 837.88,-246 837.88,-240 837.88,-240 837.88,-228 837.88,-228 837.88,-222 843.88,-216 849.88,-216 849.88,-216 907.12,-216 907.12,-216 913.12,-216 919.12,-222 919.12,-228 919.12,-228 919.12,-240 919.12,-240 919.12,-246 913.12,-252 907.12,-252"/>
<text text-anchor="middle" x="878.5" y="-230.88" font-family="sans" font-size="10.00">FINEMAP_sss</text>
</g>
<!-- 26&#45;&gt;28 -->
<g id="edge42" class="edge">
<title>26&#45;&gt;28</title>
<path fill="none" stroke="grey" stroke-width="2" d="M927.85,-287.34C920.71,-279.77 912.21,-270.75 904.29,-262.35"/>
<polygon fill="grey" stroke="grey" stroke-width="2" points="906.86,-259.98 897.46,-255.1 901.77,-264.78 906.86,-259.98"/>
</g>
<!-- 26&#45;&gt;44 -->
<g id="edge84" class="edge">
<title>26&#45;&gt;44</title>
<path fill="none" stroke="grey" stroke-width="2" d="M944.26,-287.34C943.36,-268.68 940.02,-238.85 928.5,-216 923.77,-206.63 916.86,-197.76 909.67,-190.06"/>
<polygon fill="grey" stroke="grey" stroke-width="2" points="912.26,-187.7 902.71,-183.12 907.32,-192.66 912.26,-187.7"/>
</g>
<!-- 27&#45;&gt;26 -->
<g id="edge37" class="edge">
<title>27&#45;&gt;26</title>
<path fill="none" stroke="grey" stroke-width="2" d="M959.45,-359.34C957.55,-352.67 955.32,-344.89 953.18,-337.39"/>
<polygon fill="grey" stroke="grey" stroke-width="2" points="956.56,-336.47 950.45,-327.81 949.83,-338.39 956.56,-336.47"/>
</g>
<!-- 27&#45;&gt;28 -->
<g id="edge40" class="edge">
<title>27&#45;&gt;28</title>
<path fill="none" stroke="grey" stroke-width="2" d="M940.64,-359C929.57,-349.61 917.01,-337.31 908.5,-324 897.03,-306.07 889.46,-283.29 884.79,-265.26"/>
<polygon fill="grey" stroke="grey" stroke-width="2" points="888.26,-264.7 882.53,-255.78 881.45,-266.32 888.26,-264.7"/>
</g>
<!-- 28&#45;&gt;44 -->
<g id="edge82" class="edge">
<title>28&#45;&gt;44</title>
<path fill="none" stroke="grey" stroke-width="2" d="M878.5,-215.34C878.5,-208.75 878.5,-201.08 878.5,-193.67"/>
<polygon fill="grey" stroke="grey" stroke-width="2" points="882,-193.93 878.5,-183.93 875,-193.93 882,-193.93"/>
</g>
<!-- 29&#45;&gt;48 -->
<g id="edge98" class="edge">
<title>29&#45;&gt;48</title>
<path fill="none" stroke="grey" stroke-width="2" d="M1322.52,-75.18C1318.16,-73.97 1313.76,-72.88 1309.5,-72 1121.64,-33.29 891.71,-22.72 800.03,-19.94"/>
<polygon fill="grey" stroke="grey" stroke-width="2" points="800.4,-16.45 790.31,-19.67 800.2,-23.45 800.4,-16.45"/>
</g>
<!-- 30 -->
<g id="node31" class="node">
<title>30</title>
<path fill="none" stroke="#56d892" stroke-width="2" d="M1391,-612C1391,-612 1324,-612 1324,-612 1318,-612 1312,-606 1312,-600 1312,-600 1312,-588 1312,-588 1312,-582 1318,-576 1324,-576 1324,-576 1391,-576 1391,-576 1397,-576 1403,-582 1403,-588 1403,-588 1403,-600 1403,-600 1403,-606 1397,-612 1391,-612"/>
<text text-anchor="middle" x="1357.5" y="-590.88" font-family="sans" font-size="10.00">analysis_GWAS</text>
</g>
<!-- 30&#45;&gt;29 -->
<g id="edge44" class="edge">
<title>30&#45;&gt;29</title>
<path fill="none" stroke="grey" stroke-width="2" d="M1358.66,-575.3C1362.36,-518.13 1373.79,-333.22 1377.5,-180 1377.89,-164 1379.7,-159.85 1377.5,-144 1376.46,-136.54 1374.65,-128.66 1372.63,-121.31"/>
<polygon fill="grey" stroke="grey" stroke-width="2" points="1375.99,-120.36 1369.77,-111.79 1369.29,-122.37 1375.99,-120.36"/>
</g>
<!-- 31&#45;&gt;30 -->
<g id="edge49" class="edge">
<title>31&#45;&gt;30</title>
<path fill="none" stroke="grey" stroke-width="2" d="M1258.41,-647.15C1274.74,-638.56 1294.57,-628.12 1312.18,-618.85"/>
<polygon fill="grey" stroke="grey" stroke-width="2" points="1313.76,-621.98 1320.98,-614.22 1310.5,-615.78 1313.76,-621.98"/>
</g>
<!-- 32&#45;&gt;30 -->
<g id="edge50" class="edge">
<title>32&#45;&gt;30</title>
<path fill="none" stroke="grey" stroke-width="2" d="M1356,-647.34C1356.19,-640.75 1356.41,-633.08 1356.62,-625.67"/>
<polygon fill="grey" stroke="grey" stroke-width="2" points="1360.11,-626.02 1356.9,-615.93 1353.12,-625.82 1360.11,-626.02"/>
</g>
<!-- 33&#45;&gt;48 -->
<g id="edge95" class="edge">
<title>33&#45;&gt;48</title>
<path fill="none" stroke="grey" stroke-width="2" d="M866.05,-71.15C845.47,-61.09 819.76,-48.5 798.75,-38.21"/>
<polygon fill="grey" stroke="grey" stroke-width="2" points="800.55,-35.2 790.03,-33.94 797.47,-41.48 800.55,-35.2"/>
</g>
<!-- 34&#45;&gt;48 -->
<g id="edge96" class="edge">
<title>34&#45;&gt;48</title>
<path fill="none" stroke="grey" stroke-width="2" d="M1092.45,-75.47C1088.1,-74.21 1083.73,-73.02 1079.5,-72 980.27,-48.01 861.11,-31.42 800,-23.78"/>
<polygon fill="grey" stroke="grey" stroke-width="2" points="800.52,-20.31 790.17,-22.57 799.67,-27.26 800.52,-20.31"/>
</g>
<!-- 35&#45;&gt;48 -->
<g id="edge111" class="edge">
<title>35&#45;&gt;48</title>
<path fill="none" stroke="grey" stroke-width="2" d="M958.5,-74.6C955.8,-73.7 953.11,-72.82 950.5,-72 898.86,-55.71 838.56,-39.43 799.74,-29.29"/>
<polygon fill="grey" stroke="grey" stroke-width="2" points="800.68,-25.92 790.13,-26.8 798.93,-32.7 800.68,-25.92"/>
</g>
<!-- 36&#45;&gt;48 -->
<g id="edge97" class="edge">
<title>36&#45;&gt;48</title>
<path fill="none" stroke="grey" stroke-width="2" d="M1188.62,-74.15C1185.89,-73.36 1183.17,-72.63 1180.5,-72 1043.23,-39.45 875.75,-25.94 800.07,-21.2"/>
<polygon fill="grey" stroke="grey" stroke-width="2" points="800.67,-17.73 790.47,-20.62 800.24,-24.72 800.67,-17.73"/>
</g>
<!-- 45 -->
<g id="node46" class="node">
<title>45</title>
<path fill="none" stroke="#56d87b" stroke-width="2" d="M453.5,-108C453.5,-108 419.5,-108 419.5,-108 413.5,-108 407.5,-102 407.5,-96 407.5,-96 407.5,-84 407.5,-84 407.5,-78 413.5,-72 419.5,-72 419.5,-72 453.5,-72 453.5,-72 459.5,-72 465.5,-78 465.5,-84 465.5,-84 465.5,-96 465.5,-96 465.5,-102 459.5,-108 453.5,-108"/>
<text text-anchor="middle" x="436.5" y="-86.88" font-family="sans" font-size="10.00">plot_fig3</text>
</g>
<!-- 37&#45;&gt;45 -->
<g id="edge86" class="edge">
<title>37&#45;&gt;45</title>
<path fill="none" stroke="grey" stroke-width="2" d="M368.46,-143.34C378.94,-135.27 391.56,-125.57 403.07,-116.72"/>
<polygon fill="grey" stroke="grey" stroke-width="2" points="405.04,-119.62 410.83,-110.75 400.77,-114.07 405.04,-119.62"/>
</g>
<!-- 37&#45;&gt;46 -->
<g id="edge88" class="edge">
<title>37&#45;&gt;46</title>
<path fill="none" stroke="grey" stroke-width="2" d="M390.12,-143.06C412.3,-134.06 439.75,-122.78 470.99,-109.45"/>
<polygon fill="grey" stroke="grey" stroke-width="2" points="472.07,-112.8 479.89,-105.64 469.31,-106.36 472.07,-112.8"/>
</g>
<!-- 37&#45;&gt;48 -->
<g id="edge102" class="edge">
<title>37&#45;&gt;48</title>
<path fill="none" stroke="grey" stroke-width="2" d="M350.95,-143.01C358.23,-122.28 373.24,-88.9 398.5,-72 450.3,-37.34 635.79,-24.65 718.82,-20.63"/>
<polygon fill="grey" stroke="grey" stroke-width="2" points="718.84,-24.13 728.67,-20.18 718.52,-17.14 718.84,-24.13"/>
</g>
<!-- 38&#45;&gt;45 -->
<g id="edge87" class="edge">
<title>38&#45;&gt;45</title>
<path fill="none" stroke="grey" stroke-width="2" d="M460.43,-143.34C457.27,-136.43 453.56,-128.31 450.01,-120.56"/>
<polygon fill="grey" stroke="grey" stroke-width="2" points="453.28,-119.29 445.94,-111.65 446.92,-122.2 453.28,-119.29"/>
</g>
<!-- 38&#45;&gt;46 -->
<g id="edge90" class="edge">
<title>38&#45;&gt;46</title>
<path fill="none" stroke="grey" stroke-width="2" d="M479.6,-143.34C484.1,-136.18 489.41,-127.73 494.44,-119.73"/>
<polygon fill="grey" stroke="grey" stroke-width="2" points="497.28,-121.79 499.64,-111.46 491.35,-118.07 497.28,-121.79"/>
</g>
<!-- 38&#45;&gt;48 -->
<g id="edge105" class="edge">
<title>38&#45;&gt;48</title>
<path fill="none" stroke="grey" stroke-width="2" d="M496.25,-143.02C533.91,-118.68 597.88,-77.63 609.5,-72 645.38,-54.61 688.5,-39.98 719.28,-30.52"/>
<polygon fill="grey" stroke="grey" stroke-width="2" points="720.19,-33.9 728.76,-27.67 718.18,-27.2 720.19,-33.9"/>
</g>
<!-- 39&#45;&gt;40 -->
<g id="edge67" class="edge">
<title>39&#45;&gt;40</title>
<path fill="none" stroke="grey" stroke-width="2" d="M907.9,-436.92C912.45,-435.23 917.09,-433.55 921.5,-432 970.44,-414.83 987.12,-421.11 1032.5,-396 1054.31,-383.93 1055.57,-374.96 1075.5,-360 1088.3,-350.39 1102.72,-340.47 1115.71,-331.84"/>
<polygon fill="grey" stroke="grey" stroke-width="2" points="1117.25,-335.02 1123.68,-326.6 1113.4,-329.17 1117.25,-335.02"/>
</g>
<!-- 39&#45;&gt;41 -->
<g id="edge75" class="edge">
<title>39&#45;&gt;41</title>
<path fill="none" stroke="grey" stroke-width="2" d="M907.85,-441.11C955.64,-429.07 1047.17,-406.02 1104.29,-391.64"/>
<polygon fill="grey" stroke="grey" stroke-width="2" points="1104.85,-395.11 1113.69,-389.27 1103.14,-388.32 1104.85,-395.11"/>
</g>
<!-- 39&#45;&gt;43 -->
<g id="edge80" class="edge">
<title>39&#45;&gt;43</title>
<path fill="none" stroke="grey" stroke-width="2" d="M868.17,-431.34C864.91,-424.43 861.09,-416.31 857.43,-408.56"/>
<polygon fill="grey" stroke="grey" stroke-width="2" points="860.66,-407.19 853.23,-399.64 854.33,-410.18 860.66,-407.19"/>
</g>
<!-- 40&#45;&gt;23 -->
<g id="edge31" class="edge">
<title>40&#45;&gt;23</title>
<path fill="none" stroke="grey" stroke-width="2" d="M1175.08,-287.13C1184.93,-277.59 1196.16,-265.12 1203.5,-252 1213.68,-233.81 1219.96,-211.16 1223.69,-193.27"/>
<polygon fill="grey" stroke="grey" stroke-width="2" points="1227.09,-194.11 1225.5,-183.64 1220.21,-192.82 1227.09,-194.11"/>
</g>
<!-- 40&#45;&gt;24 -->
<g id="edge34" class="edge">
<title>40&#45;&gt;24</title>
<path fill="none" stroke="grey" stroke-width="2" d="M1155.26,-287.34C1155.54,-280.75 1155.87,-273.08 1156.19,-265.67"/>
<polygon fill="grey" stroke="grey" stroke-width="2" points="1159.67,-266.07 1156.6,-255.93 1152.68,-265.77 1159.67,-266.07"/>
</g>
<!-- 40&#45;&gt;25 -->
<g id="edge35" class="edge">
<title>40&#45;&gt;25</title>
<path fill="none" stroke="grey" stroke-width="2" d="M1139.15,-287.32C1130.65,-277.24 1120.1,-264.21 1111.5,-252 1097.82,-232.58 1083.96,-209.64 1073.7,-191.91"/>
<polygon fill="grey" stroke="grey" stroke-width="2" points="1076.87,-190.41 1068.87,-183.47 1070.8,-193.89 1076.87,-190.41"/>
</g>
<!-- 40&#45;&gt;29 -->
<g id="edge43" class="edge">
<title>40&#45;&gt;29</title>
<path fill="none" stroke="grey" stroke-width="2" d="M1182.71,-287.19C1216.05,-265.09 1271.77,-224.83 1309.5,-180 1324.91,-161.69 1338.62,-138.37 1348.23,-120.19"/>
<polygon fill="grey" stroke="grey" stroke-width="2" points="1351.23,-122.01 1352.69,-111.52 1345.01,-118.81 1351.23,-122.01"/>
</g>
<!-- 40&#45;&gt;48 -->
<g id="edge94" class="edge">
<title>40&#45;&gt;48</title>
<path fill="none" stroke="grey" stroke-width="2" d="M1124.6,-287.19C1086.75,-264.17 1020.14,-222.03 967.5,-180 949.32,-165.48 948.66,-157.19 929.5,-144 899.05,-123.03 884.2,-130.03 854.5,-108 837.07,-95.07 837.11,-87.08 821.5,-72 812.05,-62.87 801.31,-53.4 791.45,-45.03"/>
<polygon fill="grey" stroke="grey" stroke-width="2" points="793.82,-42.45 783.91,-38.71 789.33,-47.82 793.82,-42.45"/>
</g>
<!-- 41&#45;&gt;40 -->
<g id="edge68" class="edge">
<title>41&#45;&gt;40</title>
<path fill="none" stroke="grey" stroke-width="2" d="M1154.5,-359.34C1154.5,-352.75 1154.5,-345.08 1154.5,-337.67"/>
<polygon fill="grey" stroke="grey" stroke-width="2" points="1158,-337.93 1154.5,-327.93 1151,-337.93 1158,-337.93"/>
</g>
<!-- 49 -->
<g id="node50" class="node">
<title>49</title>
<path fill="none" stroke="#56d8a9" stroke-width="2" d="M1313.38,-324C1313.38,-324 1263.62,-324 1263.62,-324 1257.62,-324 1251.62,-318 1251.62,-312 1251.62,-312 1251.62,-300 1251.62,-300 1251.62,-294 1257.62,-288 1263.62,-288 1263.62,-288 1313.38,-288 1313.38,-288 1319.38,-288 1325.38,-294 1325.38,-300 1325.38,-300 1325.38,-312 1325.38,-312 1325.38,-318 1319.38,-324 1313.38,-324"/>
<text text-anchor="middle" x="1288.5" y="-302.88" font-family="sans" font-size="10.00">analysis_FP</text>
</g>
<!-- 41&#45;&gt;49 -->
<g id="edge115" class="edge">
<title>41&#45;&gt;49</title>
<path fill="none" stroke="grey" stroke-width="2" d="M1188.66,-359.15C1205.2,-350.52 1225.28,-340.02 1243.09,-330.72"/>
<polygon fill="grey" stroke="grey" stroke-width="2" points="1244.48,-333.95 1251.72,-326.21 1241.23,-327.74 1244.48,-333.95"/>
</g>
<!-- 42&#45;&gt;41 -->
<g id="edge72" class="edge">
<title>42&#45;&gt;41</title>
<path fill="none" stroke="grey" stroke-width="2" d="M1192.63,-431.34C1187.3,-424.01 1180.97,-415.34 1175.03,-407.18"/>
<polygon fill="grey" stroke="grey" stroke-width="2" points="1178.04,-405.37 1169.33,-399.35 1172.39,-409.49 1178.04,-405.37"/>
</g>
<!-- 43&#45;&gt;26 -->
<g id="edge38" class="edge">
<title>43&#45;&gt;26</title>
<path fill="none" stroke="grey" stroke-width="2" d="M869.25,-359.15C881.12,-350.93 895.42,-341.02 908.34,-332.06"/>
<polygon fill="grey" stroke="grey" stroke-width="2" points="910.09,-335.11 916.31,-326.54 906.1,-329.36 910.09,-335.11"/>
</g>
<!-- 43&#45;&gt;28 -->
<g id="edge41" class="edge">
<title>43&#45;&gt;28</title>
<path fill="none" stroke="grey" stroke-width="2" d="M847.93,-359.02C853.74,-335.44 864.02,-293.73 871.04,-265.25"/>
<polygon fill="grey" stroke="grey" stroke-width="2" points="874.38,-266.32 873.38,-255.78 867.59,-264.65 874.38,-266.32"/>
</g>
<!-- 43&#45;&gt;44 -->
<g id="edge83" class="edge">
<title>43&#45;&gt;44</title>
<path fill="none" stroke="grey" stroke-width="2" d="M836.76,-359.34C826.24,-328.88 809.02,-265.05 828.5,-216 832.31,-206.41 838.77,-197.55 845.8,-189.93"/>
<polygon fill="grey" stroke="grey" stroke-width="2" points="848.05,-192.63 852.7,-183.11 843.13,-187.65 848.05,-192.63"/>
</g>
<!-- 44&#45;&gt;29 -->
<g id="edge47" class="edge">
<title>44&#45;&gt;29</title>
<path fill="none" stroke="grey" stroke-width="2" d="M921.4,-152.15C935.99,-149.32 952.42,-146.32 967.5,-144 1104.16,-123.02 1139.91,-129.42 1276.5,-108 1287.41,-106.29 1299.06,-104.18 1310.13,-102.04"/>
<polygon fill="grey" stroke="grey" stroke-width="2" points="1310.7,-105.49 1319.83,-100.12 1309.34,-98.63 1310.7,-105.49"/>
</g>
<!-- 44&#45;&gt;33 -->
<g id="edge54" class="edge">
<title>44&#45;&gt;33</title>
<path fill="none" stroke="grey" stroke-width="2" d="M884.56,-143.34C886.87,-136.59 889.58,-128.69 892.18,-121.11"/>
<polygon fill="grey" stroke="grey" stroke-width="2" points="895.45,-122.36 895.38,-111.77 888.83,-120.09 895.45,-122.36"/>
</g>
<!-- 44&#45;&gt;35 -->
<g id="edge59" class="edge">
<title>44&#45;&gt;35</title>
<path fill="none" stroke="grey" stroke-width="2" d="M909.09,-143.15C923.62,-134.68 941.2,-124.42 956.92,-115.25"/>
<polygon fill="grey" stroke="grey" stroke-width="2" points="958.48,-118.4 965.35,-110.34 954.95,-112.35 958.48,-118.4"/>
</g>
<!-- 44&#45;&gt;48 -->
<g id="edge108" class="edge">
<title>44&#45;&gt;48</title>
<path fill="none" stroke="grey" stroke-width="2" d="M857.16,-143.11C845.98,-133.27 832.4,-120.55 821.5,-108 805.09,-89.11 789.01,-65.84 777.34,-47.84"/>
<polygon fill="grey" stroke="grey" stroke-width="2" points="780.3,-45.98 771.97,-39.42 774.4,-49.74 780.3,-45.98"/>
</g>
<!-- 45&#45;&gt;48 -->
<g id="edge106" class="edge">
<title>45&#45;&gt;48</title>
<path fill="none" stroke="grey" stroke-width="2" d="M466.11,-74.95C468.91,-73.87 471.74,-72.86 474.5,-72 559.5,-45.5 663.13,-30.31 719.04,-23.46"/>
<polygon fill="grey" stroke="grey" stroke-width="2" points="719.34,-26.95 728.86,-22.29 718.51,-20 719.34,-26.95"/>
</g>
<!-- 46&#45;&gt;48 -->
<g id="edge101" class="edge">
<title>46&#45;&gt;48</title>
<path fill="none" stroke="grey" stroke-width="2" d="M542.4,-76.64C546.76,-74.99 551.23,-73.39 555.5,-72 611.53,-53.72 677.81,-37.46 719.26,-27.92"/>
<polygon fill="grey" stroke="grey" stroke-width="2" points="719.88,-31.37 728.85,-25.73 718.33,-24.54 719.88,-31.37"/>
</g>
<!-- 47&#45;&gt;16 -->
<g id="edge22" class="edge">
<title>47&#45;&gt;16</title>
<path fill="none" stroke="grey" stroke-width="2" d="M826.62,-503.2C816.42,-479.32 798.97,-435.36 790.5,-396 775.12,-324.57 771.48,-238.43 770.68,-193.56"/>
<polygon fill="grey" stroke="grey" stroke-width="2" points="774.18,-193.74 770.54,-183.79 767.18,-193.84 774.18,-193.74"/>
</g>
<!-- 47&#45;&gt;39 -->
<g id="edge66" class="edge">
<title>47&#45;&gt;39</title>
<path fill="none" stroke="grey" stroke-width="2" d="M845.1,-503.34C849.34,-496.26 854.35,-487.92 859.1,-480"/>
<polygon fill="grey" stroke="grey" stroke-width="2" points="862.06,-481.87 864.2,-471.5 856.06,-478.27 862.06,-481.87"/>
</g>
<!-- 49&#45;&gt;29 -->
<g id="edge45" class="edge">
<title>49&#45;&gt;29</title>
<path fill="none" stroke="grey" stroke-width="2" d="M1313.23,-287.04C1324.03,-277.82 1335.75,-265.66 1342.5,-252 1363.13,-210.28 1365.46,-155.34 1364.52,-121.63"/>
<polygon fill="grey" stroke="grey" stroke-width="2" points="1368.03,-121.86 1364.11,-112.02 1361.04,-122.16 1368.03,-121.86"/>
</g>
</g>
</svg>
