<?xml version="1.0" encoding="UTF-8" standalone="no"?>
<!DOCTYPE svg PUBLIC "-//W3C//DTD SVG 1.1//EN"
 "http://www.w3.org/Graphics/SVG/1.1/DTD/svg11.dtd">
<!-- Generated by graphviz version 9.0.0 (20231125.0833)
 -->
<!-- Title: snakemake_dag Pages: 1 -->
<svg width="1298pt" height="836pt"
 viewBox="0.00 0.00 1297.62 836.00" xmlns="http://www.w3.org/2000/svg" xmlns:xlink="http://www.w3.org/1999/xlink">
<g id="graph0" class="graph" transform="scale(1 1) rotate(0) translate(4 832)">
<title>snakemake_dag</title>
<polygon fill="white" stroke="none" points="-4,4 -4,-832 1293.62,-832 1293.62,4 -4,4"/>
<!-- 0 -->
<g id="node1" class="node">
<title>0</title>
<path fill="none" stroke="#d8a456" stroke-width="2" d="M85,-108C85,-108 12,-108 12,-108 6,-108 0,-102 0,-96 0,-96 0,-84 0,-84 0,-78 6,-72 12,-72 12,-72 85,-72 85,-72 91,-72 97,-78 97,-84 97,-84 97,-96 97,-96 97,-102 91,-108 85,-108"/>
<text text-anchor="middle" x="48.5" y="-86.88" font-family="sans" font-size="10.00">wrplot_overview</text>
</g>
<!-- 39 -->
<g id="node40" class="node">
<title>39</title>
<path fill="none" stroke="#56d863" stroke-width="2" d="M729.5,-36C729.5,-36 699.5,-36 699.5,-36 693.5,-36 687.5,-30 687.5,-24 687.5,-24 687.5,-12 687.5,-12 687.5,-6 693.5,0 699.5,0 699.5,0 729.5,0 729.5,0 735.5,0 741.5,-6 741.5,-12 741.5,-12 741.5,-24 741.5,-24 741.5,-30 735.5,-36 729.5,-36"/>
<text text-anchor="middle" x="714.5" y="-14.88" font-family="sans" font-size="10.00">all</text>
</g>
<!-- 0&#45;&gt;39 -->
<g id="edge69" class="edge">
<title>0&#45;&gt;39</title>
<path fill="none" stroke="grey" stroke-width="2" d="M97.84,-74.81C102.43,-73.75 107.04,-72.79 111.5,-72 320.8,-34.86 575.8,-23.32 673.62,-20.12"/>
<polygon fill="grey" stroke="grey" stroke-width="2" points="673.71,-23.62 683.6,-19.8 673.49,-16.62 673.71,-23.62"/>
</g>
<!-- 1 -->
<g id="node2" class="node">
<title>1</title>
<path fill="none" stroke="#56c1d8" stroke-width="2" d="M156.75,-396C156.75,-396 94.25,-396 94.25,-396 88.25,-396 82.25,-390 82.25,-384 82.25,-384 82.25,-372 82.25,-372 82.25,-366 88.25,-360 94.25,-360 94.25,-360 156.75,-360 156.75,-360 162.75,-360 168.75,-366 168.75,-372 168.75,-372 168.75,-384 168.75,-384 168.75,-390 162.75,-396 156.75,-396"/>
<text text-anchor="middle" x="125.5" y="-374.88" font-family="sans" font-size="10.00">plot_PhenoCor</text>
</g>
<!-- 1&#45;&gt;39 -->
<g id="edge76" class="edge">
<title>1&#45;&gt;39</title>
<path fill="none" stroke="grey" stroke-width="2" d="M125.5,-359.07C125.5,-332.13 125.5,-279.62 125.5,-235 125.5,-235 125.5,-235 125.5,-161 125.5,-113.05 145.25,-96.45 186.5,-72 268.77,-23.24 564.89,-18.71 673.87,-18.74"/>
<polygon fill="grey" stroke="grey" stroke-width="2" points="673.76,-22.24 683.77,-18.76 673.78,-15.24 673.76,-22.24"/>
</g>
<!-- 2 -->
<g id="node3" class="node">
<title>2</title>
<path fill="none" stroke="#afd856" stroke-width="2" d="M157.88,-612C157.88,-612 81.12,-612 81.12,-612 75.12,-612 69.12,-606 69.12,-600 69.12,-600 69.12,-588 69.12,-588 69.12,-582 75.12,-576 81.12,-576 81.12,-576 157.88,-576 157.88,-576 163.88,-576 169.88,-582 169.88,-588 169.88,-588 169.88,-600 169.88,-600 169.88,-606 163.88,-612 157.88,-612"/>
<text text-anchor="middle" x="119.5" y="-590.88" font-family="sans" font-size="10.00">prep_gcta_bireml</text>
</g>
<!-- 29 -->
<g id="node30" class="node">
<title>29</title>
<path fill="none" stroke="#d85656" stroke-width="2" d="M147.38,-540C147.38,-540 97.62,-540 97.62,-540 91.62,-540 85.62,-534 85.62,-528 85.62,-528 85.62,-516 85.62,-516 85.62,-510 91.62,-504 97.62,-504 97.62,-504 147.38,-504 147.38,-504 153.38,-504 159.38,-510 159.38,-516 159.38,-516 159.38,-528 159.38,-528 159.38,-534 153.38,-540 147.38,-540"/>
<text text-anchor="middle" x="122.5" y="-518.88" font-family="sans" font-size="10.00">gcta_bireml</text>
</g>
<!-- 2&#45;&gt;29 -->
<g id="edge43" class="edge">
<title>2&#45;&gt;29</title>
<path fill="none" stroke="grey" stroke-width="2" d="M120.26,-575.34C120.54,-568.75 120.87,-561.08 121.19,-553.67"/>
<polygon fill="grey" stroke="grey" stroke-width="2" points="124.67,-554.07 121.6,-543.93 117.68,-553.77 124.67,-554.07"/>
</g>
<!-- 3 -->
<g id="node4" class="node">
<title>3</title>
<path fill="none" stroke="#d89556" stroke-width="2" d="M222.38,-684C222.38,-684 112.62,-684 112.62,-684 106.62,-684 100.62,-678 100.62,-672 100.62,-672 100.62,-660 100.62,-660 100.62,-654 106.62,-648 112.62,-648 112.62,-648 222.38,-648 222.38,-648 228.38,-648 234.38,-654 234.38,-660 234.38,-660 234.38,-672 234.38,-672 234.38,-678 228.38,-684 222.38,-684"/>
<text text-anchor="middle" x="167.5" y="-662.88" font-family="sans" font-size="10.00">gcta_grmbin_IMAGE_QC</text>
</g>
<!-- 3&#45;&gt;2 -->
<g id="edge3" class="edge">
<title>3&#45;&gt;2</title>
<path fill="none" stroke="grey" stroke-width="2" d="M155.39,-647.34C150.42,-640.1 144.55,-631.53 139.01,-623.45"/>
<polygon fill="grey" stroke="grey" stroke-width="2" points="142.03,-621.67 133.49,-615.4 136.26,-625.62 142.03,-621.67"/>
</g>
<!-- 12 -->
<g id="node13" class="node">
<title>12</title>
<path fill="none" stroke="#5663d8" stroke-width="2" d="M445.25,-612C445.25,-612 373.75,-612 373.75,-612 367.75,-612 361.75,-606 361.75,-600 361.75,-600 361.75,-588 361.75,-588 361.75,-582 367.75,-576 373.75,-576 373.75,-576 445.25,-576 445.25,-576 451.25,-576 457.25,-582 457.25,-588 457.25,-588 457.25,-600 457.25,-600 457.25,-606 451.25,-612 445.25,-612"/>
<text text-anchor="middle" x="409.5" y="-590.88" font-family="sans" font-size="10.00">gcta_mlma_Gen</text>
</g>
<!-- 3&#45;&gt;12 -->
<g id="edge14" class="edge">
<title>3&#45;&gt;12</title>
<path fill="none" stroke="grey" stroke-width="2" d="M230.91,-647.02C263.65,-637.69 304.53,-625.98 348.76,-613.08"/>
<polygon fill="grey" stroke="grey" stroke-width="2" points="349.48,-616.52 358.09,-610.35 347.51,-609.8 349.48,-616.52"/>
</g>
<!-- 19 -->
<g id="node20" class="node">
<title>19</title>
<path fill="none" stroke="#d88d56" stroke-width="2" d="M331.5,-612C331.5,-612 237.5,-612 237.5,-612 231.5,-612 225.5,-606 225.5,-600 225.5,-600 225.5,-588 225.5,-588 225.5,-582 231.5,-576 237.5,-576 237.5,-576 331.5,-576 331.5,-576 337.5,-576 343.5,-582 343.5,-588 343.5,-588 343.5,-600 343.5,-600 343.5,-606 337.5,-612 331.5,-612"/>
<text text-anchor="middle" x="284.5" y="-590.88" font-family="sans" font-size="10.00">gcta_mlma_Gen_cov</text>
</g>
<!-- 3&#45;&gt;19 -->
<g id="edge30" class="edge">
<title>3&#45;&gt;19</title>
<path fill="none" stroke="grey" stroke-width="2" d="M197.33,-647.15C211.49,-638.68 228.64,-628.42 243.96,-619.25"/>
<polygon fill="grey" stroke="grey" stroke-width="2" points="245.35,-622.5 252.13,-614.37 241.75,-616.5 245.35,-622.5"/>
</g>
<!-- 3&#45;&gt;29 -->
<g id="edge41" class="edge">
<title>3&#45;&gt;29</title>
<path fill="none" stroke="grey" stroke-width="2" d="M103.29,-647.04C86.48,-639.11 70.34,-627.85 60.5,-612 52.06,-598.41 53.8,-590.53 60.5,-576 65.32,-565.53 73.34,-556.37 82.04,-548.73"/>
<polygon fill="grey" stroke="grey" stroke-width="2" points="84.02,-551.63 89.65,-542.66 79.65,-546.16 84.02,-551.63"/>
</g>
<!-- 4 -->
<g id="node5" class="node">
<title>4</title>
<path fill="none" stroke="#78d856" stroke-width="2" d="M287.75,-756C287.75,-756 237.25,-756 237.25,-756 231.25,-756 225.25,-750 225.25,-744 225.25,-744 225.25,-732 225.25,-732 225.25,-726 231.25,-720 237.25,-720 237.25,-720 287.75,-720 287.75,-720 293.75,-720 299.75,-726 299.75,-732 299.75,-732 299.75,-744 299.75,-744 299.75,-750 293.75,-756 287.75,-756"/>
<text text-anchor="middle" x="262.5" y="-734.88" font-family="sans" font-size="10.00">bfile_ori_QC</text>
</g>
<!-- 4&#45;&gt;3 -->
<g id="edge5" class="edge">
<title>4&#45;&gt;3</title>
<path fill="none" stroke="grey" stroke-width="2" d="M238.53,-719.34C227.47,-711.19 214.15,-701.37 202.04,-692.45"/>
<polygon fill="grey" stroke="grey" stroke-width="2" points="204.36,-689.81 194.23,-686.7 200.21,-695.45 204.36,-689.81"/>
</g>
<!-- 4&#45;&gt;12 -->
<g id="edge13" class="edge">
<title>4&#45;&gt;12</title>
<path fill="none" stroke="grey" stroke-width="2" d="M270.72,-719.22C280.32,-699.9 297.7,-669 319.5,-648 331.03,-636.89 345.31,-627.15 359.07,-619.14"/>
<polygon fill="grey" stroke="grey" stroke-width="2" points="360.75,-622.21 367.79,-614.3 357.35,-616.09 360.75,-622.21"/>
</g>
<!-- 4&#45;&gt;19 -->
<g id="edge29" class="edge">
<title>4&#45;&gt;19</title>
<path fill="none" stroke="grey" stroke-width="2" d="M265.29,-719.02C268.92,-695.54 275.34,-654.11 279.75,-625.64"/>
<polygon fill="grey" stroke="grey" stroke-width="2" points="283.2,-626.25 281.27,-615.83 276.28,-625.18 283.2,-626.25"/>
</g>
<!-- 5 -->
<g id="node6" class="node">
<title>5</title>
<path fill="none" stroke="#56d8c1" stroke-width="2" d="M284,-828C284,-828 241,-828 241,-828 235,-828 229,-822 229,-816 229,-816 229,-804 229,-804 229,-798 235,-792 241,-792 241,-792 284,-792 284,-792 290,-792 296,-798 296,-804 296,-804 296,-816 296,-816 296,-822 290,-828 284,-828"/>
<text text-anchor="middle" x="262.5" y="-806.88" font-family="sans" font-size="10.00">prep_geno</text>
</g>
<!-- 5&#45;&gt;4 -->
<g id="edge6" class="edge">
<title>5&#45;&gt;4</title>
<path fill="none" stroke="grey" stroke-width="2" d="M262.5,-791.34C262.5,-784.75 262.5,-777.08 262.5,-769.67"/>
<polygon fill="grey" stroke="grey" stroke-width="2" points="266,-769.93 262.5,-759.93 259,-769.93 266,-769.93"/>
</g>
<!-- 6 -->
<g id="node7" class="node">
<title>6</title>
<path fill="none" stroke="#61d856" stroke-width="2" d="M438.75,-684C438.75,-684 340.25,-684 340.25,-684 334.25,-684 328.25,-678 328.25,-672 328.25,-672 328.25,-660 328.25,-660 328.25,-654 334.25,-648 340.25,-648 340.25,-648 438.75,-648 438.75,-648 444.75,-648 450.75,-654 450.75,-660 450.75,-660 450.75,-672 450.75,-672 450.75,-678 444.75,-684 438.75,-684"/>
<text text-anchor="middle" x="389.5" y="-662.88" font-family="sans" font-size="10.00">gcta_grmbin_imputed</text>
</g>
<!-- 6&#45;&gt;2 -->
<g id="edge4" class="edge">
<title>6&#45;&gt;2</title>
<path fill="none" stroke="grey" stroke-width="2" d="M327.27,-649.12C286.38,-638.66 231.73,-624.61 183.5,-612 183.37,-611.97 183.24,-611.93 183.11,-611.9"/>
<polygon fill="grey" stroke="grey" stroke-width="2" points="184.33,-608.6 173.77,-609.44 182.55,-615.37 184.33,-608.6"/>
</g>
<!-- 9 -->
<g id="node10" class="node">
<title>9</title>
<path fill="none" stroke="#56d89a" stroke-width="2" d="M527.88,-612C527.88,-612 487.12,-612 487.12,-612 481.12,-612 475.12,-606 475.12,-600 475.12,-600 475.12,-588 475.12,-588 475.12,-582 481.12,-576 487.12,-576 487.12,-576 527.88,-576 527.88,-576 533.88,-576 539.88,-582 539.88,-588 539.88,-588 539.88,-600 539.88,-600 539.88,-606 533.88,-612 527.88,-612"/>
<text text-anchor="middle" x="507.5" y="-590.88" font-family="sans" font-size="10.00">gcta_reml</text>
</g>
<!-- 6&#45;&gt;9 -->
<g id="edge11" class="edge">
<title>6&#45;&gt;9</title>
<path fill="none" stroke="grey" stroke-width="2" d="M419.58,-647.15C433.87,-638.68 451.16,-628.42 466.61,-619.25"/>
<polygon fill="grey" stroke="grey" stroke-width="2" points="468.05,-622.47 474.87,-614.36 464.48,-616.45 468.05,-622.47"/>
</g>
<!-- 6&#45;&gt;29 -->
<g id="edge42" class="edge">
<title>6&#45;&gt;29</title>
<path fill="none" stroke="grey" stroke-width="2" d="M327.43,-653.3C293.14,-645.09 250.69,-631.93 216.5,-612 216.5,-612 178.06,-575.61 150.35,-549.37"/>
<polygon fill="grey" stroke="grey" stroke-width="2" points="152.94,-547 143.27,-542.66 148.12,-552.08 152.94,-547"/>
</g>
<!-- 7 -->
<g id="node8" class="node">
<title>7</title>
<path fill="none" stroke="#569ad8" stroke-width="2" d="M859,-756C859,-756 768,-756 768,-756 762,-756 756,-750 756,-744 756,-744 756,-732 756,-732 756,-726 762,-720 768,-720 768,-720 859,-720 859,-720 865,-720 871,-726 871,-732 871,-732 871,-744 871,-744 871,-750 865,-756 859,-756"/>
<text text-anchor="middle" x="813.5" y="-734.88" font-family="sans" font-size="10.00">bfile_beagle_impute</text>
</g>
<!-- 7&#45;&gt;6 -->
<g id="edge7" class="edge">
<title>7&#45;&gt;6</title>
<path fill="none" stroke="grey" stroke-width="2" d="M755.28,-729.91C687.58,-721.31 572.23,-705.54 464.42,-684.88"/>
<polygon fill="grey" stroke="grey" stroke-width="2" points="465.1,-681.44 454.62,-682.98 463.77,-688.32 465.1,-681.44"/>
</g>
<!-- 7&#45;&gt;9 -->
<g id="edge10" class="edge">
<title>7&#45;&gt;9</title>
<path fill="none" stroke="grey" stroke-width="2" d="M755.27,-732.66C707.89,-727 640.72,-713.97 589.5,-684 575.66,-675.9 549.18,-645.83 530.04,-622.86"/>
<polygon fill="grey" stroke="grey" stroke-width="2" points="532.83,-620.73 523.77,-615.24 527.43,-625.19 532.83,-620.73"/>
</g>
<!-- 13 -->
<g id="node14" class="node">
<title>13</title>
<path fill="none" stroke="#5682d8" stroke-width="2" d="M834.5,-612C834.5,-612 734.5,-612 734.5,-612 728.5,-612 722.5,-606 722.5,-600 722.5,-600 722.5,-588 722.5,-588 722.5,-582 728.5,-576 734.5,-576 734.5,-576 834.5,-576 834.5,-576 840.5,-576 846.5,-582 846.5,-588 846.5,-588 846.5,-600 846.5,-600 846.5,-606 840.5,-612 834.5,-612"/>
<text text-anchor="middle" x="784.5" y="-590.88" font-family="sans" font-size="10.00">gcta_fastGWA_impute</text>
</g>
<!-- 7&#45;&gt;13 -->
<g id="edge18" class="edge">
<title>7&#45;&gt;13</title>
<path fill="none" stroke="grey" stroke-width="2" d="M823.56,-719.14C832.49,-700.82 842.79,-671.74 833.5,-648 829.74,-638.4 823.34,-629.5 816.38,-621.83"/>
<polygon fill="grey" stroke="grey" stroke-width="2" points="819.09,-619.6 809.56,-614.98 814.13,-624.54 819.09,-619.6"/>
</g>
<!-- 14 -->
<g id="node15" class="node">
<title>14</title>
<path fill="none" stroke="#56d87b" stroke-width="2" d="M812.12,-684C812.12,-684 736.88,-684 736.88,-684 730.88,-684 724.88,-678 724.88,-672 724.88,-672 724.88,-660 724.88,-660 724.88,-654 730.88,-648 736.88,-648 736.88,-648 812.12,-648 812.12,-648 818.12,-648 824.12,-654 824.12,-660 824.12,-660 824.12,-672 824.12,-672 824.12,-678 818.12,-684 812.12,-684"/>
<text text-anchor="middle" x="774.5" y="-662.88" font-family="sans" font-size="10.00">gcta_sparse_grm</text>
</g>
<!-- 7&#45;&gt;14 -->
<g id="edge21" class="edge">
<title>7&#45;&gt;14</title>
<path fill="none" stroke="grey" stroke-width="2" d="M803.66,-719.34C799.76,-712.34 795.18,-704.12 790.81,-696.28"/>
<polygon fill="grey" stroke="grey" stroke-width="2" points="793.87,-694.58 785.95,-687.55 787.76,-697.99 793.87,-694.58"/>
</g>
<!-- 16 -->
<g id="node17" class="node">
<title>16</title>
<path fill="none" stroke="#56b9d8" stroke-width="2" d="M692.75,-612C692.75,-612 570.25,-612 570.25,-612 564.25,-612 558.25,-606 558.25,-600 558.25,-600 558.25,-588 558.25,-588 558.25,-582 564.25,-576 570.25,-576 570.25,-576 692.75,-576 692.75,-576 698.75,-576 704.75,-582 704.75,-588 704.75,-588 704.75,-600 704.75,-600 704.75,-606 698.75,-612 692.75,-612"/>
<text text-anchor="middle" x="631.5" y="-590.88" font-family="sans" font-size="10.00">gcta_fastGWA_impute_cov</text>
</g>
<!-- 7&#45;&gt;16 -->
<g id="edge24" class="edge">
<title>7&#45;&gt;16</title>
<path fill="none" stroke="grey" stroke-width="2" d="M773.59,-719.05C755.08,-709.83 733.29,-697.67 715.5,-684 702.71,-674.18 675.57,-644.73 655.58,-622.37"/>
<polygon fill="grey" stroke="grey" stroke-width="2" points="658.25,-620.1 648.99,-614.95 653.02,-624.75 658.25,-620.1"/>
</g>
<!-- 34 -->
<g id="node35" class="node">
<title>34</title>
<path fill="none" stroke="#56d88a" stroke-width="2" d="M949.38,-396C949.38,-396 899.62,-396 899.62,-396 893.62,-396 887.62,-390 887.62,-384 887.62,-384 887.62,-372 887.62,-372 887.62,-366 893.62,-360 899.62,-360 899.62,-360 949.38,-360 949.38,-360 955.38,-360 961.38,-366 961.38,-372 961.38,-372 961.38,-384 961.38,-384 961.38,-390 955.38,-396 949.38,-396"/>
<text text-anchor="middle" x="924.5" y="-374.88" font-family="sans" font-size="10.00">BFMAP_gen</text>
</g>
<!-- 7&#45;&gt;34 -->
<g id="edge54" class="edge">
<title>7&#45;&gt;34</title>
<path fill="none" stroke="grey" stroke-width="2" d="M841.43,-719.09C874.9,-695.19 926.5,-649.51 926.5,-595 926.5,-595 926.5,-595 926.5,-521 926.5,-482.65 925.76,-438.48 925.18,-409.72"/>
<polygon fill="grey" stroke="grey" stroke-width="2" points="928.69,-409.88 924.98,-399.96 921.69,-410.03 928.69,-409.88"/>
</g>
<!-- 35 -->
<g id="node36" class="node">
<title>35</title>
<path fill="none" stroke="#97d856" stroke-width="2" d="M1018.12,-540C1018.12,-540 966.88,-540 966.88,-540 960.88,-540 954.88,-534 954.88,-528 954.88,-528 954.88,-516 954.88,-516 954.88,-510 960.88,-504 966.88,-504 966.88,-504 1018.12,-504 1018.12,-504 1024.12,-504 1030.12,-510 1030.12,-516 1030.12,-516 1030.12,-528 1030.12,-528 1030.12,-534 1024.12,-540 1018.12,-540"/>
<text text-anchor="middle" x="992.5" y="-518.88" font-family="sans" font-size="10.00">BFMAP_grm</text>
</g>
<!-- 7&#45;&gt;35 -->
<g id="edge55" class="edge">
<title>7&#45;&gt;35</title>
<path fill="none" stroke="grey" stroke-width="2" d="M871.97,-724.14C896.04,-716.18 922.46,-703.6 940.5,-684 974.04,-647.56 985.96,-589.27 990.18,-553.73"/>
<polygon fill="grey" stroke="grey" stroke-width="2" points="993.65,-554.2 991.19,-543.89 986.69,-553.49 993.65,-554.2"/>
</g>
<!-- 8 -->
<g id="node9" class="node">
<title>8</title>
<path fill="none" stroke="#56d8d0" stroke-width="2" d="M990.5,-828C990.5,-828 944.5,-828 944.5,-828 938.5,-828 932.5,-822 932.5,-816 932.5,-816 932.5,-804 932.5,-804 932.5,-798 938.5,-792 944.5,-792 944.5,-792 990.5,-792 990.5,-792 996.5,-792 1002.5,-798 1002.5,-804 1002.5,-804 1002.5,-816 1002.5,-816 1002.5,-822 996.5,-828 990.5,-828"/>
<text text-anchor="middle" x="967.5" y="-806.88" font-family="sans" font-size="10.00">QC_impute</text>
</g>
<!-- 8&#45;&gt;7 -->
<g id="edge8" class="edge">
<title>8&#45;&gt;7</title>
<path fill="none" stroke="grey" stroke-width="2" d="M931.78,-792.76C911.92,-783.73 886.84,-772.34 864.9,-762.36"/>
<polygon fill="grey" stroke="grey" stroke-width="2" points="866.39,-759.2 855.84,-758.25 863.49,-765.57 866.39,-759.2"/>
</g>
<!-- 22 -->
<g id="node23" class="node">
<title>22</title>
<path fill="none" stroke="#566bd8" stroke-width="2" d="M1043.75,-252C1043.75,-252 993.25,-252 993.25,-252 987.25,-252 981.25,-246 981.25,-240 981.25,-240 981.25,-228 981.25,-228 981.25,-222 987.25,-216 993.25,-216 993.25,-216 1043.75,-216 1043.75,-216 1049.75,-216 1055.75,-222 1055.75,-228 1055.75,-228 1055.75,-240 1055.75,-240 1055.75,-246 1049.75,-252 1043.75,-252"/>
<text text-anchor="middle" x="1018.5" y="-230.88" font-family="sans" font-size="10.00">VEP_BFMAP</text>
</g>
<!-- 8&#45;&gt;22 -->
<g id="edge34" class="edge">
<title>8&#45;&gt;22</title>
<path fill="none" stroke="grey" stroke-width="2" d="M1003.22,-794.82C1048.71,-774.12 1121.5,-731.01 1121.5,-667 1121.5,-667 1121.5,-667 1121.5,-377 1121.5,-329.25 1082.87,-286.73 1052.93,-260.94"/>
<polygon fill="grey" stroke="grey" stroke-width="2" points="1055.43,-258.47 1045.5,-254.79 1050.97,-263.86 1055.43,-258.47"/>
</g>
<!-- 9&#45;&gt;1 -->
<g id="edge1" class="edge">
<title>9&#45;&gt;1</title>
<path fill="none" stroke="grey" stroke-width="2" d="M475.59,-575.12C407.19,-536.81 246.41,-446.74 168.85,-403.29"/>
<polygon fill="grey" stroke="grey" stroke-width="2" points="170.67,-400.29 160.23,-398.46 167.24,-406.4 170.67,-400.29"/>
</g>
<!-- 10 -->
<g id="node11" class="node">
<title>10</title>
<path fill="none" stroke="#56a9d8" stroke-width="2" d="M530,-684C530,-684 481,-684 481,-684 475,-684 469,-678 469,-672 469,-672 469,-660 469,-660 469,-654 475,-648 481,-648 481,-648 530,-648 530,-648 536,-648 542,-654 542,-660 542,-660 542,-672 542,-672 542,-678 536,-684 530,-684"/>
<text text-anchor="middle" x="505.5" y="-662.88" font-family="sans" font-size="10.00">prep_pheno</text>
</g>
<!-- 10&#45;&gt;9 -->
<g id="edge12" class="edge">
<title>10&#45;&gt;9</title>
<path fill="none" stroke="grey" stroke-width="2" d="M506,-647.34C506.19,-640.75 506.41,-633.08 506.62,-625.67"/>
<polygon fill="grey" stroke="grey" stroke-width="2" points="510.11,-626.02 506.9,-615.93 503.12,-625.82 510.11,-626.02"/>
</g>
<!-- 10&#45;&gt;12 -->
<g id="edge16" class="edge">
<title>10&#45;&gt;12</title>
<path fill="none" stroke="grey" stroke-width="2" d="M481.03,-647.15C469.86,-639.01 456.43,-629.22 444.23,-620.33"/>
<polygon fill="grey" stroke="grey" stroke-width="2" points="446.52,-617.66 436.37,-614.6 442.39,-623.32 446.52,-617.66"/>
</g>
<!-- 10&#45;&gt;13 -->
<g id="edge20" class="edge">
<title>10&#45;&gt;13</title>
<path fill="none" stroke="grey" stroke-width="2" d="M542.84,-655.63C585.18,-645.01 655.31,-627.41 709.15,-613.91"/>
<polygon fill="grey" stroke="grey" stroke-width="2" points="709.98,-617.31 718.82,-611.48 708.27,-610.52 709.98,-617.31"/>
</g>
<!-- 10&#45;&gt;16 -->
<g id="edge26" class="edge">
<title>10&#45;&gt;16</title>
<path fill="none" stroke="grey" stroke-width="2" d="M537.62,-647.15C553.02,-638.6 571.7,-628.22 588.32,-618.99"/>
<polygon fill="grey" stroke="grey" stroke-width="2" points="589.75,-622.2 596.79,-614.28 586.35,-616.08 589.75,-622.2"/>
</g>
<!-- 10&#45;&gt;19 -->
<g id="edge32" class="edge">
<title>10&#45;&gt;19</title>
<path fill="none" stroke="grey" stroke-width="2" d="M468.16,-650.99C465.24,-649.96 462.32,-648.95 459.5,-648 425.89,-636.71 388.31,-625.19 356.6,-615.78"/>
<polygon fill="grey" stroke="grey" stroke-width="2" points="357.8,-612.48 347.22,-613.01 355.82,-619.2 357.8,-612.48"/>
</g>
<!-- 11 -->
<g id="node12" class="node">
<title>11</title>
<path fill="none" stroke="#59d856" stroke-width="2" d="M656.88,-684C656.88,-684 610.12,-684 610.12,-684 604.12,-684 598.12,-678 598.12,-672 598.12,-672 598.12,-660 598.12,-660 598.12,-654 604.12,-648 610.12,-648 610.12,-648 656.88,-648 656.88,-648 662.88,-648 668.88,-654 668.88,-660 668.88,-660 668.88,-672 668.88,-672 668.88,-678 662.88,-684 656.88,-684"/>
<text text-anchor="middle" x="633.5" y="-662.88" font-family="sans" font-size="10.00">get_ID_gen</text>
</g>
<!-- 11&#45;&gt;9 -->
<g id="edge9" class="edge">
<title>11&#45;&gt;9</title>
<path fill="none" stroke="grey" stroke-width="2" d="M601.38,-647.15C585.98,-638.6 567.3,-628.22 550.68,-618.99"/>
<polygon fill="grey" stroke="grey" stroke-width="2" points="552.65,-616.08 542.21,-614.28 549.25,-622.2 552.65,-616.08"/>
</g>
<!-- 11&#45;&gt;12 -->
<g id="edge15" class="edge">
<title>11&#45;&gt;12</title>
<path fill="none" stroke="grey" stroke-width="2" d="M597.51,-653.75C563.21,-643.04 510.92,-626.69 470.18,-613.96"/>
<polygon fill="grey" stroke="grey" stroke-width="2" points="471.41,-610.68 460.83,-611.04 469.33,-617.36 471.41,-610.68"/>
</g>
<!-- 11&#45;&gt;13 -->
<g id="edge17" class="edge">
<title>11&#45;&gt;13</title>
<path fill="none" stroke="grey" stroke-width="2" d="M669.67,-648.23C688.94,-639.3 712.96,-628.17 734.03,-618.39"/>
<polygon fill="grey" stroke="grey" stroke-width="2" points="735.37,-621.63 742.97,-614.25 732.43,-615.28 735.37,-621.63"/>
</g>
<!-- 11&#45;&gt;16 -->
<g id="edge23" class="edge">
<title>11&#45;&gt;16</title>
<path fill="none" stroke="grey" stroke-width="2" d="M633,-647.34C632.81,-640.75 632.59,-633.08 632.38,-625.67"/>
<polygon fill="grey" stroke="grey" stroke-width="2" points="635.88,-625.82 632.1,-615.93 628.89,-626.02 635.88,-625.82"/>
</g>
<!-- 11&#45;&gt;19 -->
<g id="edge31" class="edge">
<title>11&#45;&gt;19</title>
<path fill="none" stroke="grey" stroke-width="2" d="M597.21,-657.27C582.97,-654.29 566.49,-650.91 551.5,-648 467.23,-631.65 442.56,-630.94 356.69,-612.82"/>
<polygon fill="grey" stroke="grey" stroke-width="2" points="357.62,-609.45 347.11,-610.78 356.16,-616.29 357.62,-609.45"/>
</g>
<!-- 11&#45;&gt;34 -->
<g id="edge51" class="edge">
<title>11&#45;&gt;34</title>
<path fill="none" stroke="grey" stroke-width="2" d="M669.76,-657.33C730.94,-644.26 848.71,-618.44 855.5,-612 870.48,-597.8 902.9,-469.08 917.32,-409.28"/>
<polygon fill="grey" stroke="grey" stroke-width="2" points="920.72,-410.13 919.65,-399.59 913.91,-408.5 920.72,-410.13"/>
</g>
<!-- 30 -->
<g id="node31" class="node">
<title>30</title>
<path fill="none" stroke="#56d8b9" stroke-width="2" d="M353.5,-180C353.5,-180 277.5,-180 277.5,-180 271.5,-180 265.5,-174 265.5,-168 265.5,-168 265.5,-156 265.5,-156 265.5,-150 271.5,-144 277.5,-144 277.5,-144 353.5,-144 353.5,-144 359.5,-144 365.5,-150 365.5,-156 365.5,-156 365.5,-168 365.5,-168 365.5,-174 359.5,-180 353.5,-180"/>
<text text-anchor="middle" x="315.5" y="-158.88" font-family="sans" font-size="10.00">plot_GWAS_array</text>
</g>
<!-- 12&#45;&gt;30 -->
<g id="edge44" class="edge">
<title>12&#45;&gt;30</title>
<path fill="none" stroke="grey" stroke-width="2" d="M401.65,-575.01C390.79,-548.43 372.5,-496.86 372.5,-451 372.5,-451 372.5,-451 372.5,-305 372.5,-263.39 351.16,-219.54 334.6,-191.77"/>
<polygon fill="grey" stroke="grey" stroke-width="2" points="337.7,-190.14 329.46,-183.48 331.75,-193.82 337.7,-190.14"/>
</g>
<!-- 31 -->
<g id="node32" class="node">
<title>31</title>
<path fill="none" stroke="#d86e56" stroke-width="2" d="M597,-180C597,-180 512,-180 512,-180 506,-180 500,-174 500,-168 500,-168 500,-156 500,-156 500,-150 506,-144 512,-144 512,-144 597,-144 597,-144 603,-144 609,-150 609,-156 609,-156 609,-168 609,-168 609,-174 603,-180 597,-180"/>
<text text-anchor="middle" x="554.5" y="-158.88" font-family="sans" font-size="10.00">plot_GWAS_impute</text>
</g>
<!-- 13&#45;&gt;31 -->
<g id="edge45" class="edge">
<title>13&#45;&gt;31</title>
<path fill="none" stroke="grey" stroke-width="2" d="M750.13,-575.15C735.48,-566.18 719.11,-554.19 707.5,-540 680.26,-506.71 669.5,-494.01 669.5,-451 669.5,-451 669.5,-451 669.5,-377 669.5,-302.47 614.71,-228.87 580.76,-190.42"/>
<polygon fill="grey" stroke="grey" stroke-width="2" points="583.55,-188.29 574.25,-183.23 578.37,-192.99 583.55,-188.29"/>
</g>
<!-- 32 -->
<g id="node33" class="node">
<title>32</title>
<path fill="none" stroke="#c6d856" stroke-width="2" d="M848,-468C848,-468 811,-468 811,-468 805,-468 799,-462 799,-456 799,-456 799,-444 799,-444 799,-438 805,-432 811,-432 811,-432 848,-432 848,-432 854,-432 860,-438 860,-444 860,-444 860,-456 860,-456 860,-462 854,-468 848,-468"/>
<text text-anchor="middle" x="829.5" y="-446.88" font-family="sans" font-size="10.00">get_QTLs</text>
</g>
<!-- 13&#45;&gt;32 -->
<g id="edge46" class="edge">
<title>13&#45;&gt;32</title>
<path fill="none" stroke="grey" stroke-width="2" d="M796.71,-575.11C802.94,-565.18 810.12,-552.36 814.5,-540 821.16,-521.24 824.9,-499.18 826.98,-481.72"/>
<polygon fill="grey" stroke="grey" stroke-width="2" points="830.46,-482.17 828.01,-471.86 823.49,-481.45 830.46,-482.17"/>
</g>
<!-- 33 -->
<g id="node34" class="node">
<title>33</title>
<path fill="none" stroke="#68d856" stroke-width="2" d="M941,-324C941,-324 832,-324 832,-324 826,-324 820,-318 820,-312 820,-312 820,-300 820,-300 820,-294 826,-288 832,-288 832,-288 941,-288 941,-288 947,-288 953,-294 953,-300 953,-300 953,-312 953,-312 953,-318 947,-324 941,-324"/>
<text text-anchor="middle" x="886.5" y="-302.88" font-family="sans" font-size="10.00">plot_BFMAP_pheno_gen</text>
</g>
<!-- 13&#45;&gt;33 -->
<g id="edge50" class="edge">
<title>13&#45;&gt;33</title>
<path fill="none" stroke="grey" stroke-width="2" d="M756.25,-575.07C744.75,-566.08 732.72,-554.1 726.5,-540 694.23,-466.8 679.66,-424.86 726.5,-360 745.1,-334.25 776.69,-320.81 806.91,-313.87"/>
<polygon fill="grey" stroke="grey" stroke-width="2" points="807.22,-317.38 816.32,-311.95 805.82,-310.52 807.22,-317.38"/>
</g>
<!-- 38 -->
<g id="node39" class="node">
<title>38</title>
<path fill="none" stroke="#567bd8" stroke-width="2" d="M793.88,-540C793.88,-540 747.12,-540 747.12,-540 741.12,-540 735.12,-534 735.12,-528 735.12,-528 735.12,-516 735.12,-516 735.12,-510 741.12,-504 747.12,-504 747.12,-504 793.88,-504 793.88,-504 799.88,-504 805.88,-510 805.88,-516 805.88,-516 805.88,-528 805.88,-528 805.88,-534 799.88,-540 793.88,-540"/>
<text text-anchor="middle" x="770.5" y="-518.88" font-family="sans" font-size="10.00">metaGWAS</text>
</g>
<!-- 13&#45;&gt;38 -->
<g id="edge61" class="edge">
<title>13&#45;&gt;38</title>
<path fill="none" stroke="grey" stroke-width="2" d="M780.97,-575.34C779.65,-568.75 778.12,-561.08 776.63,-553.67"/>
<polygon fill="grey" stroke="grey" stroke-width="2" points="780.07,-552.99 774.67,-543.87 773.2,-554.36 780.07,-552.99"/>
</g>
<!-- 14&#45;&gt;13 -->
<g id="edge19" class="edge">
<title>14&#45;&gt;13</title>
<path fill="none" stroke="grey" stroke-width="2" d="M777.02,-647.34C777.96,-640.75 779.06,-633.08 780.12,-625.67"/>
<polygon fill="grey" stroke="grey" stroke-width="2" points="783.57,-626.29 781.51,-615.9 776.64,-625.3 783.57,-626.29"/>
</g>
<!-- 14&#45;&gt;16 -->
<g id="edge25" class="edge">
<title>14&#45;&gt;16</title>
<path fill="none" stroke="grey" stroke-width="2" d="M738.05,-647.15C720.23,-638.43 698.55,-627.82 679.42,-618.46"/>
<polygon fill="grey" stroke="grey" stroke-width="2" points="681.13,-615.4 670.61,-614.14 678.05,-621.68 681.13,-615.4"/>
</g>
<!-- 15 -->
<g id="node16" class="node">
<title>15</title>
<path fill="none" stroke="#d8c356" stroke-width="2" d="M741.62,-180C741.62,-180 639.38,-180 639.38,-180 633.38,-180 627.38,-174 627.38,-168 627.38,-168 627.38,-156 627.38,-156 627.38,-150 633.38,-144 639.38,-144 639.38,-144 741.62,-144 741.62,-144 747.62,-144 753.62,-150 753.62,-156 753.62,-156 753.62,-168 753.62,-168 753.62,-174 747.62,-180 741.62,-180"/>
<text text-anchor="middle" x="690.5" y="-158.88" font-family="sans" font-size="10.00">plot_GWAScov_impute</text>
</g>
<!-- 37 -->
<g id="node38" class="node">
<title>37</title>
<path fill="none" stroke="#d8cb56" stroke-width="2" d="M703.5,-108C703.5,-108 669.5,-108 669.5,-108 663.5,-108 657.5,-102 657.5,-96 657.5,-96 657.5,-84 657.5,-84 657.5,-78 663.5,-72 669.5,-72 669.5,-72 703.5,-72 703.5,-72 709.5,-72 715.5,-78 715.5,-84 715.5,-84 715.5,-96 715.5,-96 715.5,-102 709.5,-108 703.5,-108"/>
<text text-anchor="middle" x="686.5" y="-86.88" font-family="sans" font-size="10.00">plot_fig4</text>
</g>
<!-- 15&#45;&gt;37 -->
<g id="edge59" class="edge">
<title>15&#45;&gt;37</title>
<path fill="none" stroke="grey" stroke-width="2" d="M689.49,-143.34C689.11,-136.75 688.68,-129.08 688.25,-121.67"/>
<polygon fill="grey" stroke="grey" stroke-width="2" points="691.76,-121.71 687.7,-111.92 684.77,-122.11 691.76,-121.71"/>
</g>
<!-- 15&#45;&gt;39 -->
<g id="edge71" class="edge">
<title>15&#45;&gt;39</title>
<path fill="none" stroke="grey" stroke-width="2" d="M705.61,-143.16C712.85,-133.44 720.75,-120.8 724.5,-108 730.08,-88.95 727.61,-66.77 723.73,-49.31"/>
<polygon fill="grey" stroke="grey" stroke-width="2" points="727.14,-48.5 721.27,-39.68 720.35,-50.24 727.14,-48.5"/>
</g>
<!-- 16&#45;&gt;15 -->
<g id="edge22" class="edge">
<title>16&#45;&gt;15</title>
<path fill="none" stroke="grey" stroke-width="2" d="M631.5,-575.07C631.5,-548.13 631.5,-495.62 631.5,-451 631.5,-451 631.5,-451 631.5,-377 631.5,-309.04 659.49,-233.17 676.92,-192.53"/>
<polygon fill="grey" stroke="grey" stroke-width="2" points="680.01,-194.19 680.83,-183.63 673.6,-191.38 680.01,-194.19"/>
</g>
<!-- 17 -->
<g id="node18" class="node">
<title>17</title>
<path fill="none" stroke="#b6d856" stroke-width="2" d="M817.88,-396C817.88,-396 747.12,-396 747.12,-396 741.12,-396 735.12,-390 735.12,-384 735.12,-384 735.12,-372 735.12,-372 735.12,-366 741.12,-360 747.12,-360 747.12,-360 817.88,-360 817.88,-360 823.88,-360 829.88,-366 829.88,-372 829.88,-372 829.88,-384 829.88,-384 829.88,-390 823.88,-396 817.88,-396"/>
<text text-anchor="middle" x="782.5" y="-374.88" font-family="sans" font-size="10.00">plot_metaGWAS</text>
</g>
<!-- 17&#45;&gt;39 -->
<g id="edge74" class="edge">
<title>17&#45;&gt;39</title>
<path fill="none" stroke="grey" stroke-width="2" d="M782.29,-359.07C782,-332.13 781.5,-279.62 781.5,-235 781.5,-235 781.5,-235 781.5,-161 781.5,-118.11 756.2,-74.31 736.69,-46.91"/>
<polygon fill="grey" stroke="grey" stroke-width="2" points="739.6,-44.96 730.84,-39 733.97,-49.12 739.6,-44.96"/>
</g>
<!-- 18 -->
<g id="node19" class="node">
<title>18</title>
<path fill="none" stroke="#56a2d8" stroke-width="2" d="M277.12,-324C277.12,-324 183.88,-324 183.88,-324 177.88,-324 171.88,-318 171.88,-312 171.88,-312 171.88,-300 171.88,-300 171.88,-294 177.88,-288 183.88,-288 183.88,-288 277.12,-288 277.12,-288 283.12,-288 289.12,-294 289.12,-300 289.12,-300 289.12,-312 289.12,-312 289.12,-318 283.12,-324 277.12,-324"/>
<text text-anchor="middle" x="230.5" y="-302.88" font-family="sans" font-size="10.00">plot_GWAScov_array</text>
</g>
<!-- 18&#45;&gt;39 -->
<g id="edge67" class="edge">
<title>18&#45;&gt;39</title>
<path fill="none" stroke="grey" stroke-width="2" d="M221.08,-287.05C199.86,-243.88 154.33,-133.27 209.5,-72 240.39,-37.69 558.88,-24.04 673.6,-20.22"/>
<polygon fill="grey" stroke="grey" stroke-width="2" points="673.64,-23.72 683.52,-19.89 673.41,-16.72 673.64,-23.72"/>
</g>
<!-- 19&#45;&gt;18 -->
<g id="edge28" class="edge">
<title>19&#45;&gt;18</title>
<path fill="none" stroke="grey" stroke-width="2" d="M281.12,-575.11C272.13,-527.46 247.5,-397.05 236.25,-337.45"/>
<polygon fill="grey" stroke="grey" stroke-width="2" points="239.73,-337.04 234.44,-327.86 232.85,-338.33 239.73,-337.04"/>
</g>
<!-- 20 -->
<g id="node21" class="node">
<title>20</title>
<path fill="none" stroke="#80d856" stroke-width="2" d="M421.38,-108C421.38,-108 317.62,-108 317.62,-108 311.62,-108 305.62,-102 305.62,-96 305.62,-96 305.62,-84 305.62,-84 305.62,-78 311.62,-72 317.62,-72 317.62,-72 421.38,-72 421.38,-72 427.38,-72 433.38,-78 433.38,-84 433.38,-84 433.38,-96 433.38,-96 433.38,-102 427.38,-108 421.38,-108"/>
<text text-anchor="middle" x="369.5" y="-86.88" font-family="sans" font-size="10.00">plot_manplot_combine</text>
</g>
<!-- 20&#45;&gt;39 -->
<g id="edge79" class="edge">
<title>20&#45;&gt;39</title>
<path fill="none" stroke="grey" stroke-width="2" d="M434.35,-73.77C437.1,-73.16 439.83,-72.57 442.5,-72 524.47,-54.48 620.86,-36.25 674.07,-26.4"/>
<polygon fill="grey" stroke="grey" stroke-width="2" points="674.46,-29.89 683.65,-24.63 673.18,-23.01 674.46,-29.89"/>
</g>
<!-- 21 -->
<g id="node22" class="node">
<title>21</title>
<path fill="none" stroke="#ced856" stroke-width="2" d="M589.62,-108C589.62,-108 463.38,-108 463.38,-108 457.38,-108 451.38,-102 451.38,-96 451.38,-96 451.38,-84 451.38,-84 451.38,-78 457.38,-72 463.38,-72 463.38,-72 589.62,-72 589.62,-72 595.62,-72 601.62,-78 601.62,-84 601.62,-84 601.62,-96 601.62,-96 601.62,-102 595.62,-108 589.62,-108"/>
<text text-anchor="middle" x="526.5" y="-86.88" font-family="sans" font-size="10.00">plot_manplot_combine_cov</text>
</g>
<!-- 21&#45;&gt;39 -->
<g id="edge73" class="edge">
<title>21&#45;&gt;39</title>
<path fill="none" stroke="grey" stroke-width="2" d="M574.43,-71.15C605.46,-59.6 645.39,-44.73 674.67,-33.83"/>
<polygon fill="grey" stroke="grey" stroke-width="2" points="675.53,-37.25 683.68,-30.48 673.09,-30.69 675.53,-37.25"/>
</g>
<!-- 40 -->
<g id="node41" class="node">
<title>40</title>
<path fill="none" stroke="#56d86b" stroke-width="2" d="M1086.25,-180C1086.25,-180 990.75,-180 990.75,-180 984.75,-180 978.75,-174 978.75,-168 978.75,-168 978.75,-156 978.75,-156 978.75,-150 984.75,-144 990.75,-144 990.75,-144 1086.25,-144 1086.25,-144 1092.25,-144 1098.25,-150 1098.25,-156 1098.25,-156 1098.25,-168 1098.25,-168 1098.25,-174 1092.25,-180 1086.25,-180"/>
<text text-anchor="middle" x="1038.5" y="-158.88" font-family="sans" font-size="10.00">plot_BFMAP_gemrich</text>
</g>
<!-- 22&#45;&gt;40 -->
<g id="edge80" class="edge">
<title>22&#45;&gt;40</title>
<path fill="none" stroke="grey" stroke-width="2" d="M1023.55,-215.34C1025.45,-208.67 1027.68,-200.89 1029.82,-193.39"/>
<polygon fill="grey" stroke="grey" stroke-width="2" points="1033.17,-194.39 1032.55,-183.81 1026.44,-192.47 1033.17,-194.39"/>
</g>
<!-- 23 -->
<g id="node24" class="node">
<title>23</title>
<path fill="none" stroke="#d85e56" stroke-width="2" d="M913.62,-252C913.62,-252 859.38,-252 859.38,-252 853.38,-252 847.38,-246 847.38,-240 847.38,-240 847.38,-228 847.38,-228 847.38,-222 853.38,-216 859.38,-216 859.38,-216 913.62,-216 913.62,-216 919.62,-216 925.62,-222 925.62,-228 925.62,-228 925.62,-240 925.62,-240 925.62,-246 919.62,-252 913.62,-252"/>
<text text-anchor="middle" x="886.5" y="-230.88" font-family="sans" font-size="10.00">wr_supdata2</text>
</g>
<!-- 23&#45;&gt;39 -->
<g id="edge62" class="edge">
<title>23&#45;&gt;39</title>
<path fill="none" stroke="grey" stroke-width="2" d="M885.27,-215.2C882.14,-182.8 871.19,-113.7 833.5,-72 812.87,-49.18 780.57,-35.65 754.82,-27.97"/>
<polygon fill="grey" stroke="grey" stroke-width="2" points="755.91,-24.64 745.34,-25.37 754.06,-31.39 755.91,-24.64"/>
</g>
<!-- 24 -->
<g id="node25" class="node">
<title>24</title>
<path fill="none" stroke="#56d8a9" stroke-width="2" d="M1085.62,-108C1085.62,-108 1031.38,-108 1031.38,-108 1025.38,-108 1019.38,-102 1019.38,-96 1019.38,-96 1019.38,-84 1019.38,-84 1019.38,-78 1025.38,-72 1031.38,-72 1031.38,-72 1085.62,-72 1085.62,-72 1091.62,-72 1097.62,-78 1097.62,-84 1097.62,-84 1097.62,-96 1097.62,-96 1097.62,-102 1091.62,-108 1085.62,-108"/>
<text text-anchor="middle" x="1058.5" y="-86.88" font-family="sans" font-size="10.00">wr_supdata3</text>
</g>
<!-- 24&#45;&gt;39 -->
<g id="edge65" class="edge">
<title>24&#45;&gt;39</title>
<path fill="none" stroke="grey" stroke-width="2" d="M1018.43,-75.54C1014.09,-74.27 1009.72,-73.06 1005.5,-72 917.18,-49.89 811.63,-32.99 755.07,-24.68"/>
<polygon fill="grey" stroke="grey" stroke-width="2" points="755.84,-21.26 745.44,-23.28 754.83,-28.18 755.84,-21.26"/>
</g>
<!-- 25 -->
<g id="node26" class="node">
<title>25</title>
<path fill="none" stroke="#d8b456" stroke-width="2" d="M1181.62,-108C1181.62,-108 1127.38,-108 1127.38,-108 1121.38,-108 1115.38,-102 1115.38,-96 1115.38,-96 1115.38,-84 1115.38,-84 1115.38,-78 1121.38,-72 1127.38,-72 1127.38,-72 1181.62,-72 1181.62,-72 1187.62,-72 1193.62,-78 1193.62,-84 1193.62,-84 1193.62,-96 1193.62,-96 1193.62,-102 1187.62,-108 1181.62,-108"/>
<text text-anchor="middle" x="1154.5" y="-86.88" font-family="sans" font-size="10.00">wr_supdata4</text>
</g>
<!-- 25&#45;&gt;39 -->
<g id="edge70" class="edge">
<title>25&#45;&gt;39</title>
<path fill="none" stroke="grey" stroke-width="2" d="M1114.61,-74.18C1111.89,-73.38 1109.16,-72.64 1106.5,-72 980.46,-41.5 827.08,-27.16 755.27,-21.73"/>
<polygon fill="grey" stroke="grey" stroke-width="2" points="755.68,-18.25 745.45,-21.01 755.17,-25.24 755.68,-18.25"/>
</g>
<!-- 26 -->
<g id="node27" class="node">
<title>26</title>
<path fill="none" stroke="#8fd856" stroke-width="2" d="M1277.62,-108C1277.62,-108 1223.38,-108 1223.38,-108 1217.38,-108 1211.38,-102 1211.38,-96 1211.38,-96 1211.38,-84 1211.38,-84 1211.38,-78 1217.38,-72 1223.38,-72 1223.38,-72 1277.62,-72 1277.62,-72 1283.62,-72 1289.62,-78 1289.62,-84 1289.62,-84 1289.62,-96 1289.62,-96 1289.62,-102 1283.62,-108 1277.62,-108"/>
<text text-anchor="middle" x="1250.5" y="-86.88" font-family="sans" font-size="10.00">wr_supdata5</text>
</g>
<!-- 26&#45;&gt;39 -->
<g id="edge78" class="edge">
<title>26&#45;&gt;39</title>
<path fill="none" stroke="grey" stroke-width="2" d="M1210.63,-74.1C1207.9,-73.32 1205.17,-72.61 1202.5,-72 1039.41,-34.8 839.53,-23.49 755.15,-20.23"/>
<polygon fill="grey" stroke="grey" stroke-width="2" points="755.53,-16.74 745.41,-19.88 755.28,-23.74 755.53,-16.74"/>
</g>
<!-- 27 -->
<g id="node28" class="node">
<title>27</title>
<path fill="none" stroke="#d87556" stroke-width="2" d="M951.62,-108C951.62,-108 897.38,-108 897.38,-108 891.38,-108 885.38,-102 885.38,-96 885.38,-96 885.38,-84 885.38,-84 885.38,-78 891.38,-72 897.38,-72 897.38,-72 951.62,-72 951.62,-72 957.62,-72 963.62,-78 963.62,-84 963.62,-84 963.62,-96 963.62,-96 963.62,-102 957.62,-108 951.62,-108"/>
<text text-anchor="middle" x="924.5" y="-86.88" font-family="sans" font-size="10.00">wr_supdata6</text>
</g>
<!-- 27&#45;&gt;39 -->
<g id="edge66" class="edge">
<title>27&#45;&gt;39</title>
<path fill="none" stroke="grey" stroke-width="2" d="M884.51,-75.67C847.09,-63.2 791.5,-44.67 754.18,-32.23"/>
<polygon fill="grey" stroke="grey" stroke-width="2" points="755.75,-29.06 745.15,-29.22 753.53,-35.7 755.75,-29.06"/>
</g>
<!-- 28 -->
<g id="node29" class="node">
<title>28</title>
<path fill="none" stroke="#56d0d8" stroke-width="2" d="M147.88,-468C147.88,-468 101.12,-468 101.12,-468 95.12,-468 89.12,-462 89.12,-456 89.12,-456 89.12,-444 89.12,-444 89.12,-438 95.12,-432 101.12,-432 101.12,-432 147.88,-432 147.88,-432 153.88,-432 159.88,-438 159.88,-444 159.88,-444 159.88,-456 159.88,-456 159.88,-462 153.88,-468 147.88,-468"/>
<text text-anchor="middle" x="124.5" y="-446.88" font-family="sans" font-size="10.00">mark_done</text>
</g>
<!-- 28&#45;&gt;1 -->
<g id="edge2" class="edge">
<title>28&#45;&gt;1</title>
<path fill="none" stroke="grey" stroke-width="2" d="M124.75,-431.34C124.85,-424.75 124.96,-417.08 125.06,-409.67"/>
<polygon fill="grey" stroke="grey" stroke-width="2" points="128.56,-409.98 125.2,-399.93 121.56,-409.88 128.56,-409.98"/>
</g>
<!-- 29&#45;&gt;28 -->
<g id="edge40" class="edge">
<title>29&#45;&gt;28</title>
<path fill="none" stroke="grey" stroke-width="2" d="M123,-503.34C123.19,-496.75 123.41,-489.08 123.62,-481.67"/>
<polygon fill="grey" stroke="grey" stroke-width="2" points="127.11,-482.02 123.9,-471.93 120.12,-481.82 127.11,-482.02"/>
</g>
<!-- 36 -->
<g id="node37" class="node">
<title>36</title>
<path fill="none" stroke="#56d882" stroke-width="2" d="M275.5,-108C275.5,-108 241.5,-108 241.5,-108 235.5,-108 229.5,-102 229.5,-96 229.5,-96 229.5,-84 229.5,-84 229.5,-78 235.5,-72 241.5,-72 241.5,-72 275.5,-72 275.5,-72 281.5,-72 287.5,-78 287.5,-84 287.5,-84 287.5,-96 287.5,-96 287.5,-102 281.5,-108 275.5,-108"/>
<text text-anchor="middle" x="258.5" y="-86.88" font-family="sans" font-size="10.00">plot_fig3</text>
</g>
<!-- 30&#45;&gt;36 -->
<g id="edge57" class="edge">
<title>30&#45;&gt;36</title>
<path fill="none" stroke="grey" stroke-width="2" d="M301.12,-143.34C295.09,-135.93 287.93,-127.14 281.22,-118.9"/>
<polygon fill="grey" stroke="grey" stroke-width="2" points="284.02,-116.79 274.99,-111.25 278.59,-121.21 284.02,-116.79"/>
</g>
<!-- 30&#45;&gt;37 -->
<g id="edge60" class="edge">
<title>30&#45;&gt;37</title>
<path fill="none" stroke="grey" stroke-width="2" d="M366.26,-152.55C425.14,-142.6 525.06,-125.22 610.5,-108 621.46,-105.79 633.26,-103.24 644.22,-100.79"/>
<polygon fill="grey" stroke="grey" stroke-width="2" points="644.67,-104.28 653.65,-98.66 643.12,-97.45 644.67,-104.28"/>
</g>
<!-- 30&#45;&gt;39 -->
<g id="edge68" class="edge">
<title>30&#45;&gt;39</title>
<path fill="none" stroke="grey" stroke-width="2" d="M264.82,-144.81C247.65,-136.63 230.35,-124.77 220.5,-108 212.4,-94.2 209.81,-83.9 220.5,-72 250.66,-38.44 561.55,-24.33 674.1,-20.3"/>
<polygon fill="grey" stroke="grey" stroke-width="2" points="673.91,-23.81 683.79,-19.96 673.67,-16.81 673.91,-23.81"/>
</g>
<!-- 31&#45;&gt;36 -->
<g id="edge56" class="edge">
<title>31&#45;&gt;36</title>
<path fill="none" stroke="grey" stroke-width="2" d="M499.25,-153.23C449.18,-145.4 373.36,-131.57 300.3,-108.87"/>
<polygon fill="grey" stroke="grey" stroke-width="2" points="301.6,-105.61 291.01,-105.91 299.48,-112.28 301.6,-105.61"/>
</g>
<!-- 31&#45;&gt;37 -->
<g id="edge58" class="edge">
<title>31&#45;&gt;37</title>
<path fill="none" stroke="grey" stroke-width="2" d="M588.15,-143.15C605.53,-133.94 626.88,-122.62 645.24,-112.88"/>
<polygon fill="grey" stroke="grey" stroke-width="2" points="646.64,-116.1 653.84,-108.32 643.36,-109.91 646.64,-116.1"/>
</g>
<!-- 31&#45;&gt;39 -->
<g id="edge64" class="edge">
<title>31&#45;&gt;39</title>
<path fill="none" stroke="grey" stroke-width="2" d="M573.42,-143.09C584.28,-132.82 598.16,-119.69 610.5,-108 627.39,-92 630.97,-87.3 648.5,-72 658.88,-62.94 670.51,-53.41 681.08,-44.97"/>
<polygon fill="grey" stroke="grey" stroke-width="2" points="683.17,-47.77 688.84,-38.82 678.83,-42.29 683.17,-47.77"/>
</g>
<!-- 32&#45;&gt;33 -->
<g id="edge49" class="edge">
<title>32&#45;&gt;33</title>
<path fill="none" stroke="grey" stroke-width="2" d="M836.72,-431.02C846.23,-407.33 863.08,-365.35 874.51,-336.86"/>
<polygon fill="grey" stroke="grey" stroke-width="2" points="877.73,-338.23 878.21,-327.65 871.24,-335.62 877.73,-338.23"/>
</g>
<!-- 32&#45;&gt;34 -->
<g id="edge52" class="edge">
<title>32&#45;&gt;34</title>
<path fill="none" stroke="grey" stroke-width="2" d="M853.47,-431.34C864.53,-423.19 877.85,-413.37 889.96,-404.45"/>
<polygon fill="grey" stroke="grey" stroke-width="2" points="891.79,-407.45 897.77,-398.7 887.64,-401.81 891.79,-407.45"/>
</g>
<!-- 33&#45;&gt;22 -->
<g id="edge33" class="edge">
<title>33&#45;&gt;22</title>
<path fill="none" stroke="grey" stroke-width="2" d="M920.15,-287.15C936.36,-278.56 956.04,-268.12 973.52,-258.85"/>
<polygon fill="grey" stroke="grey" stroke-width="2" points="975.04,-262.01 982.24,-254.23 971.76,-255.82 975.04,-262.01"/>
</g>
<!-- 33&#45;&gt;23 -->
<g id="edge35" class="edge">
<title>33&#45;&gt;23</title>
<path fill="none" stroke="grey" stroke-width="2" d="M886.5,-287.34C886.5,-280.75 886.5,-273.08 886.5,-265.67"/>
<polygon fill="grey" stroke="grey" stroke-width="2" points="890,-265.93 886.5,-255.93 883,-265.93 890,-265.93"/>
</g>
<!-- 33&#45;&gt;39 -->
<g id="edge63" class="edge">
<title>33&#45;&gt;39</title>
<path fill="none" stroke="grey" stroke-width="2" d="M866.14,-287.18C856.43,-277.65 845.45,-265.18 838.5,-252 800.14,-179.24 842.82,-139.28 795.5,-72 784.95,-56.99 768.66,-45.15 753.46,-36.5"/>
<polygon fill="grey" stroke="grey" stroke-width="2" points="755.3,-33.51 744.82,-31.92 752.02,-39.7 755.3,-33.51"/>
</g>
<!-- 33&#45;&gt;40 -->
<g id="edge81" class="edge">
<title>33&#45;&gt;40</title>
<path fill="none" stroke="grey" stroke-width="2" d="M902.37,-287.3C919.18,-268.87 946.79,-239.46 972.5,-216 982.6,-206.79 994.07,-197.28 1004.58,-188.9"/>
<polygon fill="grey" stroke="grey" stroke-width="2" points="1006.61,-191.75 1012.31,-182.82 1002.29,-186.25 1006.61,-191.75"/>
</g>
<!-- 34&#45;&gt;33 -->
<g id="edge48" class="edge">
<title>34&#45;&gt;33</title>
<path fill="none" stroke="grey" stroke-width="2" d="M914.91,-359.34C911.11,-352.34 906.65,-344.12 902.39,-336.28"/>
<polygon fill="grey" stroke="grey" stroke-width="2" points="905.51,-334.68 897.66,-327.56 899.36,-338.02 905.51,-334.68"/>
</g>
<!-- 34&#45;&gt;40 -->
<g id="edge82" class="edge">
<title>34&#45;&gt;40</title>
<path fill="none" stroke="grey" stroke-width="2" d="M957.29,-359.07C991.35,-338.35 1042.66,-300.77 1064.5,-252 1073.1,-232.78 1066.13,-209.97 1057.24,-192.25"/>
<polygon fill="grey" stroke="grey" stroke-width="2" points="1060.33,-190.6 1052.43,-183.55 1054.21,-193.99 1060.33,-190.6"/>
</g>
<!-- 35&#45;&gt;34 -->
<g id="edge53" class="edge">
<title>35&#45;&gt;34</title>
<path fill="none" stroke="grey" stroke-width="2" d="M983.89,-503.02C972.49,-479.22 952.26,-436.97 938.62,-408.48"/>
<polygon fill="grey" stroke="grey" stroke-width="2" points="941.83,-407.08 934.35,-399.57 935.51,-410.1 941.83,-407.08"/>
</g>
<!-- 36&#45;&gt;39 -->
<g id="edge75" class="edge">
<title>36&#45;&gt;39</title>
<path fill="none" stroke="grey" stroke-width="2" d="M288.48,-74.63C291.16,-73.64 293.86,-72.74 296.5,-72 431.38,-34.18 598.37,-23.28 673.96,-20.19"/>
<polygon fill="grey" stroke="grey" stroke-width="2" points="673.67,-23.71 683.53,-19.83 673.4,-16.71 673.67,-23.71"/>
</g>
<!-- 37&#45;&gt;39 -->
<g id="edge77" class="edge">
<title>37&#45;&gt;39</title>
<path fill="none" stroke="grey" stroke-width="2" d="M693.57,-71.34C696.3,-64.51 699.5,-56.5 702.57,-48.83"/>
<polygon fill="grey" stroke="grey" stroke-width="2" points="705.75,-50.3 706.22,-39.71 699.25,-47.7 705.75,-50.3"/>
</g>
<!-- 38&#45;&gt;17 -->
<g id="edge27" class="edge">
<title>38&#45;&gt;17</title>
<path fill="none" stroke="grey" stroke-width="2" d="M772.02,-503.02C774,-479.54 777.51,-438.11 779.91,-409.64"/>
<polygon fill="grey" stroke="grey" stroke-width="2" points="783.38,-410.11 780.74,-399.85 776.41,-409.52 783.38,-410.11"/>
</g>
<!-- 38&#45;&gt;32 -->
<g id="edge47" class="edge">
<title>38&#45;&gt;32</title>
<path fill="none" stroke="grey" stroke-width="2" d="M785.39,-503.34C791.7,-495.85 799.2,-486.95 806.21,-478.63"/>
<polygon fill="grey" stroke="grey" stroke-width="2" points="808.69,-481.12 812.46,-471.22 803.34,-476.61 808.69,-481.12"/>
</g>
<!-- 40&#45;&gt;24 -->
<g id="edge36" class="edge">
<title>40&#45;&gt;24</title>
<path fill="none" stroke="grey" stroke-width="2" d="M1043.55,-143.34C1045.45,-136.67 1047.68,-128.89 1049.82,-121.39"/>
<polygon fill="grey" stroke="grey" stroke-width="2" points="1053.17,-122.39 1052.55,-111.81 1046.44,-120.47 1053.17,-122.39"/>
</g>
<!-- 40&#45;&gt;25 -->
<g id="edge37" class="edge">
<title>40&#45;&gt;25</title>
<path fill="none" stroke="grey" stroke-width="2" d="M1068.07,-143.15C1081.98,-134.76 1098.78,-124.62 1113.86,-115.52"/>
<polygon fill="grey" stroke="grey" stroke-width="2" points="1115.64,-118.54 1122.39,-110.38 1112.02,-112.55 1115.64,-118.54"/>
</g>
<!-- 40&#45;&gt;26 -->
<g id="edge38" class="edge">
<title>40&#45;&gt;26</title>
<path fill="none" stroke="grey" stroke-width="2" d="M1095.17,-143.11C1123.86,-133.96 1159.49,-122.45 1198.31,-109.38"/>
<polygon fill="grey" stroke="grey" stroke-width="2" points="1199.24,-112.76 1207.59,-106.24 1196.99,-106.13 1199.24,-112.76"/>
</g>
<!-- 40&#45;&gt;27 -->
<g id="edge39" class="edge">
<title>40&#45;&gt;27</title>
<path fill="none" stroke="grey" stroke-width="2" d="M1009.44,-143.15C995.77,-134.76 979.26,-124.62 964.44,-115.52"/>
<polygon fill="grey" stroke="grey" stroke-width="2" points="966.44,-112.65 956.09,-110.4 962.78,-118.61 966.44,-112.65"/>
</g>
<!-- 40&#45;&gt;39 -->
<g id="edge72" class="edge">
<title>40&#45;&gt;39</title>
<path fill="none" stroke="grey" stroke-width="2" d="M1030.31,-143.21C1019.89,-122.67 999.91,-89.48 972.5,-72 904.97,-28.94 809.07,-19.99 755.23,-18.63"/>
<polygon fill="grey" stroke="grey" stroke-width="2" points="755.58,-15.14 745.52,-18.48 755.47,-22.14 755.58,-15.14"/>
</g>
</g>
</svg>
